<svg xmlns="http://www.w3.org/2000/svg" width="22" height="22" viewBox="0 0 22 22">
    <path fill="none" stroke="#FFF" stroke-width="1.3"
        d="M19.756 11.55l-.294-.394c-.318-.428-.326-1.008-.012-1.444l.286-.397c.437-.608.234-1.453-.437-1.807l-.437-.23c-.477-.249-.74-.77-.648-1.296l.084-.479c.127-.732-.433-1.41-1.192-1.44l-.497-.02c-.54-.023-1.01-.381-1.16-.891l-.14-.468c-.21-.716-1.012-1.086-1.712-.79l-.457.19c-.496.211-1.076.086-1.438-.31l-.33-.363c-.504-.553-1.39-.549-1.891.016l-.326.366c-.358.4-.934.533-1.434.33l-.461-.186c-.704-.284-1.498.101-1.7.817l-.132.471c-.143.514-.604.88-1.144.908l-.497.027c-.759.043-1.307.728-1.168 1.46l.091.479c.1.521-.155 1.047-.628 1.304l-.433.237c-.663.362-.854 1.211-.405 1.81l.294.394c.318.428.326 1.008.012 1.444l-.286.397c-.437.608-.234 1.453.437 1.807l.437.23c.477.249.74.77.648 1.296l-.084.479c-.127.732.433 1.41 1.192 1.44l.497.02c.54.023 1.01.381 1.16.891l.14.468c.21.716 1.012 1.086 1.712.79l.457-.19c.496-.211 1.076-.086 1.438.31l.33.363c.508.553 1.394.549 1.891-.016l.326-.366c.358-.4.934-.533 1.434-.33l.461.186c.704.284 1.498-.101 1.7-.817l.132-.471c.143-.514.604-.88 1.144-.908l.497-.027c.759-.043 1.307-.728 1.168-1.46l-.091-.479c-.1-.521.155-1.047.628-1.304l.433-.237c.663-.359.854-1.207.405-1.81zM6.588 8.388c0-.584.5-1.056 1.118-1.056.618 0 1.118.472 1.118 1.056 0 .583-.5 1.055-1.118 1.055-.618 0-1.118-.474-1.118-1.055zm1.893 6.155c-.153.21-.43.238-.617.065h0c-.186-.173-.211-.485-.058-.695l4.713-6.402c.153-.21.43-.239.617-.066.186.173.211.486.058.696l-4.713 6.402zm4.813-.877c-.618 0-1.118-.472-1.118-1.056 0-.583.5-1.055 1.118-1.055.618 0 1.118.472 1.118 1.055 0 .584-.5 1.056-1.118 1.056z" />
</svg>
