<?xml version="1.0" encoding="utf-8"?>
<!-- Generator: Adobe Illustrator 23.0.3, SVG Export Plug-In . SVG Version: 6.00 Build 0)  -->
<svg version="1.1" id="Layer_1" xmlns="http://www.w3.org/2000/svg" xmlns:xlink="http://www.w3.org/1999/xlink" x="0px" y="0px"
	 viewBox="0 0 512 512" style="enable-background:new 0 0 512 512;" xml:space="preserve">
<style type="text/css">
	.st0{fill:#1127B4;}
	.st1{fill:#FF9600;}
</style>
<g>
	<g>
		<path class="st0" d="M417.5,224.6c-8.7,0-15.7,7-15.7,15.7v15.8c0,41.2-16.1,80-45.3,109.1c-29.2,29.1-67.9,45.1-109.1,45.1
			c0,0-0.1,0-0.1,0c-85.1,0-154.3-69.3-154.3-154.4c0-41.2,16.1-80,45.3-109.1c29.2-29.1,67.9-45.1,109.1-45.1c0,0,0.1,0,0.1,0
			c21.8,0,42.9,4.5,62.7,13.4c7.9,3.5,17.2,0,20.7-7.9c3.5-7.9,0-17.2-7.9-20.7c-23.9-10.7-49.3-16.1-75.5-16.1c0,0-0.1,0-0.1,0
			c-49.6,0-96.2,19.3-131.3,54.3c-35.1,35.1-54.5,81.7-54.5,131.3c0,49.6,19.3,96.3,54.3,131.4s81.7,54.5,131.3,54.5
			c0,0,0.1,0,0.1,0c49.6,0,96.2-19.3,131.3-54.3c35.1-35.1,54.5-81.7,54.5-131.3v-15.8C433.2,231.6,426.2,224.6,417.5,224.6z"/>
	</g>
</g>
<g>
	<g>
		<path class="st1" d="M445.7,92c-6.1-6.1-16.1-6.1-22.2,0l-176,176L207.6,228c-6.1-6.1-16.1-6.1-22.2,0c-6.1,6.1-6.1,16.1,0,22.2
			l51,51c3.1,3.1,7.1,4.6,11.1,4.6s8-1.5,11.1-4.6l187.1-187.1C451.8,108,451.8,98.1,445.7,92z"/>
	</g>
</g>
</svg>
