<?xml version="1.0" encoding="utf-8"?>
<!-- Generator: Adobe Illustrator 22.1.0, SVG Export Plug-In . SVG Version: 6.00 Build 0)  -->
<svg version="1.1" id="Layer_1" xmlns="http://www.w3.org/2000/svg" xmlns:xlink="http://www.w3.org/1999/xlink" x="0px" y="0px"
	 viewBox="0 0 216 936" style="enable-background:new 0 0 216 936;" xml:space="preserve">
<style type="text/css">
	.st0{fill:#FF9600;}
	.st1{fill:#1127B4;}
	.st2{fill:none;}
	.st3{fill:#D3D3D3;}
	.st4{fill:#1127B4;stroke:#1127B4;stroke-width:0.5;stroke-miterlimit:10;}
	.st5{clip-path:url(#SVGID_2_);fill:#1127B4;}
	.st6{clip-path:url(#SVGID_4_);fill:#1127B4;}
	.st7{clip-path:url(#SVGID_6_);fill:#1127B4;}
	.st8{fill:#A9A9A9;}
</style>
<path class="st0" d="M99.2,898.9c0,0,3.5,3.3,8.1,0.3v1.9l-2.2,2.3l-2.3,0.4l-3.6-2.2l-0.6-2.8H99.2z"/>
<polygon class="st0" points="113.4,838.3 117.7,828.5 117.7,840.9 115.4,844.9 "/>
<polygon class="st0" points="91.1,820.7 91.1,818.6 94,817.3 102.3,817.3 106.8,817.3 96.7,822 "/>
<rect x="97.7" y="769.2" class="st0" width="4.4" height="3.3"/>
<rect x="112.7" y="769.2" class="st0" width="4.4" height="3.3"/>
<rect x="94.5" y="765" class="st0" width="26.2" height="3.5"/>
<ellipse class="st0" cx="103.2" cy="697.6" rx="3" ry="2.6"/>
<ellipse class="st0" cx="119.7" cy="697.6" rx="3" ry="2.6"/>
<rect x="91.3" y="625.3" class="st0" width="5.1" height="3"/>
<rect x="105" y="625.3" class="st0" width="5.1" height="3"/>
<rect x="118.6" y="625.3" class="st0" width="5.1" height="3"/>
<polygon class="st0" points="124.7,556.6 111.4,556.9 111.6,552 124.6,552 "/>
<polyline class="st0" points="90.1,534.1 93.8,536.6 97.9,535.4 101.1,533.6 104.5,534.2 106.8,535.4 106.8,537.6 104.4,542.6 
	101.3,544.6 95.6,544.6 90.5,538.6 90.1,534.4 "/>
<path class="st0" d="M91,398.7c0,0,14.3,12.1,32.9,0c0,0-8.3,12.2-16.3,14C107.6,412.8,93.8,403.4,91,398.7z"/>
<rect x="21" y="393.7" class="st0" width="4.4" height="13.1"/>
<rect x="33" y="393.7" class="st0" width="4.4" height="13.1"/>
<rect x="45.8" y="393.7" class="st0" width="4.4" height="13.1"/>
<polygon class="st0" points="118.5,341.7 95.6,341.7 94.5,332.7 120.9,332.7 "/>
<rect x="121.3" y="245.8" class="st0" width="3" height="3.6"/>
<rect x="97.7" y="238.9" class="st0" width="14.3" height="8.3"/>
<path class="st0" d="M111.9,192.6l-10.2-0.4c0,0-4.7-3.9-3.6-3.7c10.9,1.9,18-0.2,18-0.2L111.9,192.6z"/>
<rect x="93.1" y="188.7" class="st0" width="2.6" height="7.9"/>
<rect x="121.2" y="188.7" class="st0" width="2.6" height="7.9"/>
<path class="st0" d="M34.7,188.7c0,0-7.4,3.7-16.2,0v8.3l16.2,0.4V188.7z"/>
<rect x="95.1" y="122.2" class="st0" width="25.5" height="3.4"/>
<path class="st0" d="M52.1,116.6c0,0-11.5,5.3-33,5.3v2.3l29.7,1.5l3.3-2V116.6z"/>
<polygon class="st0" points="117.1,53.2 99,53.2 96.2,44.7 118.9,44.7 "/>
<g>
	<rect x="21.8" y="337.8" class="st0" width="25.5" height="3.4"/>
	<polygon class="st0" points="18.9,332.7 26.3,340.2 18.6,340.2 	"/>
	<polygon class="st0" points="50.5,332.7 43.2,340.2 50.9,340.2 	"/>
</g>
<path class="st1" d="M53.5,322.4h-1.7v-7.9c0-1.9-1.6-3.4-3.5-3.4h-2.4l-2.4-4.3c-0.4-0.7-1.1-1.1-1.8-1.1c-0.3,0-0.7,0.1-1,0.3
	l-9.3,5.1H21c-1.9,0-3.5,1.5-3.5,3.4v23.6c0,1.9,1.6,3.4,3.5,3.4h27.2c1.9,0,3.5-1.5,3.5-3.4v-6.9h1.7V322.4z M48.2,312.4
	c1.1,0,2,0.8,2.1,1.8h-2.6l-1-1.8H48.2z M41.3,307.2c0.3-0.2,0.8,0,1,0.3l3.8,6.8H28.4L41.3,307.2z M50.3,338.1
	c0,1.1-0.9,2.1-2.1,2.1H21c-1.2,0-2.1-0.9-2.1-2.1v-23.6c0-1.1,0.9-2.1,2.1-2.1h7.8l-3.3,1.8h-4.1c-0.4,0-0.7,0.3-0.7,0.7
	s0.3,0.7,0.7,0.7h28.9v6.8h-5.1c-2.4,0-4.3,1.9-4.3,4.2v0.3c0,2.3,1.9,4.2,4.3,4.2h5.1V338.1z M52.1,329.8h-6.8
	c-1.6,0-2.9-1.3-2.9-2.9v-0.3c0-1.6,1.3-2.9,2.9-2.9h6.8V329.8z"/>
<rect x="17.6" y="305.7" class="st2" width="36" height="36"/>
<g>
	<path class="st1" d="M122.2,28.3c-0.1-0.7-0.6-1.4-1.2-1.7c-0.4-0.2-0.8-0.3-1.2-0.3c-0.3-1.1-1.3-1.8-2.4-1.8
		c-0.2-0.9-0.9-1.5-1.8-1.7c-0.2-0.9-0.9-1.6-1.7-1.8c0-0.3-0.1-0.7-0.2-1c-0.3-0.8-1.1-1.4-2-1.5c-0.5,0-0.9,0.1-1.3,0.3
		c-0.8-1-2.3-1.2-3.3-0.4c-0.1,0.1-0.2,0.2-0.3,0.3c-0.9-1-2.4-1.1-3.4-0.2c0,0-0.1,0.1-0.1,0.1c-0.4-0.1-0.8-0.1-1.3,0
		c-0.9,0.2-1.6,1-1.8,1.9c-0.1,0.4,0,0.9,0.1,1.3c-0.2,0.1-0.5,0.3-0.7,0.5c-0.5-0.1-1-0.1-1.5,0c-0.7,0.2-1.2,0.8-1.5,1.5
		c-0.1,0.4-0.2,0.7-0.1,1.1c-0.6,0.3-1,0.9-1.1,1.5c-0.4,0-0.9,0.1-1.2,0.3c-0.6,0.4-1.1,1-1.2,1.7c-0.1,0.6,0.1,1.2,0.4,1.7
		c-0.6,0.8-0.8,1.8-0.5,2.7l5.3,21H117l5.2-20.9c0.2-0.9,0.1-1.9-0.5-2.7C122.1,29.5,122.3,28.9,122.2,28.3z M94.7,27.6
		c0.3-0.2,0.7-0.2,1-0.1c0.3,0.1,0.7,0,0.8-0.4c0-0.1,0-0.2,0-0.2c0,0,0-0.1,0-0.1c0-0.5,0.4-1,0.9-1.1c0.3-0.1,0.5-0.4,0.4-0.7
		c0,0,0,0,0-0.1c-0.1-0.3-0.1-0.6,0-0.9c0.1-0.3,0.4-0.6,0.7-0.7c0.3-0.1,0.7-0.1,1,0.1c0.3,0.2,0.6,0.1,0.8-0.2
		c0.2-0.3,0.6-0.5,0.9-0.5c0.3,0,0.6-0.3,0.6-0.6c0-0.1-0.1-0.3-0.2-0.4c-0.3-0.3-0.4-0.7-0.3-1c0.1-0.5,0.4-0.8,0.9-0.9
		c0.3-0.1,0.6,0,0.9,0.1c0.3,0.2,0.6,0.1,0.8-0.2c0.4-0.6,1.1-0.7,1.7-0.4c0.3,0.2,0.6,0.6,0.6,1c0,0.3,0.3,0.6,0.6,0.6
		s0.6-0.3,0.6-0.6c0-0.7,0.5-1.2,1.2-1.2c0.5,0,0.9,0.3,1.1,0.8c0.1,0.2,0.2,0.3,0.4,0.4c0.2,0,0.4,0,0.6-0.2c0.3-0.3,0.6-0.4,1-0.4
		c0.4,0.1,0.8,0.4,1,0.8c0.1,0.3,0.1,0.6,0,0.8c-0.1,0.3,0.1,0.6,0.4,0.8c0.1,0,0.1,0,0.2,0c0,0,0.1,0,0.1,0c0.7,0,1.2,0.5,1.2,1.2
		c0,0.3,0.3,0.6,0.6,0.6c0.7,0,1.2,0.5,1.2,1.2c0,0,0,0.1,0,0.1c0,0.3,0.2,0.6,0.6,0.6c0.1,0,0.2,0,0.2,0c0.1,0,0.3-0.1,0.4-0.1
		c0.7,0,1.2,0.5,1.2,1.2c0,0,0,0.1,0,0.1c0,0.3,0.2,0.6,0.6,0.6c0.1,0,0.2,0,0.2,0c0.3-0.1,0.7-0.1,1,0.1c0.3,0.2,0.6,0.5,0.6,0.9
		c0,0.3,0,0.5-0.1,0.8l0,0c-0.1-0.1-0.3-0.2-0.4-0.2c0,0-0.1,0-0.1,0c-0.1-0.1-0.3-0.1-0.4-0.2c0,0,0,0,0,0c-0.2,0-0.3-0.1-0.4-0.1
		c0,0-0.1,0-0.1,0c-0.2,0-0.3,0-0.5,0c-1.1,0-2.2,0.6-2.8,1.5l0,0l0,0l0,0c-0.6-0.9-1.7-1.5-2.8-1.5h-0.1c-1.1,0-2.2,0.6-2.8,1.5
		c-0.6-0.9-1.7-1.5-2.8-1.5h-0.2c-1.1,0-2.2,0.5-2.8,1.5c-0.6-0.9-1.7-1.5-2.8-1.5h-0.1c-1.1,0-2.2,0.6-2.8,1.5
		c-0.8-1.1-2.1-1.7-3.4-1.5c-0.1,0-0.1,0-0.2,0c-0.1,0-0.3,0.1-0.4,0.1c-0.1,0-0.1,0-0.2,0.1c-0.2,0.1-0.3,0.2-0.5,0.3c0,0,0,0,0,0
		h0c-0.1-0.2-0.2-0.5-0.1-0.7C94.2,28.1,94.4,27.8,94.7,27.6z M115.5,32.3l-0.8,5.3h-3.9l0.3-5.7c0-0.4,0.2-0.8,0.4-1.1l0,0
		c0.4-0.6,1.1-1,1.8-1h0.1c0.7,0,1.4,0.4,1.8,1l0,0C115.4,31.2,115.5,31.8,115.5,32.3z M105.3,32c0-1.2,0.9-2.2,2.2-2.2c0,0,0,0,0,0
		h0.2c0.7,0,1.4,0.4,1.8,1l0,0c0.3,0.4,0.4,0.9,0.4,1.3l-0.3,5.5h-4L105.3,32L105.3,32L105.3,32z M99.9,30.7c0.4-0.6,1.1-1,1.8-1
		h0.1c1.2,0,2.2,1,2.2,2.1V32v0l0.3,5.5h-3.9L99.6,32C99.6,31.6,99.7,31.1,99.9,30.7L99.9,30.7z M99.1,52.5L94,32.4
		c-0.3-1.2,0.5-2.4,1.7-2.6c0.9-0.2,1.8,0.2,2.3,0.9l0,0c0.2,0.3,0.3,0.6,0.4,0.9l0.1,0.5c0,0.1,0,0.2,0,0.3l0.8,5.1l0,0v8.4h1.3
		l0.1,0.8l0.9,5.7L99.1,52.5L99.1,52.5z M102.7,52.5l-0.6-4l-0.4-2.6h3.1l0.3,6.6H102.7z M108.8,52.5h-2.4l-0.3-6.6h3.1L108.8,52.5z
		 M112.4,52.5H110l0.3-6.6h3.1L112.4,52.5z M110.4,44.7h-10v-6h14.4v6H110.4z M121.1,32.5l-5,20h-2.4l1-6.6h1.3v-8.4l0,0l0.8-5.9
		c0.2-1.2,1.3-2,2.5-1.8s2,1.3,1.8,2.5C121.1,32.4,121.1,32.4,121.1,32.5L121.1,32.5z"/>
	<path class="st1" d="M96.2,22c0-0.3-0.1-0.6-0.2-0.9c0.1-0.3,0.2-0.6,0.2-0.9c0-1.3-1.1-2.4-2.4-2.4c-0.7,0-1.4,0.3-1.9,0.9
		c-1.3,0-2.4,1.1-2.4,2.4s1.1,2.4,2.4,2.4c0.8,1,2.3,1.2,3.4,0.3C95.9,23.4,96.2,22.7,96.2,22z M92.8,22.6l-0.2-0.3l-0.4,0.1
		c0,0-0.1,0-0.1,0c-0.7,0-1.2-0.5-1.2-1.2s0.5-1.2,1.2-1.2c0.1,0,0.1,0,0.2,0l0.4,0l0.2-0.4c0.3-0.6,1-0.8,1.6-0.5
		c0.4,0.2,0.6,0.6,0.6,1.1c0,0.2-0.1,0.4-0.2,0.6l-0.2,0.3l0.2,0.3C95,21.6,95,21.8,95,22c0,0.7-0.5,1.2-1.2,1.2
		C93.4,23.2,93,23,92.8,22.6z"/>
	<path class="st1" d="M125.5,21.4c0-1.3-1.1-2.4-2.4-2.4c-0.7,0-1.4,0.3-1.9,0.9c-1.3,0-2.4,1.1-2.4,2.4s1.1,2.4,2.4,2.4
		c0.8,1,2.3,1.2,3.4,0.3c0.6-0.5,0.9-1.1,0.9-1.9c0-0.3-0.1-0.6-0.2-0.9C125.5,22,125.5,21.7,125.5,21.4z M124.2,22.6
		c0.1,0.2,0.2,0.4,0.2,0.6c0,0.7-0.5,1.2-1.2,1.2c-0.4,0-0.8-0.2-1-0.6l-0.2-0.3l-0.4,0.1c0,0-0.1,0-0.1,0c-0.7,0-1.2-0.5-1.2-1.2
		s0.5-1.2,1.2-1.2c0.1,0,0.1,0,0.2,0l0.4,0l0.2-0.4c0.3-0.6,1-0.8,1.6-0.5c0.4,0.2,0.6,0.6,0.6,1.1c0,0.2-0.1,0.4-0.2,0.6l-0.2,0.3
		L124.2,22.6z"/>
</g>
<path class="st3" d="M196.7,20.1h-4.5v-1.8c0-0.3-0.3-0.6-0.6-0.6h-4.5c-0.4,0-0.6,0.3-0.6,0.6v1.8h-14.1v-1.8
	c0-0.3-0.3-0.6-0.6-0.6h-4.5c-0.4,0-0.6,0.3-0.6,0.6v1.8h-4.5c-0.4,0-0.6,0.3-0.6,0.6v32.3c0,0.3,0.3,0.6,0.6,0.6h34.5
	c0.4,0,0.6-0.3,0.6-0.6V20.7C197.4,20.4,197.1,20.1,196.7,20.1L196.7,20.1z M187.8,18.9h3.2v3.6h-3.2V18.9z M167.9,18.9h3.2v3.6
	h-3.2V18.9z M162.8,21.3h3.8v1.8c0,0.3,0.3,0.6,0.6,0.6h4.5c0.4,0,0.6-0.3,0.6-0.6v-1.8h14.1v1.8c0,0.3,0.3,0.6,0.6,0.6h4.5
	c0.4,0,0.6-0.3,0.6-0.6v-1.8h3.8v5.4h-33.2L162.8,21.3L162.8,21.3z M162.8,52.5V27.9h33.2v24.5C196.1,52.5,162.8,52.5,162.8,52.5z"
	/>
<path class="st3" d="M184.6,29.7h-17.3v18h24.3v-18H184.6z M180.1,30.9h4.5v4.3h-4.5V30.9z M184.6,40.8h-4.5v-4.3h4.5V40.8z
	 M174.3,36.5h4.5v4.3h-4.5V36.5z M174.3,30.9h4.5v4.3h-4.5V30.9z M168.6,30.9h4.5v4.3h-4.5V30.9z M168.6,36.5h4.5v4.3h-4.5V36.5z
	 M173.1,46.4h-4.5v-4.3h4.5V46.4z M178.8,46.4h-4.5v-4.3h4.5V46.4z M184.6,46.4h-4.5v-4.3h4.5V46.4z M190.3,46.4h-4.5v-4.3h4.5V46.4
	z M190.3,40.8h-4.5v-4.3h4.5V40.8z M190.3,30.9v4.3h-4.5v-4.3H190.3z"/>
<g>
	<path class="st1" d="M49.8,125.7H21.3c-2.1,0-3.8-1.7-3.8-3.8v-16.5c0-2.1,1.7-3.8,3.8-3.8h28.5c2.1,0,3.8,1.7,3.8,3.8v16.5
		C53.6,124,51.9,125.7,49.8,125.7z M21.3,103.2c-1.2,0-2.3,1-2.3,2.3v16.5c0,1.2,1,2.3,2.3,2.3h28.5c1.2,0,2.3-1,2.3-2.3v-16.5
		c0-1.2-1-2.3-2.3-2.3H21.3z"/>
	<path class="st1" d="M52.8,107.7H18.3c-0.4,0-0.8-0.1-0.8-0.2v-1.1c0-0.1,0.3-0.2,0.8-0.2h34.5c0.4,0,0.8,0.1,0.8,0.2v1.1
		C53.6,107.6,53.2,107.7,52.8,107.7z"/>
	<path class="st1" d="M28.8,113.6h-6c-0.4,0-0.8-0.3-0.8-0.8s0.3-0.8,0.8-0.8h6c0.4,0,0.8,0.3,0.8,0.8
		C29.6,113.3,29.2,113.6,28.8,113.6z"/>
	<path class="st1" d="M33.3,116.6H22.8c-0.4,0-0.8-0.3-0.8-0.8s0.3-0.8,0.8-0.8h10.5c0.4,0,0.8,0.3,0.8,0.8
		C34.1,116.3,33.7,116.6,33.3,116.6z"/>
</g>
<path class="st1" d="M124.8,92.1h-4.5v-1.8c0-0.3-0.3-0.6-0.6-0.6h-4.5c-0.3,0-0.6,0.3-0.6,0.6v1.8h-14.1v-1.8
	c0-0.3-0.3-0.6-0.6-0.6h-4.5c-0.3,0-0.6,0.3-0.6,0.6v1.8h-4.5c-0.3,0-0.6,0.3-0.6,0.6v32.4c0,0.3,0.3,0.6,0.6,0.6h34.6
	c0.3,0,0.6-0.3,0.6-0.6V92.7C125.4,92.4,125.1,92.1,124.8,92.1L124.8,92.1z M115.8,90.9h3.2v3.6h-3.2V90.9z M96,90.9h3.2v3.6H96
	V90.9z M90.8,93.3h3.8v1.8c0,0.3,0.3,0.6,0.6,0.6h4.5c0.3,0,0.6-0.3,0.6-0.6v-1.8h14.1v1.8c0,0.3,0.3,0.6,0.6,0.6h4.5
	c0.3,0,0.6-0.3,0.6-0.6v-1.8h3.8v5.4H90.8V93.3z M90.8,124.5V99.9h33.3v24.6H90.8z"/>
<g>
	<path class="st1" d="M113.1,102.7c0-0.3-0.2-0.5-0.5-0.5h-10.7c-0.3,0-0.5,0.2-0.5,0.5s0.2,0.5,0.5,0.5h3.1c2.1,0,3.8,1.6,4.1,3.5
		h-7.1c-0.3,0-0.5,0.2-0.5,0.5s0.2,0.5,0.5,0.5h7.1c-0.3,2.1-2,3.6-4.1,3.6h-3.1c-0.3,0-0.5,0.2-0.5,0.5c0,0.1,0.1,0.3,0.2,0.4
		l7.7,7.2c0.2,0.2,0.5,0.2,0.7,0l0,0c0.2-0.2,0.2-0.5,0-0.7l-6.7-6.4h1.8c2.6,0,4.8-2,5.1-4.6h2.6c0.3,0,0.5-0.2,0.5-0.5
		s-0.2-0.5-0.5-0.5h-2.6c-0.2-1.4-0.9-2.7-2-3.5h4.6C112.9,103.2,113.1,103,113.1,102.7L113.1,102.7z"/>
</g>
<g>
	<g>
		<g>
			<path class="st1" d="M33.8,161.7H19.3c-1,0-1.8,1-1.8,2.3v31.4c0,1.3,0.8,2.3,1.8,2.3h14.5c1,0,1.8-1,1.8-2.3V164
				C35.6,162.7,34.8,161.7,33.8,161.7L33.8,161.7z M18.4,167.4h16.2v21.3H18.4V167.4z M19.3,162.8h14.5c0.5,0,0.9,0.5,0.9,1.1v2.7
				H18.4V164C18.4,163.3,18.8,162.8,19.3,162.8L19.3,162.8z M33.8,196.5H19.3c-0.5,0-0.9-0.5-0.9-1.1v-6.7h16.2v6.7
				C34.7,196,34.3,196.5,33.8,196.5L33.8,196.5z"/>
		</g>
		<path class="st1" d="M24.6,165.3h4c0.2,0,0.3-0.2,0.3-0.4s-0.1-0.4-0.3-0.4h-4c-0.2,0-0.3,0.2-0.3,0.4
			C24.3,165.1,24.4,165.3,24.6,165.3L24.6,165.3z"/>
		<path class="st1" d="M23.5,165.3c0.1,0,0.1,0,0.2-0.1s0.1-0.2,0.1-0.3s0-0.2-0.1-0.3c0-0.1-0.1-0.1-0.2-0.1s-0.1,0-0.2,0.1
			s-0.1,0.2-0.1,0.3s0,0.2,0.1,0.3C23.3,165.3,23.4,165.3,23.5,165.3L23.5,165.3z"/>
	</g>
	<g>
		<path class="st1" d="M29.6,175.4c0-0.1-0.1-0.3-0.3-0.3h-5.5c-0.1,0-0.3,0.1-0.3,0.3s0.1,0.3,0.3,0.3h1.6c1.1,0,2,0.8,2.1,1.8
			h-3.7c-0.1,0-0.3,0.1-0.3,0.3s0.1,0.3,0.3,0.3h3.7c-0.1,1.1-1,1.9-2.1,1.9h-1.6c-0.1,0-0.3,0.1-0.3,0.3c0,0.1,0,0.1,0.1,0.2
			l3.9,3.7c0.1,0.1,0.3,0.1,0.4,0l0,0c0.1-0.1,0.1-0.3,0-0.4l-3.5-3.3h0.9c1.4,0,2.5-1.1,2.6-2.4h1.3c0.1,0,0.3-0.1,0.3-0.3
			s-0.1-0.3-0.3-0.3H28c-0.1-0.7-0.5-1.4-1-1.8h2.4C29.5,175.7,29.6,175.6,29.6,175.4L29.6,175.4z"/>
	</g>
</g>
<circle class="st1" cx="26.6" cy="193.6" r="0.9"/>
<g>
	<path class="st0" d="M29.2,267.8c0,1-0.8,1.9-1.9,1.9c-1,0-1.8-0.8-1.8-1.9s0.8-1.8,1.8-1.8C28.4,266,29.2,266.8,29.2,267.8
		L29.2,267.8z"/>
	<path class="st1" d="M26.9,233.7c-5.8,0-9.4,3.6-9.4,9.4c0,0.5,0.4,0.9,0.9,0.9s0.9-0.4,0.9-0.9c0-4.8,2.8-7.5,7.5-7.5
		c7.3,0,8.4,5.2,8.4,8.4c0,3-2.5,6.5-5.8,8c-3.8,1.8-3.1,7.9-3.1,8.1c0,0.5,0.5,0.8,0.9,0.8c0,0,0.1,0,0.1,0c0.5-0.1,0.9-0.5,0.8-1
		c0,0-0.5-5.1,2-6.2c4-1.9,6.9-5.9,6.9-9.7C37.1,237.5,33.3,233.7,26.9,233.7L26.9,233.7z"/>
</g>
<g>
	<path class="st1" d="M111.7,237.4H96.9c-0.4,0-0.8,0.3-0.8,0.8v9.8c0,0.4,0.4,0.8,0.8,0.8h14.7c0.4,0,0.8-0.3,0.8-0.8v-9.8
		C112.5,237.8,112.1,237.4,111.7,237.4z M110.8,247.2H97.7v-8.3h13.1C110.8,238.9,110.8,247.2,110.8,247.2z"/>
	<path class="st1" d="M118.2,269.7H90.4c-0.4,0-0.8,0.2-0.8,0.5c0,0.3,0.4,0.5,0.8,0.5h27.8c0.4,0,0.8-0.2,0.8-0.5
		C119,269.9,118.6,269.7,118.2,269.7z"/>
	<path class="st1" d="M124.3,242.5l-2.5-2.6c-0.1-0.1-0.2-0.2-0.4-0.2c-0.9,0-1.2,0.8-0.7,1.3l2.4,2.5c0.6,0.6,0.9,0.9,0.9,1.5h-2.3
		c-0.5,0-1,0.4-1,0.9v3.6c0,0.8,0.7,1.5,1.6,1.5h1.6v11.3c0,0.4-0.4,0.8-0.8,0.8h-1.8c-0.5,0-0.7-0.4-0.7-0.8v-9.8
		c0-1.3-1.4-2.2-2.6-2.2h-1.5v-12.8c0-2.1-1.8-3.8-4.1-3.8H96.1c-2.3,0-4.1,1.7-4.1,3.8v29.2c0,0.8,0.7,0.8,1.8,0.8
		c0.6,0,1.4,0,2.3,0h16.4c0.9,0,1.7,0,2.3,0c1.1,0,1.8,0,1.8-0.8v-15h1.5c0.5,0,1,0.4,1,0.7v9.8c0,1.3,1,2.3,2.3,2.3h1.8
		c1.4,0,2.4-1,2.4-2.3l0,0v-17.3C125.6,243.8,124.9,243.1,124.3,242.5z M114.9,265.9c-0.5,0-1.4,0-2.4,0H96.1c-1.1,0-1.9,0-2.4,0
		v-28.5c0-1.2,1.1-2.3,2.4-2.3h16.4c1.4,0,2.4,1,2.4,2.3L114.9,265.9L114.9,265.9z M122.3,249.4v-3h1.6v3H122.3z"/>
</g>
<g>
	<path class="st4" d="M99.6,328.5c-0.3,0-0.5,0.2-0.5,0.5v8.5c0,0.3,0.2,0.5,0.5,0.5c0.3,0,0.5-0.2,0.5-0.5V329
		C100.1,328.7,99.8,328.5,99.6,328.5L99.6,328.5z"/>
	<path class="st4" d="M104.9,328.5c-0.3,0-0.5,0.2-0.5,0.5v8.5c0,0.3,0.2,0.5,0.5,0.5s0.5-0.2,0.5-0.5V329
		C105.4,328.7,105.2,328.5,104.9,328.5L104.9,328.5z"/>
	<path class="st4" d="M110.2,328.5c-0.3,0-0.5,0.2-0.5,0.5v8.5c0,0.3,0.2,0.5,0.5,0.5c0.3,0,0.5-0.2,0.5-0.5V329
		C110.7,328.7,110.5,328.5,110.2,328.5L110.2,328.5z"/>
	<path class="st4" d="M115.4,328.5c-0.3,0-0.5,0.2-0.5,0.5v8.5c0,0.3,0.2,0.5,0.5,0.5s0.5-0.2,0.5-0.5V329
		C115.9,328.7,115.7,328.5,115.4,328.5L115.4,328.5z"/>
	<path class="st4" d="M122.6,321.8l2.1-1.9c0.4-0.4,0.4-1,0-1.4l-1.5-1.3c-0.2-0.2-0.5-0.3-0.8-0.3s-0.6,0.1-0.8,0.3l-3.9,3.6v-8.1
		c0-0.1,0-0.3-1.8-4.9l0-0.1l0.1,0c0.4-0.1,0.6-0.5,0.6-0.8v-0.1c0-0.5-0.4-0.9-1-0.9h-5.3c-0.6,0-1,0.4-1,0.9v0.1
		c0,0.4,0.3,0.7,0.6,0.8l0.1,0l0,0.1c-1.8,4.5-1.8,4.8-1.8,4.9v9.1l-6.2-6.3l-5.8,4.2l-2.7-2.4c-0.2-0.2-0.5-0.3-0.8-0.3
		s-0.6,0.1-0.8,0.3l-1.5,1.3c-0.2,0.2-0.3,0.4-0.3,0.7s0.1,0.5,0.3,0.7l2.1,1.9h-3.1v5h2.5l3.5,14.9l0,0.1h22.9l4.5-14.9h2.5v-5
		L122.6,321.8L122.6,321.8z M96.4,340.8l-3.3-14H122l-4.2,14H96.4z M90.6,322.7H95l-3.9-3.5l1.6-1.5l5.5,5H117l5.5-5l1.6,1.4
		l-3.9,3.5h4.3v3.2h-34V322.7z M115.7,306.8h-1l0.2,0.5c1.2,3,1.9,5,1.9,5.2v9l-0.3,0.2h-7.3c-0.1,0-0.2-0.1-0.2-0.2v-8.9
		c0-0.3,0.8-2.2,2-5.3l0.2-0.5l-1.1,0v-0.3l0.1,0l5.4,0L115.7,306.8z M98.7,321.8l-1.8-1.6l5-3.5l5.1,5.2H98.7z"/>
</g>
<path class="st1" d="M18.2,387.6c0,0.1,0,0.1,0,0.2v1.5c0,0.6,0.4,1.2,1,1.4v2.2c0,0.7,0.6,1.3,1.3,1.4v12.6c-0.7,0-1.3,0.6-1.3,1.4
	v2.2c-0.6,0.2-1,0.8-1,1.4v1.5c0,0.3,0.2,0.5,0.5,0.5h33.6c0.3,0,0.5-0.2,0.5-0.5v-1.5c0-0.6-0.4-1.2-1-1.4v-2.2
	c0-0.7-0.6-1.3-1.3-1.4v-12.6c0.7,0,1.3-0.6,1.3-1.4v-2.2c0.6-0.2,1-0.8,1-1.4v-1.5c0-0.1,0-0.1,0-0.2c0.3,0.1,0.5,0,0.7-0.3
	s0-0.5-0.3-0.6l-17.5-9c-0.2-0.1-0.3-0.1-0.5,0l-17.5,9c-0.2,0.1-0.3,0.4-0.2,0.7C17.7,387.6,18,387.7,18.2,387.6L18.2,387.6z
	 M20.2,391.5v-0.8h5.8v0.8H20.2z M33,394.2v12.6c-0.7,0-1.3,0.6-1.3,1.4v2.1h-4.7v-2.1c0-0.7-0.6-1.3-1.3-1.4v-12.6
	c0.7,0,1.3-0.6,1.3-1.4v-2.1h4.7v2.1C31.6,393.6,32.2,394.2,33,394.2L33,394.2z M32.6,391.5v-0.8h5.8v0.8H32.6z M45.4,394.2v12.6
	c-0.7,0-1.3,0.6-1.3,1.4v2.1h-4.7v-2.1c0-0.7-0.6-1.3-1.3-1.4v-12.6c0.7,0,1.3-0.6,1.3-1.4v-2.1h4.7v2.1
	C44.1,393.6,44.7,394.2,45.4,394.2L45.4,394.2z M45.1,391.5v-0.8h5.8v0.8H45.1z M50.9,409.5v0.8h-5.8v-0.8H50.9z M38.4,409.5v0.8
	h-5.8v-0.8H38.4z M33.5,393.3H33c-0.2,0-0.4-0.2-0.4-0.4v-0.4h5.8v0.4c0,0.2-0.2,0.4-0.4,0.4H33.5z M37.1,394.2v12.6H34v-12.6H37.1z
	 M33.5,407.8H38c0.2,0,0.4,0.2,0.4,0.4v0.4h-5.8v-0.4c0-0.2,0.2-0.4,0.4-0.4H33.5z M25.9,409.5v0.8h-5.8v-0.8H25.9z M20.2,392.9
	v-0.4h5.8v0.4c0,0.2-0.2,0.4-0.4,0.4h-5C20.3,393.3,20.2,393.1,20.2,392.9C20.2,392.9,20.2,392.9,20.2,392.9z M24.6,394.3v12.6h-3.1
	v-12.6L24.6,394.3z M20.2,408.2c0-0.2,0.2-0.4,0.4-0.4h5c0.2,0,0.4,0.2,0.4,0.4v0.4h-5.8V408.2z M51.8,411.8v1H19.2v-1
	c0-0.3,0.2-0.5,0.5-0.5h31.6C51.6,411.3,51.8,411.5,51.8,411.8L51.8,411.8z M50.9,408.2v0.4h-5.8v-0.4c0-0.2,0.2-0.4,0.4-0.4h5
	C50.7,407.8,50.9,408,50.9,408.2L50.9,408.2z M46.4,406.8v-12.6h3.1v12.6L46.4,406.8z M50.9,392.9c0,0.2-0.2,0.4-0.4,0.4h-5
	c-0.2,0-0.4-0.2-0.4-0.4v-0.4h5.8L50.9,392.9z M35.5,378.7l14.8,7.7H20.7L35.5,378.7z M19.2,387.9c0-0.3,0.2-0.5,0.5-0.5h31.6
	c0.3,0,0.5,0.2,0.5,0.5v1.5c0,0.3-0.2,0.5-0.5,0.5H19.7c-0.3,0-0.5-0.2-0.5-0.5V387.9z"/>
<rect x="17.6" y="377.7" class="st2" width="36" height="36"/>
<g>
	<path class="st1" d="M125.6,392.7c0-0.1,0-0.3,0-0.4c0-5.3-4.3-9.7-9.7-9.7c-3.4,0-6.6,1.8-8.3,4.7c-1.7-2.9-4.9-4.7-8.3-4.7
		c-5.3,0-9.7,4.3-9.7,9.7c0,0.1,0,0.3,0,0.4c0,2.3,0,5.1,3.6,9.4c3.8,4.4,12.4,11.6,14.4,11.6s10.6-7.2,14.4-11.6
		C125.6,397.8,125.6,395,125.6,392.7z M120.9,401.2c-4.2,5-12.1,11-13.3,11.1c-1.2-0.1-9.1-6.1-13.3-11.1c-3.3-3.9-3.3-6.4-3.3-8.5
		c0-0.1,0-0.3,0-0.4c0-4.6,3.7-8.3,8.3-8.3c3.4,0,6.4,2,7.7,5.1c0.1,0.3,0.4,0.4,0.6,0.4s0.5-0.2,0.6-0.4c1.3-3.1,4.3-5.1,7.7-5.1
		c4.6,0,8.3,3.7,8.3,8.3c0,0.1,0,0.3,0,0.4C124.2,394.9,124.2,397.3,120.9,401.2z"/>
	<path class="st1" d="M119.4,397.1h-9.3l-1.2-2.4c-0.1-0.2-0.4-0.4-0.7-0.4s-0.5,0.2-0.6,0.5l-2,5.4l-2.3-10.1
		c-0.1-0.3-0.3-0.5-0.6-0.5s-0.6,0.2-0.7,0.5l-2.6,7.8h-3.7c-0.4,0-0.7,0.3-0.7,0.7s0.3,0.7,0.7,0.7h4.2c0.3,0,0.6-0.2,0.7-0.5
		l2-5.9l2.2,10c0.1,0.3,0.3,0.5,0.6,0.5l0,0c0.3,0,0.6-0.2,0.7-0.5l2.2-6.1l0.7,1.3c0.1,0.2,0.4,0.4,0.6,0.4h9.7
		c0.4,0,0.7-0.3,0.7-0.7S119.7,397.1,119.4,397.1z"/>
</g>
<g>
	<path class="st1" d="M108.1,452.1l0.7,1l1-0.7l-1.8-2.4c-0.2-0.3-0.6-0.3-0.9-0.1c0,0-0.1,0-0.1,0.1l-1.8,2.4l1,0.7l0.7-1v4.8h1.2
		C108.1,456.9,108.1,452.1,108.1,452.1z"/>
	<path class="st1" d="M108.1,483.3v-4.8h-1.2v4.8l-0.7-1l-1,0.7l1.8,2.4c0.2,0.3,0.6,0.3,0.8,0.1c0.1,0,0.1-0.1,0.1-0.1l1.8-2.4
		l-1-0.7L108.1,483.3z"/>
	<rect x="106.9" y="458.1" class="st0" width="1.2" height="1.2"/>
	<rect x="106.9" y="476.1" class="st0" width="1.2" height="1.2"/>
	<path class="st1" d="M96.7,468.3v-1.2h-4.8l1-0.7l-0.7-1l-2.4,1.8c-0.3,0.2-0.3,0.6-0.1,0.8c0,0,0.1,0.1,0.1,0.1l2.4,1.8l0.7-1
		l-1-0.7H96.7L96.7,468.3z"/>
	<path class="st1" d="M122.9,465.4l-0.7,1l1,0.7h-4.8v1.2h4.8l-1,0.7l0.7,1l2.4-1.8c0.3-0.2,0.3-0.6,0.1-0.8c0,0-0.1-0.1-0.1-0.1
		L122.9,465.4z"/>
	<rect x="97.9" y="467.1" class="st0" width="1.2" height="1.2"/>
	<rect x="115.9" y="467.1" class="st0" width="1.2" height="1.2"/>
	<path class="st1" d="M100.3,459.6l-3.4-3.4l1.2,0.2l0.2-1.2l-3-0.4c-0.3,0-0.6,0.2-0.7,0.5c0,0.1,0,0.1,0,0.2l0.4,3l1.2-0.2
		l-0.2-1.2l3.4,3.4L100.3,459.6z"/>
	<path class="st1" d="M118.8,477.1l0.2,1.2l-3.4-3.4l-0.8,0.9l3.4,3.4L117,479l-0.2,1.2l3,0.4c0,0,0.1,0,0.1,0
		c0.3,0,0.6-0.3,0.6-0.6c0,0,0-0.1,0-0.1l-0.4-3L118.8,477.1z"/>
	
		<rect x="100.6" y="460.7" transform="matrix(0.7071 -0.7071 0.7071 0.7071 -296.5573 206.6523)" class="st0" width="1.2" height="1.2"/>
	
		<rect x="113.3" y="473.4" transform="matrix(0.7071 -0.7071 0.7071 0.7071 -301.8284 219.3826)" class="st0" width="1.2" height="1.2"/>
	<path class="st1" d="M99.5,474.9l-3.4,3.4l0.2-1.2l-1.2-0.2l-0.4,3c-0.1,0.3,0.2,0.6,0.5,0.7c0,0,0.1,0,0.1,0s0.1,0,0.1,0l3-0.4
		l-0.2-1.2l-1.2,0.2l3.4-3.4L99.5,474.9z"/>
	<path class="st1" d="M120,458.4l0.4-3c0-0.2,0-0.4-0.2-0.5s-0.3-0.2-0.5-0.2l-3,0.4l0.2,1.2l1.2-0.2l-3.4,3.4l0.8,0.8l3.4-3.4
		l-0.2,1.2L120,458.4z"/>
	
		<rect x="100.6" y="473.4" transform="matrix(0.7071 -0.7071 0.7071 0.7071 -305.558 210.3819)" class="st0" width="1.2" height="1.2"/>
	
		<rect x="113.3" y="460.7" transform="matrix(0.7071 -0.7071 0.7071 0.7071 -292.8272 215.654)" class="st0" width="1.2" height="1.2"/>
	<g>
		<path class="st0" d="M110.6,464.4c0-0.1-0.1-0.3-0.3-0.3h-5.7c-0.2,0-0.3,0.1-0.3,0.3c0,0.2,0.1,0.3,0.3,0.3h1.6
			c1.1,0,2,0.8,2.2,1.9h-3.8c-0.2,0-0.3,0.1-0.3,0.3c0,0.2,0.1,0.3,0.3,0.3h3.8c-0.1,1.1-1.1,1.9-2.2,1.9h-1.6
			c-0.2,0-0.3,0.1-0.3,0.3c0,0.1,0,0.1,0.1,0.2l4.1,3.8c0.1,0.1,0.3,0.1,0.4,0l0,0c0.1-0.1,0.1-0.3,0-0.4l-3.6-3.4h0.9
			c1.4,0,2.6-1.1,2.7-2.4h1.4c0.2,0,0.3-0.1,0.3-0.3c0-0.2-0.1-0.3-0.3-0.3H109c-0.1-0.8-0.5-1.5-1.1-1.9h2.4
			C110.5,464.7,110.6,464.5,110.6,464.4L110.6,464.4z"/>
	</g>
</g>
<g>
	<g>
		<g>
			<defs>
				<rect id="SVGID_1_" x="89.5" y="521.7" width="18" height="36"/>
			</defs>
			<clipPath id="SVGID_2_">
				<use xlink:href="#SVGID_1_"  style="overflow:visible;"/>
			</clipPath>
			<path class="st5" d="M89.5,535.7c0,4.7,3,8.6,7.1,9.6v8.4l-4.8,2.6c-0.3,0.2-0.4,0.5-0.3,0.8c0.1,0.3,0.3,0.5,0.6,0.5h12.8
				c0.3,0,0.6-0.2,0.6-0.5c0.1-0.3-0.1-0.6-0.3-0.8l-4.8-2.6v-8.4c4.2-1,7.1-5.1,7.1-9.8c0-1.8-0.3-2-2.6-13.4
				c-0.1-0.3-0.3-0.5-0.6-0.5h-3.1c-0.3,0-0.6,0.3-0.6,0.7s0.3,0.7,0.6,0.7h2.6c0,0,2.3,11.1,2.3,11.3c-1.3-0.7-3-1.4-4.4-1.5
				c-1.5,0-2.8,0.8-4.1,1.6c-1.2,0.8-2.4,1.5-3.5,1.3c-0.9-0.2-1.9-0.8-3.1-2l2.2-10.6H96c0.3,0,0.6-0.3,0.6-0.7s-0.3-0.7-0.6-0.7
				h-3.3c-0.3,0-0.6,0.2-0.6,0.5C89.6,534.5,89.5,534.2,89.5,535.7L89.5,535.7z M102.2,556.3h-7.4l2.7-1.5c0.2-0.1,0.3-0.4,0.3-0.6
				v-8.6c0.2,0,0.4,0,0.6,0s0.4,0,0.6,0v8.6c0,0.3,0.1,0.5,0.3,0.6L102.2,556.3z M98.2,535.7c1.2-0.7,2.3-1.4,3.5-1.4
				c1.1,0,2.7,0.6,4.5,1.7c-0.1,4.4-3.5,8.2-7.8,8.2c-4.4,0-7.8-4.1-7.6-8.8c1.1,1,2.1,1.6,3.1,1.8
				C95.4,537.4,96.9,536.5,98.2,535.7L98.2,535.7z"/>
		</g>
	</g>
	<path class="st1" d="M99.2,522.4c0,0.4-0.3,0.7-0.6,0.7s-0.6-0.3-0.6-0.7s0.3-0.7,0.6-0.7S99.2,522,99.2,522.4L99.2,522.4z"/>
</g>
<g>
	<path class="st1" d="M125.5,555.1l-1.1-12.1c0-0.3-0.3-0.5-0.5-0.5h-2.2c0-2-1.7-3.7-3.7-3.7s-3.7,1.6-3.7,3.7h-2.2
		c-0.3,0-0.5,0.2-0.5,0.5l-1.1,12.1c0,0,0,0,0,0c0,1.4,1.3,2.5,2.8,2.5h9.4C124.3,557.7,125.6,556.6,125.5,555.1
		C125.5,555.2,125.5,555.2,125.5,555.1L125.5,555.1z M118,540c1.4,0,2.6,1.2,2.7,2.6h-5.3C115.4,541.1,116.6,540,118,540L118,540z
		 M122.7,556.6h-9.4c-1,0-1.8-0.6-1.8-1.4l1-11.6h1.7v1.6c0,0.3,0.2,0.5,0.5,0.5s0.5-0.2,0.5-0.5v-1.6h5.3v1.6
		c0,0.3,0.2,0.5,0.5,0.5s0.5-0.2,0.5-0.5v-1.6h1.7l1,11.6C124.5,556,123.7,556.6,122.7,556.6L122.7,556.6z"/>
</g>
<path class="st1" d="M103.2,625.3c0,2.4,2,4.4,4.4,4.4s4.4-2,4.4-4.4s-2-4.4-4.4-4.4S103.2,622.9,103.2,625.3L103.2,625.3z
	 M107.5,622.8c1.4,0,2.6,1.2,2.6,2.6s-1.2,2.6-2.6,2.6s-2.6-1.2-2.6-2.6S106.1,622.8,107.5,622.8L107.5,622.8z"/>
<path class="st1" d="M121.2,629.7c2.4,0,4.4-2,4.4-4.4s-2-4.4-4.4-4.4s-4.4,2-4.4,4.4S118.8,629.7,121.2,629.7L121.2,629.7z
	 M121.2,622.8c1.4,0,2.6,1.2,2.6,2.6s-1.2,2.6-2.6,2.6s-2.6-1.2-2.6-2.6S119.8,622.8,121.2,622.8L121.2,622.8z"/>
<path class="st1" d="M93.9,629.7c2.4,0,4.4-2,4.4-4.4s-2-4.4-4.4-4.4s-4.4,2-4.4,4.4S91.5,629.7,93.9,629.7L93.9,629.7z M93.9,622.8
	c1.4,0,2.6,1.2,2.6,2.6s-1.2,2.6-2.6,2.6s-2.6-1.2-2.6-2.6S92.5,622.8,93.9,622.8L93.9,622.8z"/>
<rect x="89.6" y="620.9" class="st2" width="36" height="8.9"/>
<g>
	<g>
		<g>
			<defs>
				<rect id="SVGID_3_" x="89.6" y="665.7" width="36" height="36"/>
			</defs>
			<clipPath id="SVGID_4_">
				<use xlink:href="#SVGID_3_"  style="overflow:visible;"/>
			</clipPath>
			<path class="st6" d="M99.8,689.3h21.3c2.4,0,4.4-1.8,4.4-4.1v-8.4c0,0,0,0,0,0c0,0,0,0,0,0s0,0,0,0c0,0,0,0,0,0c0,0,0,0,0,0
				c0,0,0,0,0,0c0,0,0,0,0,0c0,0,0,0,0,0l0,0c0,0,0,0,0,0c0,0,0,0,0,0c0,0,0,0,0,0c0,0,0,0,0,0c0,0,0,0,0,0c0,0,0,0,0,0l0,0
				c0,0,0,0,0,0c0,0,0,0-0.1,0c0,0,0,0,0,0c0,0,0,0-0.1,0l-0.1,0l-0.1,0c0,0,0,0-0.1,0c0,0,0,0-0.1,0s0,0,0,0c0,0,0,0-0.1,0
				c0,0,0,0,0,0l-27-3.5V669c0,0,0-0.1,0-0.1c0,0,0,0,0,0c0,0,0,0,0-0.1c0,0,0,0,0-0.1c0,0,0,0,0,0l0-0.1c0,0,0,0,0,0c0,0,0,0,0-0.1
				c0,0,0,0,0,0c0,0,0,0,0,0c0,0,0,0,0,0c0,0,0,0,0,0c0,0,0,0,0,0l-0.1-0.1l0,0c0,0,0,0-0.1,0c0,0,0,0,0,0c0,0,0,0-0.1,0
				c0,0-0.1,0-0.1,0c0,0,0,0,0,0c0,0-0.1,0-0.1,0l-5.9-2.3c-0.6-0.2-1.2,0-1.4,0.5s0,1.1,0.6,1.3l5.2,2v21.8c0,2.1,1.7,3.8,3.8,4
				c-0.4,0.6-0.6,1.3-0.6,2.1c0,2.2,1.9,4,4.3,4c2.4,0,4.3-1.8,4.3-4c0-0.7-0.2-1.4-0.6-2h9.7c-0.4,0.6-0.6,1.3-0.6,2
				c0,2.2,1.9,4,4.3,4s4.3-1.8,4.3-4s-1.9-4-4.3-4H99.8c-1.2,0-2.2-0.9-2.2-2.1v-2.7C98.2,689.1,99,689.3,99.8,689.3L99.8,689.3z
				 M105.2,697.6c0,1.1-1,2-2.2,2c-1.2,0-2.2-0.9-2.2-2c0-1.1,1-2,2.2-2S105.2,696.5,105.2,697.6L105.2,697.6z M122.3,697.6
				c0,1.1-1,2-2.2,2c-1.2,0-2.2-0.9-2.2-2c0-1.1,1-2,2.2-2S122.3,696.5,122.3,697.6L122.3,697.6z M121.1,687.4H99.8
				c-1.2,0-2.2-0.9-2.2-2.1v-10.8l25.8,3.3v7.5C123.4,686.4,122.4,687.4,121.1,687.4L121.1,687.4z"/>
		</g>
	</g>
</g>
<g>
	<path class="st1" d="M115.2,761.6c-1.6,0-2.9,1.2-2.9,2.7s1.3,2.7,2.9,2.7c1.6,0,2.9-1.2,2.9-2.7S116.8,761.6,115.2,761.6
		L115.2,761.6z M115.2,765.6c-0.7,0-1.4-0.6-1.4-1.3c0-0.7,0.6-1.3,1.4-1.3s1.4,0.6,1.4,1.3C116.5,765,115.9,765.6,115.2,765.6
		L115.2,765.6z"/>
	<path class="st1" d="M99.9,761.6c-1.6,0-2.9,1.2-2.9,2.7s1.3,2.7,2.9,2.7c1.6,0,2.9-1.2,2.9-2.7S101.5,761.6,99.9,761.6L99.9,761.6
		z M99.9,765.6c-0.7,0-1.4-0.6-1.4-1.3c0-0.7,0.6-1.3,1.4-1.3s1.4,0.6,1.4,1.3C101.3,765,100.7,765.6,99.9,765.6L99.9,765.6z"/>
	<rect x="105.2" y="763.6" class="st1" width="4.8" height="1.4"/>
	<path class="st1" d="M123.4,744.4h-1.3c-0.3-2.2-2.4-4-4.9-4H97.9c-2.5,0-4.6,1.7-4.9,4h-1.3c-1.2,0-2.1,0.9-2.1,2v6.3
		c0,1.1,0.9,2,2.1,2h1.3v10.5c0,2.2,1.7,4.1,4,4.5v1.2c0,1.5,1.3,2.8,2.8,2.8h0.4c1.6,0,2.8-1.2,2.8-2.8v-1.1h9v1.1
		c0,1.5,1.3,2.8,2.8,2.8h0.4c1.6,0,2.8-1.2,2.8-2.8v-1.2c2.3-0.4,4-2.3,4-4.5v-10.5h1.3c1.2,0,2.1-0.9,2.1-2v-6.3
		C125.6,745.3,124.6,744.4,123.4,744.4L123.4,744.4z M97.9,741.9h19.3c1.9,0,3.5,1.4,3.5,3.2v1.4H94.5v-1.4
		C94.5,743.3,96,741.9,97.9,741.9L97.9,741.9z M94.5,747.9h12.2v10.7H94.5V747.9z M108.2,747.9h12.4v10.7h-12.4V747.9z M91.7,753.3
		c-0.3,0-0.6-0.3-0.6-0.6v-6.3c0-0.3,0.3-0.6,0.6-0.6h1.3v7.5L91.7,753.3L91.7,753.3z M101.5,770.9c0,0.7-0.6,1.4-1.3,1.4h-0.4
		c-0.7,0-1.3-0.6-1.3-1.4v-1.1h3.1V770.9z M115.3,772.3h-0.4c-0.7,0-1.3-0.6-1.3-1.4v-1.1h3.1v1.1
		C116.7,771.7,116.1,772.3,115.3,772.3L115.3,772.3z M117.2,768.3H97.9c-1.9,0-3.5-1.4-3.5-3.2V760h26.2v5.2
		C120.6,766.9,119.1,768.3,117.2,768.3L117.2,768.3z M124,752.7c0,0.3-0.3,0.6-0.6,0.6h-1.3v-7.5h1.3c0.3,0,0.6,0.3,0.6,0.6V752.7z"
		/>
</g>
<g>
	<g>
		<g>
			<defs>
				<rect id="SVGID_5_" x="89.6" y="809.7" width="35.8" height="36"/>
			</defs>
			<clipPath id="SVGID_6_">
				<use xlink:href="#SVGID_5_"  style="overflow:visible;"/>
			</clipPath>
			<path class="st7" d="M125.3,812.9l-0.1-0.6c-0.1-1.3-1.2-2.3-2.6-2.4l-0.5,0c-1.6-0.1-3.2,0.5-4.4,1.7l-5.4,5.4l-17.7,0
				c-1.5,0-2.9,0.6-4,1.7l-0.7,0.7c-0.2,0.2-0.3,0.6-0.3,1c0.1,0.3,0.3,0.6,0.7,0.7l14.1,3.8l-3.3,3.3l-5.9,0.2
				c-0.6,0-1.2,0.2-1.6,0.7l-0.6,0.6c-0.2,0.2-0.3,0.6-0.3,1c0.1,0.3,0.3,0.6,0.6,0.7l7.6,2.9l3,7.8c0.1,0.3,0.4,0.6,0.8,0.6
				c0.3,0,0.6-0.1,0.9-0.3l0.6-0.6c0.4-0.4,0.6-1,0.7-1.6l0.2-6l3.3-3.2l3.8,14.1c0.1,0.3,0.4,0.6,0.7,0.7c0.1,0,0.2,0,0.3,0
				c0.3,0,0.5-0.1,0.7-0.3l0.7-0.7c1.1-1.1,1.7-2.5,1.7-4.1v-17.7l5.2-5.3C124.9,816.3,125.5,814.6,125.3,812.9L125.3,812.9z
				 M122.7,816.5l-5.5,5.5c-0.1,0.1-0.2,0.3-0.2,0.5v18c0,1.2-0.5,2.3-1.3,3.1l-0.3,0.3l-4-14.6c-0.1-0.2-0.2-0.4-0.5-0.5
				c-0.1,0-0.1,0-0.2,0c-0.2,0-0.3,0.1-0.5,0.2l-4.3,4.3c-0.1,0.1-0.2,0.3-0.2,0.5l-0.2,6.2c0,0.2-0.1,0.5-0.3,0.7l-0.2,0.2
				l-2.9-7.6c-0.1-0.2-0.2-0.3-0.4-0.4l-7.3-2.8l0.2-0.2c0.1-0.1,0.4-0.3,0.7-0.3l6.3-0.2c0.2,0,0.3-0.1,0.4-0.2l4.3-4.3
				c0.2-0.2,0.2-0.4,0.2-0.6c-0.1-0.2-0.2-0.4-0.5-0.5l-14.7-4l0.3-0.3c0.8-0.8,1.9-1.3,3.1-1.3l18,0c0.2,0,0.3-0.1,0.5-0.2l5.6-5.6
				c0.9-0.9,2.1-1.3,3.3-1.3l0.5,0c0.7,0,1.2,0.6,1.3,1.2l0.1,0.6C124.1,814.3,123.6,815.6,122.7,816.5L122.7,816.5z"/>
		</g>
	</g>
</g>
<g>
	<path class="st1" d="M116.6,889.6L109,882c-0.1-0.1-0.3-0.2-0.5-0.2H92.6c-1.7,0-3,1.4-3,3v30.3c0,1.7,1.4,3,3,3h21.2
		c1.7,0,3-1.4,3-3v-25C116.8,889.9,116.8,889.7,116.6,889.6z M109.3,884.4l5,5h-3.5c-0.8,0-1.5-0.7-1.5-1.5L109.3,884.4L109.3,884.4
		z M113.8,916.6H92.6c-0.8,0-1.5-0.7-1.5-1.5v-30.3c0-0.8,0.7-1.5,1.5-1.5h15.2v4.5c0,1.7,1.4,3,3,3h4.6v24.3
		C115.3,916,114.6,916.6,113.8,916.6z"/>
	<path class="st1" d="M111.5,907.3H94.9c-0.4,0-0.8,0.3-0.8,0.8s0.3,0.8,0.8,0.8h16.7c0.4,0,0.8-0.3,0.8-0.8
		S111.9,907.3,111.5,907.3z"/>
	<path class="st1" d="M111.5,911.8H94.9c-0.4,0-0.8,0.3-0.8,0.8s0.3,0.8,0.8,0.8h16.7c0.4,0,0.8-0.3,0.8-0.8
		S111.9,911.8,111.5,911.8z"/>
	<g>
		<path class="st1" d="M103.1,904.3c1.3,0,2.6-0.5,3.4-1.4s1.4-2.1,1.4-3.4c0-1.8-2.2-5-3.6-7.2c-0.3-0.5-0.6-0.9-0.8-1.3
			c0-0.1-0.1-0.1-0.2-0.2c-0.2-0.2-0.5-0.1-0.7,0.2c-0.2,0.4-0.5,0.8-0.8,1.3c-1.4,2.1-3.6,5.3-3.6,7.2c0,1.3,0.6,2.5,1.4,3.4
			C100.6,903.8,101.8,904.3,103.1,904.3z M102.7,892.8c0.2-0.2,0.3-0.5,0.5-0.7c0.2,0.2,0.3,0.4,0.5,0.7c1.4,2.1,3.4,5.1,3.4,6.7
			c0,1.1-0.4,2.1-1.1,2.8c-0.7,0.7-1.7,1.1-2.8,1.1s-2.1-0.4-2.8-1.1c-0.7-0.7-1.1-1.7-1.1-2.8C99.2,897.9,101.3,894.8,102.7,892.8z
			"/>
	</g>
</g>
<g>
	<path class="st1" d="M111.1,177.6c0.4,0,0.7-0.3,0.7-0.7c0-0.4-0.3-0.7-0.7-0.7c-0.4,0-0.7,0.3-0.7,0.7
		C110.4,177.3,110.8,177.6,111.1,177.6L111.1,177.6z"/>
	<path class="st1" d="M124.2,161.8c-0.2-0.1-0.4-0.1-0.7,0c-3.4,1.8-5.6,5.2-5.8,9.1c-2.6-3.3-6.5-5.3-10.7-5.3
		c-2.9,0-5.6,0.9-7.9,2.6v-5.8c0-0.4-0.3-0.7-0.7-0.7s-0.7,0.3-0.7,0.7v8.2H95v-8.2c0-0.4-0.3-0.7-0.7-0.7c-0.4,0-0.7,0.3-0.7,0.7
		v8.2h-2.7v-8.2c0-0.4-0.3-0.7-0.7-0.7s-0.7,0.3-0.7,0.7v8.9c0,2,1.1,3.6,2.7,4.4v19.9c0,1.2,0.9,2.1,2.1,2.1c1.1,0,2.1-0.9,2.1-2.1
		v-7.1c2.6,3.3,6.5,5.3,10.7,5.3c6.3,0,11.7-4.4,13.2-10.6h0.2v12.4c0,1.2,0.9,2.1,2.1,2.1s2.1-0.9,2.1-2.1c0-0.8,0-31.9,0-33.2
		C124.5,162.1,124.4,161.9,124.2,161.8L124.2,161.8z M95,195.6c0,0.4-0.3,0.7-0.7,0.7c-0.4,0-0.7-0.3-0.7-0.7v-2.1H95L95,195.6
		L95,195.6z M95,192.1h-1.4v-15.9c0.2,0,0.4,0.1,0.7,0.1s0.5,0,0.7-0.1L95,192.1L95,192.1z M94.3,174.8c-1.7,0-3-1.2-3.3-2.8h6.7
		C97.4,173.6,96,174.8,94.3,174.8L94.3,174.8z M107,192.3c-4.4,0-8.5-2.4-10.7-6.3v-10.3c1.6-0.8,2.7-2.5,2.7-4.4V170
		c2.2-1.9,5-3,7.9-3c4.4,0,8.5,2.4,10.7,6.3v9.1c0,0.4,0.3,0.7,0.7,0.7h0.5C117.3,188.5,112.5,192.3,107,192.3L107,192.3z
		 M123.1,195.6c0,0.4-0.3,0.7-0.7,0.7c-0.4,0-0.7-0.3-0.7-0.7v-2.1h1.4L123.1,195.6L123.1,195.6z M123.1,192.1h-1.4v-8.9h1.4V192.1z
		 M123.1,181.8c-1.5,0-2.6,0-4.1,0c0-1.6,0-8.7,0-10.3c0-3.2,1.5-6.1,4.1-7.9V181.8z"/>
	<rect x="89.6" y="161.7" class="st2" width="35" height="36"/>
	<path class="st1" d="M107,171.2c-4.5,0-8.2,3.8-8.2,8.4s3.7,8.4,8.2,8.4s8.2-3.8,8.2-8.4S111.6,171.2,107,171.2L107,171.2z
		 M107,186.7c-3.8,0-6.8-3.1-6.8-7s3.1-7,6.8-7s6.8,3.1,6.8,7S110.8,186.7,107,186.7L107,186.7z"/>
	<path class="st1" d="M111.1,179.6C111.1,179.6,111.1,179.7,111.1,179.6c0,1.9-1.2,3.6-2.9,4.1c-0.4,0.1-0.6,0.5-0.5,0.9
		c0.1,0.4,0.5,0.6,0.8,0.5c2.3-0.7,3.9-2.9,3.9-5.4c0,0,0-0.1,0-0.1c0-0.4-0.3-0.7-0.7-0.7C111.4,178.9,111.1,179.2,111.1,179.6
		L111.1,179.6z"/>
</g>
<polygon class="st0" points="90.8,116.6 98.2,124.5 90.8,124.5 "/>
<polygon class="st0" points="124.1,116.6 116.8,124.5 124.1,124.5 "/>
<path class="st3" d="M196.4,235.3c-2.7-2.6-7-2.6-9.6,0l0,0l-22.1,21.7c-0.1,0-0.1,0.1-0.1,0.2c0,0,0,0,0,0c0,0,0,0,0,0l-3,11.6
	c-0.1,0.2,0,0.4,0.2,0.6c0.2,0.1,0.4,0.2,0.6,0.2l11.7-2.9c0,0,0,0,0.1,0c0,0,0,0,0.1,0c0.1,0,0.1-0.1,0.2-0.1l22.1-21.7l0,0
	C199.1,242.2,199.1,238,196.4,235.3L196.4,235.3z M195.5,236.2c2,2,2.2,5.1,0.4,7.3l-7.8-7.7C190.4,234.1,193.5,234.2,195.5,236.2
	L195.5,236.2z M187.2,236.6l7.9,7.8l-2.2,2.2l-7.9-7.8L187.2,236.6z M163.8,265.3c1,0.4,1.8,1.2,2.2,2.2l-2.9,0.7L163.8,265.3z
	 M167.2,267.2c-0.6-1.4-1.7-2.5-3.1-3l1.4-5.4l7.2,7.1L167.2,267.2z M173.9,265.3l-7.9-7.8l18.1-17.8l7.9,7.8L173.9,265.3z"/>
<circle class="st1" cx="35.6" cy="467.7" r="18"/>
<g>
	<path class="st0" d="M37.8,458.7l2.6,2.6l-3.3,3.3l1.6,1.6l3.3-3.3l2.6,2.6v-6.8H37.8z"/>
	<path class="st0" d="M33.3,458.7h-6.8v6.8l2.6-2.6l5.3,5.3v8.6h2.3v-9.5l-6-6L33.3,458.7z"/>
</g>
<g>
	<path class="st3" d="M53.4,34.4h-1.7v-7.8c0-1.9-1.5-3.4-3.5-3.4h-2.3l-2.4-4.3c-0.4-0.6-1.1-1-1.8-1c-0.3,0-0.7,0.1-1,0.3l-9.2,5
		H21.3c-1.9,0-3.5,1.5-3.5,3.4V50c0,1.9,1.5,3.4,3.5,3.4h27c1.9,0,3.5-1.5,3.5-3.4v-6.9h1.7C53.4,43.1,53.4,34.4,53.4,34.4z
		 M48.2,24.5c1.1,0,1.9,0.8,2,1.8h-2.6l-1-1.8H48.2z M41.4,19.3c0.3-0.2,0.8,0,0.9,0.3l3.8,6.8H28.6L41.4,19.3z M50.3,50
		c0,1.1-0.9,2-2.1,2H21.3c-1.1,0-2.1-0.9-2.1-2V26.6c0-1.1,0.9-2,2.1-2H29l-3.3,1.8h-4c-0.4,0-0.7,0.3-0.7,0.7
		c0,0.4,0.3,0.7,0.7,0.7h28.6v6.7h-5c-2.3,0-4.3,1.9-4.3,4.2v0.3c0,2.3,1.9,4.2,4.3,4.2h5C50.3,43.1,50.3,50,50.3,50z M52,41.7h-6.8
		c-1.6,0-2.9-1.3-2.9-2.8v-0.3c0-1.6,1.3-2.8,2.9-2.8H52L52,41.7L52,41.7z"/>
	<polygon class="st8" points="18.1,53.6 17.6,53.2 53,17.8 53.5,18.3 	"/>
</g>
<g>
	<path class="st3" d="M197.4,178.2h-1.7v-7.8c0-1.9-1.6-3.4-3.4-3.4h-2.3l-2.4-4.3c-0.4-0.6-1.1-1.1-1.8-1.1c-0.4,0-0.7,0.1-1,0.3
		l-9.2,5h-10.2c-1.9,0-3.4,1.5-3.4,3.4v23.4c0,1.9,1.6,3.4,3.4,3.4h26.9c1.9,0,3.4-1.5,3.4-3.4v-6.9h1.7V178.2z M192.2,168.4
		c1.1,0,1.9,0.8,2.1,1.8h-2.6l-1-1.8H192.2z M185.3,163.1c0.3-0.2,0.8-0.1,0.9,0.3l3.8,6.8h-17.5L185.3,163.1z M194.3,193.8
		c0,1.1-0.9,2.1-2.1,2.1h-26.9c-1.1,0-2.1-0.9-2.1-2.1v-23.4c0-1.1,0.9-2.1,2.1-2.1h7.8l-3.3,1.8h-4c-0.4,0-0.7,0.3-0.7,0.7
		c0,0.4,0.3,0.7,0.7,0.7h28.6v6.7h-5c-2.3,0-4.3,1.9-4.3,4.2v0.3c0,2.3,1.9,4.2,4.3,4.2h5L194.3,193.8L194.3,193.8z M196,185.6h-6.8
		c-1.6,0-2.9-1.3-2.9-2.8v-0.3c0-1.6,1.3-2.8,2.9-2.8h6.8V185.6z"/>
	<polygon class="st8" points="162.1,197.4 161.6,197 197,161.7 197.5,162.1 	"/>
</g>
<path class="st3" d="M197.5,106.5h-1.7v-7.9c0-1.9-1.6-3.4-3.5-3.4h-2.4l-2.4-4.3c-0.4-0.7-1.1-1.1-1.8-1.1c-0.4,0-0.7,0.1-1,0.3
	l-9.3,5.1H165c-1.9,0-3.5,1.5-3.5,3.4v23.6c0,1.9,1.6,3.4,3.5,3.4h27.2c1.9,0,3.5-1.5,3.5-3.4v-6.9h1.7L197.5,106.5L197.5,106.5z
	 M192.2,96.5c1.1,0,1.9,0.8,2.1,1.8h-2.6l-1-1.8H192.2z M185.3,91.3c0.3-0.2,0.8-0.1,0.9,0.3l3.8,6.8h-17.7L185.3,91.3z
	 M194.3,122.2c0,1.1-0.9,2.1-2.1,2.1H165c-1.1,0-2.1-0.9-2.1-2.1V98.6c0-1.1,0.9-2.1,2.1-2.1h7.8l-3.3,1.8h-4.1
	c-0.4,0-0.7,0.3-0.7,0.7s0.3,0.7,0.7,0.7h28.9v6.8h-5.1c-2.4,0-4.3,1.9-4.3,4.2v0.3c0,2.3,1.9,4.2,4.3,4.2h5.1L194.3,122.2
	L194.3,122.2z M196.1,113.9h-6.8c-1.6,0-2.9-1.3-2.9-2.9v-0.3c0-1.6,1.3-2.9,2.9-2.9h6.8V113.9z"/>
<g>
	<g>
		<g>
			<path class="st1" d="M51.9,610.1l-14.1-6.9c-1.2-0.6-3.3-0.6-4.5,0l-14.5,6.9c-1,0.5-1.2,1.2-1.2,1.5s0.2,1,1.2,1.5l1.2,0.6v6.5
				c-0.7,0.3-1.3,1-1.3,1.8s0.5,1.5,1.2,1.8l-1.8,5.8h5.1l-1.8-5.8c0.7-0.3,1.2-1,1.2-1.8c0-0.9-0.5-1.5-1.3-1.8v-5.8l2.2,1.1v8.5
				c0,0.1,0,0.2,0.1,0.4c0.2,0.2,4,5.4,11.7,5.4s11.5-5.2,11.7-5.4c0.1-0.1,0.1-0.2,0.1-0.4v-8.4l4.8-2.4c1-0.5,1.2-1.2,1.2-1.5
				C53.1,611.3,53,610.6,51.9,610.1z M45.8,623.8c-0.7,0.8-4.1,4.7-10.5,4.7s-9.8-3.9-10.5-4.7v-7.7l8.4,4c0.6,0.3,1.4,0.4,2.2,0.4
				c0.9,0,1.7-0.2,2.3-0.5l8-3.9V623.8z M51.4,612.1l-4.9,2.4c-0.2,0-0.4,0.1-0.4,0.2l-8.8,4.3c-0.9,0.4-2.5,0.4-3.4,0L23,613.8
				l12.5-1.5c0.4,0,0.6-0.4,0.6-0.7c0-0.4-0.4-0.6-0.7-0.6l-14.5,1.7l-1.5-0.7c-0.4-0.2-0.4-0.4-0.4-0.4c0,0,0.1-0.2,0.4-0.4l14.5-7
				c0.4-0.2,1.1-0.3,1.7-0.3c0.7,0,1.3,0.1,1.7,0.3l14.1,6.9c0.4,0.2,0.4,0.3,0.4,0.4C51.8,611.7,51.7,611.9,51.4,612.1z"/>
		</g>
	</g>
	<path class="st0" d="M34.1,623.5c-3.2,0-6.4-0.3-9.5-0.9v1.2c0.7,0.8,4.1,4.7,10.5,4.7s9.8-3.9,10.5-4.7v-1.7
		C41.8,623,37.9,623.5,34.1,623.5z"/>
</g>
<g>
	<circle class="st0" cx="21.6" cy="695.2" r="3.2"/>
	<rect x="30.4" y="671.8" class="st0" width="1.4" height="29.1"/>
	<rect x="38.1" y="674.6" class="st0" width="14.9" height="3.7"/>
	<rect x="38.2" y="694.7" class="st0" width="15" height="3.5"/>
	<g>
		<path class="st1" d="M28.9,691.5v-2.2l-0.8-1.9c0.2-0.2,0.8-0.8,0.8-0.8v-0.2V684l-1.3,2.5l-9-14.8c-0.1-0.2-0.4-0.3-0.6-0.2
			c-0.2,0.1-0.3,0.4-0.2,0.6c0.2,0.5,5.7,12.1,6.6,13.4c0.1,0.1,0.2,0.2,0.3,0.2c0.4,0,1,0.4,1.6,1c0.3,0.3,0.5,0.6,0.7,0.8l-2.9,5
			c-0.7-0.6-1.5-1-2.5-1c-2.1,0-3.7,1.7-3.7,3.7c0,1.5,0.9,2.8,2.2,3.4c-0.1,1.1-1,2-2.1,2c-0.2,0-0.4,0.2-0.4,0.4s0.2,0.4,0.4,0.4
			c1.5,0,2.7-1.1,3-2.6c0.2,0,0.5,0.1,0.7,0.1c2.1,0,3.7-1.7,3.7-3.7c0-0.8-0.2-1.5-0.6-2.1l2.8-4.9L28.9,691.5z M25,684.8
			c-0.4-0.7-1.4-2.7-2.5-5l3.2,5.3C25.5,684.9,25.3,684.9,25,684.8z M21.7,698c-1.6,0-2.9-1.3-2.9-2.9s1.3-2.9,2.9-2.9
			c1.6,0,2.9,1.3,2.9,2.9S23.2,698,21.7,698z"/>
		<path class="st1" d="M36.2,672.1c0.3,0,0.5-0.2,0.5-0.5c0-0.3-0.2-0.5-0.5-0.5h-4.3c-1.3,0-2.3,1-2.3,2.3v26.1
			c0,1.3,1,2.3,2.3,2.3h4.3c0.3,0,0.5-0.2,0.5-0.5c0-0.3-0.2-0.5-0.5-0.5h-3.8v-0.9h3.8c0.3,0,0.5-0.2,0.5-0.5s-0.2-0.5-0.5-0.5
			h-3.8v-1h3.8c0.3,0,0.5-0.2,0.5-0.5c0-0.3-0.2-0.5-0.5-0.5h-3.8v-1h3.8c0.3,0,0.5-0.2,0.5-0.5s-0.2-0.5-0.5-0.5h-3.8v-1h3.8
			c0.3,0,0.5-0.2,0.5-0.5c0-0.3-0.2-0.5-0.5-0.5h-3.8v-1h3.8c0.3,0,0.5-0.2,0.5-0.5s-0.2-0.5-0.5-0.5h-3.8v-1h3.8
			c0.3,0,0.5-0.2,0.5-0.5s-0.2-0.5-0.5-0.5h-3.8v-1h3.8c0.3,0,0.5-0.2,0.5-0.5s-0.2-0.5-0.5-0.5h-3.8v-1h3.8c0.3,0,0.5-0.2,0.5-0.5
			s-0.2-0.5-0.5-0.5h-3.8v-1h3.8c0.3,0,0.5-0.2,0.5-0.5c0-0.3-0.2-0.5-0.5-0.5h-3.8v-1h3.8c0.3,0,0.5-0.2,0.5-0.5
			c0-0.3-0.2-0.5-0.5-0.5h-3.8v-1h3.8c0.3,0,0.5-0.2,0.5-0.5s-0.2-0.5-0.5-0.5h-3.8v-1h3.8c0.3,0,0.5-0.2,0.5-0.5s-0.2-0.5-0.5-0.5
			h-3.8v-1h3.8c0.3,0,0.5-0.2,0.5-0.5c0-0.3-0.2-0.5-0.5-0.5h-3.8v-1h3.8c0.3,0,0.5-0.2,0.5-0.5c0-0.3-0.2-0.5-0.5-0.5h-3.8v-0.9
			H36.2z M30.6,699.5v-26.1c0-0.6,0.3-1,0.8-1.2v28.5C30.9,700.5,30.6,700,30.6,699.5z"/>
		<g>
			<g>
				<path class="st1" d="M52.1,678.9c0.8,0,1.5-0.7,1.5-1.5v-2c0-0.8-0.7-1.5-1.5-1.5h-2.5v-1c0-0.8-0.7-1.5-1.5-1.5h-5
					c-0.8,0-1.5,0.7-1.5,1.5v1h-2.5c-0.8,0-1.5,0.7-1.5,1.5v2c0,0.8,0.7,1.5,1.5,1.5h4v1.1l-1.2,0.4c-0.1,0-0.1,0-0.2,0.1l-1.7,1.3
					l-2.8-0.3c0,0.3,0,0.7,0.1,1l2.8,0.3c0.1,0,0.3,0,0.4-0.1l1.8-1.4l0.8-0.3v7.6c0,0.3,0.1,0.5,0.3,0.7l0.7,0.7
					c0.2,0.2,0.4,0.3,0.7,0.3h1.8c0.7,0,1.2-0.4,1.4-1h1.6c0,1-0.6,1.9-1.6,2.3l-0.5,0.2c0,0-0.1,0-0.1,0h-3.7
					c-0.2,0-0.4-0.1-0.6-0.3l-2.4-2.7c-0.3-0.3-0.7-0.5-1.1-0.4l-2.4,0.2c0,0.3,0,0.7-0.1,1l2.5-0.3c0.1,0,0.2,0,0.2,0.1l2.4,2.7
					c0.2,0.2,0.5,0.4,0.8,0.5v1.1h-4c-0.8,0-1.5,0.7-1.5,1.5v2c0,0.8,0.7,1.5,1.5,1.5h2.5v1c0,0.8,0.7,1.5,1.5,1.5h5
					c0.8,0,1.5-0.7,1.5-1.5v-1h2.5c0.8,0,1.5-0.7,1.5-1.5v-2c0-0.8-0.7-1.5-1.5-1.5h-4v-1.2l0.3-0.1c1.3-0.5,2.2-1.8,2.2-3.3v0
					c0.6-0.2,1-0.8,1-1.4c0-0.4-0.2-0.7-0.4-1c0.2-0.3,0.4-0.6,0.4-1s-0.2-0.7-0.4-1c0.2-0.3,0.4-0.6,0.4-1s-0.2-0.7-0.4-1
					c0.2-0.3,0.4-0.6,0.4-1c0-0.8-0.7-1.5-1.5-1.5h-2v-1.5H52.1z M44.1,692.9h3v1h-3V692.9z M48.6,699.9c0,0.3-0.2,0.5-0.5,0.5h-5
					c-0.3,0-0.5-0.2-0.5-0.5v-1h6V699.9z M52.1,694.9c0.3,0,0.5,0.2,0.5,0.5v2c0,0.3-0.2,0.5-0.5,0.5h-13c-0.3,0-0.5-0.2-0.5-0.5v-2
					c0-0.3,0.2-0.5,0.5-0.5H52.1z M42.6,672.9c0-0.3,0.2-0.5,0.5-0.5h5c0.3,0,0.5,0.2,0.5,0.5v1h-6V672.9z M46.6,689.4h-1.8
					l-0.7-0.7v-9.8h3v1.5c-0.5,0-1,0.3-1.3,0.7c0,0,0,0.1,0,0.1c0,0,0,0.1-0.1,0.1c0,0.1,0,0.1-0.1,0.2c0,0,0,0.1,0,0.1c0,0,0,0,0,0
					c0,0,0,0.1,0,0.1c0,0,0,0.1,0,0.1c0,0,0,0,0,0c0,0,0,0.1,0,0.1c0,0.1,0,0.1,0,0.2c0,0,0,0.1,0,0.1c0,0.1,0,0.1,0.1,0.2
					c0,0,0,0.1,0.1,0.1c0,0,0.1,0.1,0.1,0.1c0,0,0,0,0,0.1c0,0,0,0,0,0c0,0,0,0.1-0.1,0.1c0,0,0,0.1-0.1,0.1c0,0-0.1,0.1-0.1,0.1
					c0,0,0,0.1,0,0.1c0,0.1,0,0.1-0.1,0.2c0,0,0,0.1,0,0.1c0,0.1,0,0.2,0,0.3c0,0.1,0,0.2,0,0.3c0,0,0,0.1,0,0.1
					c0,0.1,0,0.1,0.1,0.2c0,0,0,0.1,0.1,0.1c0,0,0,0.1,0.1,0.1c0,0,0,0.1,0.1,0.1c0,0,0,0.1,0.1,0.1c0,0,0,0.1-0.1,0.1
					c0,0,0,0.1-0.1,0.1c0,0-0.1,0.1-0.1,0.1c0,0,0,0.1-0.1,0.1c0,0.1,0,0.1-0.1,0.2c0,0,0,0.1,0,0.1c0,0.1,0,0.2,0,0.3
					c0,0.1,0,0.2,0,0.3c0,0,0,0.1,0,0.1c0,0.1,0,0.1,0.1,0.2c0,0,0,0.1,0,0.1c0,0.1,0,0.1,0.1,0.1c0,0,0,0.1,0.1,0.1
					c0,0,0,0.1,0.1,0.1c0,0,0,0,0,0c0,0,0,0,0,0.1c0,0-0.1,0.1-0.1,0.1c0,0,0,0.1-0.1,0.1c0,0.1,0,0.1-0.1,0.2c0,0,0,0.1,0,0.1
					c0,0.1,0,0.1,0,0.2c0,0,0,0.1,0,0.1c0,0,0,0,0,0c0,0,0,0.1,0,0.1c0,0,0,0.1,0,0.1c0,0,0,0,0,0c0,0,0,0,0,0.1
					c0,0.1,0,0.1,0.1,0.2c0,0,0,0.1,0,0.1c0,0,0,0.1,0.1,0.1c0.2,0.4,0.6,0.6,1,0.7C46.7,689.4,46.6,689.4,46.6,689.4z M50.1,688.4
					h-2.9c-0.2,0-0.4-0.1-0.5-0.2c0,0,0,0,0,0c0,0,0-0.1,0-0.1c0,0,0-0.1,0-0.1c0,0,0-0.1,0-0.1c0,0,0-0.1,0-0.1c0,0,0-0.1,0.1-0.1
					c0,0,0,0,0-0.1c0,0,0.1-0.1,0.1-0.1c0,0,0,0,0.1,0c0.1,0,0.1,0,0.2,0h3c0.3,0,0.5,0.2,0.5,0.5S50.3,688.4,50.1,688.4z
					 M50.1,686.4h-3c-0.3,0-0.5-0.2-0.5-0.5s0.2-0.5,0.5-0.5h3c0.3,0,0.5,0.2,0.5,0.5S50.3,686.4,50.1,686.4z M50.1,684.4h-3
					c-0.3,0-0.5-0.2-0.5-0.5s0.2-0.5,0.5-0.5h3c0.3,0,0.5,0.2,0.5,0.5S50.3,684.4,50.1,684.4z M50.1,681.4c0.3,0,0.5,0.2,0.5,0.5
					s-0.2,0.5-0.5,0.5h-3c-0.1,0-0.1,0-0.2,0c0,0,0,0-0.1,0c0,0-0.1-0.1-0.1-0.1c0,0,0,0,0-0.1c0,0,0-0.1-0.1-0.1c0,0,0-0.1,0-0.1
					c0,0,0-0.1,0-0.1c0,0,0-0.1,0-0.1c0,0,0-0.1,0-0.1c0,0,0,0,0,0c0.1-0.1,0.3-0.2,0.5-0.2H50.1z M39.1,677.9
					c-0.3,0-0.5-0.2-0.5-0.5v-2c0-0.3,0.2-0.5,0.5-0.5h13c0.3,0,0.5,0.2,0.5,0.5v2c0,0.3-0.2,0.5-0.5,0.5H39.1z"/>
			</g>
		</g>
	</g>
</g>
<g>
	<rect x="38.9" y="752.7" class="st0" width="2.6" height="2.8"/>
	<rect x="38.8" y="766.2" class="st0" width="2.9" height="7.2"/>
	<circle class="st0" cx="34.9" cy="749.7" r="2.7"/>
	<path class="st0" d="M39.5,764.8c-4.2,0-8.3-0.8-12-2.2v3.7h25.5V762C48.6,763.8,44,764.8,39.5,764.8z"/>
	<g>
		<g>
			<path class="st1" d="M34.6,761.3c0.6-0.2,1-0.6,1-1.5c0-1.2-0.8-1.6-1.8-1.6h-1.5c-0.2,0-0.3,0.1-0.3,0.3v4.9
				c0,0.2,0.2,0.3,0.5,0.3c0.2,0,0.5-0.1,0.5-0.3v-1.9h0.6l1.1,2.1c0.1,0.1,0.2,0.2,0.3,0.2c0.3,0,0.6-0.3,0.6-0.5c0,0,0-0.1,0-0.1
				L34.6,761.3z M33.8,760.7H33v-1.6h0.8c0.5,0,0.8,0.2,0.8,0.8C34.6,760.5,34.3,760.7,33.8,760.7z"/>
			<path class="st1" d="M39.5,759.1c0.2,0,0.3-0.2,0.3-0.4c0-0.2-0.1-0.4-0.3-0.4h-2.7c-0.2,0-0.4,0.1-0.4,0.3v4.8
				c0,0.2,0.2,0.3,0.4,0.3h2.7c0.2,0,0.3-0.2,0.3-0.4c0-0.2-0.1-0.4-0.3-0.4h-2.1v-1.5h1.1c0.2,0,0.3-0.2,0.3-0.4
				c0-0.2-0.1-0.4-0.3-0.4h-1.1v-1.5L39.5,759.1L39.5,759.1z"/>
			<path class="st1" d="M43.6,758.2c-0.2,0-0.5,0.1-0.5,0.3v3l-1.4-2.8c-0.2-0.4-0.4-0.5-0.7-0.5c-0.2,0-0.5,0.1-0.5,0.3v4.8
				c0,0.2,0.2,0.3,0.5,0.3c0.2,0,0.5-0.1,0.5-0.3v-3l1.6,3c0.1,0.2,0.3,0.3,0.6,0.3c0.2,0,0.5-0.1,0.5-0.3v-4.9
				C44.1,758.3,43.9,758.2,43.6,758.2z"/>
			<path class="st1" d="M48.3,758.2h-3.2c-0.2,0-0.3,0.2-0.3,0.4c0,0.2,0.1,0.4,0.3,0.4h1.1v4.3c0,0.2,0.2,0.3,0.5,0.3
				c0.2,0,0.5-0.1,0.5-0.3v-4.3h1.1c0.2,0,0.3-0.2,0.3-0.4C48.6,758.5,48.5,758.2,48.3,758.2z"/>
		</g>
		<path class="st1" d="M52.2,755h-10v-1.2c0-1-0.9-1.9-1.9-1.9s-1.9,0.9-1.9,1.9v1.2h-10c-0.7,0-1.3,0.5-1.4,1.2c0,0,0,0.1,0,0.1
			v9.1c0,0.8,0.6,1.4,1.4,1.4h1.7v3.8h-7.2v-18.3l12.1-8.1l6.5,4.3l5.6,3.7v1.5c0,0.3,0.2,0.5,0.5,0.5c0.3,0,0.5-0.2,0.5-0.5V753
			l1.6,1c0.6,0.4,1.4,0.4,1.9,0c0.5-0.3,0.8-0.9,0.8-1.5c0-0.6-0.3-1.1-0.8-1.5l-16.2-10.7c-0.3-0.2-0.7-0.2-1,0l-9.4,6.2
			c-0.2,0.2-0.3,0.5-0.1,0.7c0.2,0.2,0.5,0.3,0.7,0.1l9.3-6.2L51.1,752c0.2,0.1,0.3,0.4,0.3,0.6s-0.1,0.5-0.3,0.6
			c-0.2,0.2-0.6,0.2-0.8,0l-14.8-9.8c-0.3-0.2-0.7-0.2-1,0l-14.8,9.8c-0.2,0.2-0.6,0.2-0.8,0c-0.2-0.1-0.3-0.4-0.3-0.6
			s0.1-0.5,0.3-0.6l4.1-2.7c0.2-0.2,0.3-0.5,0.1-0.7c-0.2-0.2-0.5-0.3-0.7-0.1l-4.1,2.7c-0.5,0.3-0.8,0.9-0.8,1.5s0.3,1.1,0.8,1.5
			c0.3,0.2,0.6,0.3,1,0.3c0.3,0,0.7-0.1,1-0.3l1.6-1v17.6h-2c-0.9,0-1.6,0.7-1.6,1.6c0,0.9,0.7,1.6,1.6,1.6h19h2.8h8.4
			c0.9,0,1.6-0.7,1.6-1.6s-0.7-1.6-1.6-1.6h-2v-2.5c0-0.3-0.2-0.5-0.5-0.5c-0.3,0-0.5,0.2-0.5,0.5v2.5h-4.9v-3.8h10
			c0.8,0,1.4-0.6,1.4-1.4v-9.1C53.5,755.7,52.9,755,52.2,755z M39.4,753.9c0-0.5,0.4-0.9,0.9-0.9s0.9,0.4,0.9,0.9v1.2h-1.7V753.9z
			 M38.4,772.7H19.9c-0.3,0-0.5-0.2-0.5-0.5c0-0.3,0.2-0.5,0.5-0.5h2.5h8.3h7.8V772.7z M38.4,770.7h-7.3v-3.8h7.3V770.7z
			 M41.2,771.2v1.6h-1.7v-1.6v-4.3h1.7V771.2z M47.6,771.7h2.5c0.3,0,0.5,0.2,0.5,0.5c0,0.3-0.2,0.5-0.5,0.5h-7.9v-1H47.6
			L47.6,771.7z M52.5,765.5c0,0.2-0.2,0.4-0.4,0.4H41.7h-2.8h-8.3h-2.2c-0.2,0-0.4-0.2-0.4-0.4v-9.1c0-0.2,0.2-0.4,0.4-0.4h10.5h2.8
			c0,0,0,0,0,0h10.5c0.2,0,0.4,0.2,0.4,0.4L52.5,765.5L52.5,765.5z"/>
		<path class="st1" d="M31.7,749.8c0,1.8,1.5,3.2,3.2,3.2c1.8,0,3.2-1.5,3.2-3.2c0-1.8-1.5-3.2-3.2-3.2
			C33.2,746.5,31.7,748,31.7,749.8z M34.5,751.9c-0.8-0.2-1.4-0.8-1.6-1.6h1.6V751.9z M34.5,749.3h-1.6c0.2-0.8,0.8-1.4,1.6-1.6
			V749.3z M35.5,747.6c0.8,0.2,1.4,0.8,1.6,1.6h-1.6V747.6z M35.5,750.3h1.6c-0.2,0.8-0.8,1.4-1.6,1.6V750.3z"/>
	</g>
</g>
</svg>
