<svg xmlns="http://www.w3.org/2000/svg" width="50" height="30" viewBox="1 6 34 24">
    <path fill="#212121" fill-rule="evenodd" stroke="#212121" stroke-width=".7"
        d="M18.81,15.698a0.402,0.402 0,0 0,0 0.574,0.405 0.405,0 0,0 0.567,0l2.908,-2.908v9.595a0.404,0.404 0,1 0,0.808 0v-9.595l2.902,2.908c0.16,0.155 0.42,0.155 0.574,0a0.402,0.402 0,0 0,0 -0.574l-3.596,-3.596a0.405,0.405 0,0 0,-0.568 0l-3.596,3.596zM9.81,19.654a0.402,0.402 0,0 1,0 -0.574,0.405 0.405,0 0,1 0.567,0l2.908,2.908v-9.595a0.404,0.404 0,1 1,0.808 0v9.595l2.902,-2.908a0.412,0.412 0,0 1,0.574 0c0.16,0.16 0.16,0.413 0,0.574l-3.596,3.596a0.405,0.405 0,0 1,-0.568 0L9.81,19.654z" />
</svg>
