<svg xmlns="http://www.w3.org/2000/svg" width="18" height="18" viewBox="0 0 18 18">
    <path fill="#603B9C" fill-rule="evenodd" d="M1.497 5.975h.497v2.982h-.497A.496.496 0 0 1 1 8.46V6.472c0-.273.222-.497.497-.497zm14.909 0h-.498v2.982h.498a.496.496 0 0 0 .497-.497V6.472a.497.497 0 0 0-.497-.497zm-1.491-.993v8.945c0 .55-.444.994-.994.994v.994c0 .55-.444.994-.994.994h-.994a.994.994 0 0 1-.994-.994v-.994H6.964v.994c0 .55-.445.994-.994.994h-.994a.994.994 0 0 1-.994-.994v-.994a.994.994 0 0 1-.994-.994V4.982A2.982 2.982 0 0 1 5.97 2h5.963a2.982 2.982 0 0 1 2.982 2.982zm-7.951-.994h3.975v-.994H6.964v.994zm-.994 8.945a.993.993 0 1 0-1.988 0 .994.994 0 1 0 1.988 0zm7.951 0a.993.993 0 1 0-1.988 0 .994.994 0 1 0 1.988 0zm0-7.951h-9.94v5.963h9.94V4.982z"/>
</svg>
