<svg height="20" viewBox="0 0 20 20" width="20" xmlns="http://www.w3.org/2000/svg">
    <path
        d="M9.758 1.001c3.676.058 6.667 3.07 6.667 6.713 0 4.455-4.804 8.967-6.713 10.584-.127-.109-.269-.23-.42-.364l-.007-.007C7.172 16.067 3 11.867 3 7.714 3 4.07 5.99 1.059 9.666 1.001h.023L9.712 1l.046.001zm.018 2.558c-1.94 0-3.513 1.56-3.513 3.481 0 1.923 1.573 3.482 3.513 3.482s3.512-1.559 3.512-3.482c0-1.922-1.572-3.48-3.512-3.48z"
        fill="#757F7E" fill-rule="evenodd" opacity=".6" />
</svg>
