<svg xmlns="http://www.w3.org/2000/svg" width="38" height="38" viewBox="0 0 38 38">
    <defs>
        <linearGradient id="a" x1="50%" x2="50%" y1="0%" y2="100%">
            <stop offset="0%" stop-color="#FFF" stop-opacity=".5"/>
            <stop offset="100%" stop-opacity=".5"/>
        </linearGradient>
    </defs>
    <g fill="none" fill-rule="evenodd">
        <path fill="#757F7E" d="M31.336 6.445C24.491-.4 13.291-.4 6.446 6.445-.4 13.291-.4 24.491 6.445 31.336c6.845 6.845 18.045 6.845 24.89 0 6.845-6.845 6.845-18.045 0-24.89zM8.935 8.935c5.476-5.476 14.436-5.476 19.912 0a13.871 13.871 0 0 1 3.983 8.214H4.952a13.871 13.871 0 0 1 3.983-8.214zm0 19.912a13.871 13.871 0 0 1-3.983-8.214H32.83a13.871 13.871 0 0 1-3.983 8.214c-5.476 5.476-14.436 5.476-19.912 0z"/>
        <path fill="url(#a)" stroke="#757F7E" stroke-width="3" d="M24.405 40.958V25.245" transform="translate(-6 -6)"/>
    </g>
</svg>
