<svg xmlns="http://www.w3.org/2000/svg" xmlns:xlink="http://www.w3.org/1999/xlink" width="136" height="116" viewBox="0 0 136 116">
    <defs>
        <path id="ov2uhm08va" d="M74.938 89H61.964c-2.146 0-3.892-1.755-3.892-3.911V73.804c-2.069 1.73-4.264 3.258-6.175 4.48-4.804 3.07-10.35 5.774-14.129 6.888-.41.12-.844.12-1.255 0-3.78-1.114-9.325-3.818-14.128-6.888-4.172-2.667-9.694-6.791-12.309-11.299C2.625 54.14 0 20.83 0 14.66c0-.955.46-1.809 1.2-2.228C7.967 8.597 19.515 4.533 35.52.351 35.998.227 36.782 0 37.14 0c.36 0 1.145.227 1.62.351 13.07 3.415 23.241 6.78 30.232 10.004.652.3.937 1.075.638 1.729-.299.654-1.069.941-1.72.64-6.853-3.16-16.88-6.473-29.802-9.85-.425-.11-.752-.196-.967-.254-.216.058-.543.144-.967.255C16.682 7.967 7.163 12.069 2.596 14.634l-.001.025c0 5.81 2.648 38.816 9.723 51.014 1.835 3.164 5.905 6.861 11.46 10.411 4.57 2.922 9.799 5.485 13.363 6.556 3.564-1.07 8.793-3.635 13.363-6.556 5.554-3.55 9.624-7.247 11.46-10.411l.08-.14h-.08c-.92 0-1.765-.322-2.432-.86-3.602 5.74-15.284 12.714-21.949 15.079-.103.037-.212.062-.326.072h-.002c-.04.004-.078.005-.119.006h-.002c-.164-.001-.32-.032-.465-.089-5.091-1.812-13.317-6.352-18.579-11.22-.527-.489-.561-1.314-.076-1.843.486-.53 1.306-.564 1.834-.076 4.304 3.983 11.09 7.966 15.994 10.022V42.066H10.73c1.466 8.425 3.485 16.52 6.073 20.98.36.622.151 1.42-.468 1.783s-1.413.153-1.774-.47C8.156 53.32 5.592 24.218 5.256 17.03c-.024-.519.26-1.003.724-1.231 6.673-3.295 17.037-6.79 30.806-10.39.103-.029.211-.045.323-.048h.064c.111.003.22.02.323.049 13.77 3.599 24.133 7.094 30.805 10.389.464.228.748.712.724 1.23-.057 1.218-.148 2.642-.267 4.179h2.585c.251-3.277.344-5.506.344-6.548l-.002-.036c-.53-.383-.698-1.112-.37-1.697.351-.627 1.142-.849 1.767-.495.74.42 1.2 1.273 1.2 2.228 0 1.07-.091 3.311-.338 6.566.614.103 1.08.64 1.08 1.285 0 .72-.58 1.304-1.297 1.304H61.964c-.715 0-1.297.585-1.297 1.304v13.037c0 .719.582 1.304 1.297 1.304h12.974c.716 0 1.298-.585 1.298-1.304v-9.312l-6.43 6.46c-.506.51-1.328.51-1.834 0l-4.33-4.35c-.507-.51-.507-1.335 0-1.845.506-.508 1.328-.509 1.835 0l3.412 3.43 10.896-10.95c.507-.508 1.328-.508 1.835 0 .507.51.507 1.335 0 1.845l-2.79 2.803v11.92c0 2.156-1.746 3.91-3.892 3.91h-3.492c-.147.884-.298 1.755-.453 2.608h2.734c.717 0 1.298.583 1.298 1.303s-.581 1.304-1.298 1.304H61.964c-.715 0-1.297.585-1.297 1.304 0 0 .007 13.19.02 13.263.004.022.009.043.012.065.132.58.65 1.013 1.265 1.013h12.974c.716 0 1.298-.585 1.298-1.304V52.31l-6.43 6.46c-.506.51-1.328.51-1.834 0l-4.33-4.35c-.507-.51-.507-1.335 0-1.845.506-.509 1.328-.509 1.835 0l3.412 3.43 10.896-10.95c.507-.508 1.328-.508 1.835 0 .507.51.507 1.335 0 1.845l-2.79 2.803v11.92c0 2.156-1.746 3.91-3.892 3.91h-9.952c-.257.514-.518 1-.78 1.453-.226.388-.473.773-.738 1.155h10.26c.716 0 1.297.583 1.297 1.303s-.581 1.304-1.298 1.304H61.964c-.715 0-1.297.585-1.297 1.304v13.037c0 .719.582 1.304 1.297 1.304h12.974c.716 0 1.298-.585 1.298-1.304v-9.312l-6.43 6.46c-.506.51-1.328.51-1.834 0l-4.33-4.35c-.507-.51-.507-1.335 0-1.845.506-.508 1.328-.509 1.835 0l3.412 3.43 10.896-10.95c.507-.508 1.328-.508 1.835 0 .507.51.507 1.335 0 1.845l-2.79 2.803v11.92c0 2.155-1.746 3.91-3.892 3.91zm-36.5-46.934V76.63c7.043-2.924 16.472-9.152 19.042-13.582.201-.348.403-.726.603-1.128-.007-.098-.011-.197-.011-.297V48.585c0-2.157 1.746-3.911 3.892-3.911h1.107c.162-.849.32-1.72.474-2.608H38.438zm27.274 2.608h2.643c.156-.851.31-1.722.46-2.608h-2.636c-.152.886-.308 1.757-.467 2.608zm-27.274-5.215h19.856c-.144-.408-.222-.847-.222-1.304V25.118c0-2.156 1.746-3.911 3.892-3.911h4.191c.097-1.236.176-2.4.234-3.44-4.541-2.155-12.934-5.418-27.95-9.414l-.001 31.106zm-28.144 0h25.549V8.353c-15.016 3.996-23.41 7.259-27.95 9.413.282 5.157 1.078 13.419 2.401 21.693z"/>
    </defs>
    <g fill="none" fill-rule="evenodd">
        <g>
            <g transform="translate(-139 -632) translate(139 632)">
                <path fill="#E5E5EB" d="M79.974 104.79c27.678-20.511 43.982-21.308 53.135-43.175C142.26 39.748 116.892 2 72.592 2 28.293 2-4.067 31.026.415 74.99c4.48 43.965 51.881 50.313 79.559 29.8z"/>
                <g transform="translate(24.243 14.086)">
                    <mask id="aq0wq3r47b" fill="#fff">
                        <use xlink:href="#ov2uhm08va"/>
                    </mask>
                    <use fill="#6D6D6D" fill-rule="nonzero" xlink:href="#ov2uhm08va"/>
                    <path fill="#E54444" d="M61.757 24.914L74.677 24.584 83.689 18.546 82.431 22.687 74.677 30.414 73.666 35.914 61.757 35.914zM61.757 48.434L74.677 48.104 83.689 42.066 82.431 46.207 74.677 53.934 73.666 59.434 61.757 59.434zM61.757 71.837L74.677 71.507 83.689 65.47 82.431 69.61 74.677 77.337 73.666 82.837 61.757 82.837z" mask="url(#aq0wq3r47b)"/>
                </g>
                <path stroke="#6D6D6D" stroke-linejoin="round" stroke-width=".8" d="M64.701 1H68.701V5H64.701z" opacity=".6" transform="rotate(9 66.7 3)"/>
                <circle cx="38.201" cy="3.5" r="2.5" stroke="#8F1538" stroke-linejoin="round" opacity=".6"/>
                <path stroke="#8F1538" stroke-linejoin="round" d="M119.701 74H124.701V79H119.701z" opacity=".6" transform="rotate(45 122.2 76.5)"/>
                <path stroke="#70BF47" stroke-linejoin="round" stroke-width=".8" d="M7.701 60H11.701V64H7.701z" opacity=".6"/>
                <circle cx="29.701" cy="101" r="2" stroke="#5B45C8" stroke-linejoin="round" stroke-width=".8" opacity=".6"/>
                <circle cx="116.201" cy="23.5" r="2.5" stroke="#70BF47" stroke-linejoin="round" opacity=".6"/>
                <path stroke="#904800" stroke-linejoin="round" d="M6.201 89L8.701 94 3.701 94z" opacity=".6" transform="rotate(45 6.2 91.5)"/>
                <path stroke="#6D6D6D" stroke-linejoin="round" d="M132.201 35L134.701 40 129.701 40z" opacity=".6"/>
            </g>
        </g>
    </g>
</svg>
