<svg xmlns="http://www.w3.org/2000/svg" width="14" height="13" viewBox="0 0 14 13">
    <g fill="#212121" fill-rule="evenodd" stroke="#212121" stroke-width=".4">
        <path d="M10.12.684c-.123-.123-.316-.123-.44 0-.118.118-.118.316 0 .434l2.227 2.226H1.06c-.171 0-.312.136-.312.308 0 .17.14.311.312.311h10.846L9.68 6.185c-.119.123-.119.321 0 .44.123.122.316.122.439 0l2.753-2.754c.119-.118.119-.316 0-.434L10.12.684zM3.591 6.684c.123-.123.317-.123.44 0 .118.118.118.316 0 .434L1.803 9.344H12.65c.171 0 .312.136.312.308 0 .17-.14.311-.312.311H1.804l2.226 2.222c.12.123.12.321 0 .44-.122.122-.316.122-.439 0L.838 9.87c-.118-.118-.118-.316 0-.434l2.753-2.753z"/>
    </g>
</svg>
