<svg xmlns="http://www.w3.org/2000/svg" width="23" height="24" viewBox="0 0 23 24">
    <path fill="#828282" d="M2.008 24h18.038c1.106 0 2.008-.902 2.008-2.008V2.008C22.054.902 21.152 0 20.046 0H2.008C.902 0 0 .902 0 2.008v19.984C0 23.098.902 24 2.008 24zM4.216 1.297h15.83c.393 0 .71.318.71.71v19.985c0 .393-.317.71-.71.71H4.216V1.298zm-1.297 0v21.406h-.911c-.393 0-.71-.318-.71-.71V2.007c0-.393.317-.71.71-.71h.91zm10.93 11.168c1.698 0 3.08 1.383 3.08 3.08v1.29c0 .45-.368.82-.82.82H8.929c-.451 0-.82-.37-.82-.82v-1.29c0-1.697 1.383-3.08 3.08-3.08zm-.002 1.038h-2.66c-1.125 0-2.041.916-2.041 2.042v1.071h6.743v-1.071c0-1.126-.916-2.042-2.042-2.042zM12.52 6.757c1.43 0 2.595 1.165 2.595 2.594 0 1.43-1.165 2.595-2.595 2.595-1.43 0-2.595-1.165-2.595-2.595 0-1.43 1.165-2.594 2.595-2.594zm0 1.038c-.859 0-1.557.698-1.557 1.556 0 .86.698 1.557 1.557 1.557s1.557-.698 1.557-1.557c0-.858-.698-1.556-1.557-1.556z"/>
</svg>
