<svg xmlns="http://www.w3.org/2000/svg" width="218" height="178" viewBox="0 0 218 178">
    <g fill="#A6A6A6">
        <path d="M172.893 46.918L180.078 46.918 180.078 61.289 172.893 61.289zM158.522 46.918L165.707 46.918 165.707 61.289 158.522 61.289zM144.151 46.918L151.336 46.918 151.336 61.289 144.151 61.289zM129.78 46.918L136.966 46.918 136.966 61.289 129.78 61.289zM172.893 115.179L180.078 115.179 180.078 122.365 172.893 122.365zM158.522 115.179L165.707 115.179 165.707 122.365 158.522 122.365zM144.151 115.179L151.336 115.179 151.336 122.365 144.151 122.365zM129.78 115.179L136.966 115.179 136.966 122.365 129.78 122.365z" transform="translate(1 1)"/>
        <path stroke="#F1F1F1" d="M11.22 104.131v21.827c.013 9.916 8.049 17.95 17.964 17.963h64.95l63.95 30.69c4.006 1.918 8.611 2.164 12.798.68 4.188-1.482 7.612-4.572 9.516-8.585l11.11-23.353c8.03-1.95 13.693-9.131 13.72-17.395v-11.44l9.143-19.206c3.97-8.353.452-18.344-7.875-22.368l-1.269-.607v-25.42c-.012-9.916-8.046-17.95-17.963-17.963H114.83L58.371 1.858c-4.005-1.92-8.611-2.165-12.797-.68-4.188 1.481-7.612 4.57-9.517 8.584L26.81 29.194c-8.9 1.174-15.56 8.747-15.589 17.724v15.028l-9.143 19.21c-3.968 8.353-.45 18.344 7.875 22.368l1.268.607zm194.007-23.525c3.465 2.793 4.561 7.596 2.653 11.615l-2.653 5.574V80.606zM173.9 163.6c-1.083 2.29-3.032 4.056-5.417 4.903-2.388.849-5.014.71-7.298-.384l-50.446-24.197h72.537L173.9 163.6zm24.142-37.641c0 5.952-4.826 10.778-10.778 10.778H68.704V95.19c7.99 7.687 18.653 11.974 29.742 11.96v-7.185c-9.224.01-18.096-3.55-24.751-9.935h124.347v35.928zM72.052 80.613l7.07-17.765c1.4-3.442 4.946-5.507 8.63-5.022 3.684.482 6.576 3.39 7.04 7.078.463 3.686-1.622 7.22-5.07 8.6l-17.67 7.11zM187.265 36.14c5.952 0 10.778 4.825 10.778 10.778v35.927H85.776l6.626-2.66c6.519-2.584 10.463-9.252 9.589-16.209-.874-6.957-6.345-12.443-13.3-13.336-6.955-.893-13.633 3.033-16.237 9.545l-3.75 9.417V36.14h118.56zM42.55 12.855c1.08-2.29 3.03-4.056 5.417-4.905 2.386-.847 5.012-.708 7.297.386L98.23 28.954H34.885l7.665-16.099zM18.406 46.918c0-5.953 4.826-10.778 10.778-10.778h32.334v30.955l-2.752-6.91c-2.616-6.478-9.278-10.373-16.208-9.473-6.929.898-12.378 6.361-13.255 13.294-.879 6.931 3.035 13.581 9.52 16.18l6.621 2.659H18.406V46.918zm40.767 33.695l-17.669-7.11c-3.482-1.363-5.6-4.911-5.145-8.623.454-3.712 3.366-6.644 7.075-7.126 3.708-.483 7.271 1.607 8.66 5.08l7.079 17.78zM18.406 90.03h39.121C50.87 96.416 42 99.975 32.777 99.965v7.185c10.62.01 20.863-3.928 28.741-11.048v40.634H29.184c-5.952 0-10.778-4.826-10.778-10.778V90.03zM8.57 84.247l2.65-5.577v17.192c-3.464-2.793-4.56-7.596-2.65-11.615z" transform="translate(1 1)"/>
    </g>
</svg>
