<svg xmlns="http://www.w3.org/2000/svg" width="90" height="90" viewBox="0 0 90 90">
    <path fill="#CDCDCD" fill-rule="nonzero" d="M89.055 84.514L70.926 66.366c-.119-.12-.266-.165-.385-.257 5.97-7.005 9.588-16.07 9.588-25.999C80.129 17.964 62.193 0 40.059 0 17.928 0 0 17.964 0 40.11c0 3.54.505 6.95 1.36 10.214 1.037-1.581 3.728-5.323 5.344-6.022a33.242 33.242 0 0 1-.285-4.192c0-18.607 15.071-33.693 33.66-33.693 18.587 0 33.658 15.086 33.658 33.693 0 14.618-9.322 27.038-22.326 31.699a27.027 27.027 0 0 1-2.985 7.502 39.993 39.993 0 0 0 17.725-8.78c.092.12.147.267.257.386l18.129 18.138a3.185 3.185 0 0 0 4.527 0 3.212 3.212 0 0 0-.009-4.541zm-47.26-36.369c-4.61-4.615-10.754-7.161-17.283-7.161-6.53 0-12.665 2.546-17.284 7.161C2.608 52.77.064 58.911.064 65.447s2.544 12.678 7.164 17.302c4.62 4.624 10.754 7.17 17.284 7.17 6.53 0 12.664-2.546 17.283-7.17 4.61-4.615 7.155-10.766 7.155-17.302s-2.544-12.678-7.155-17.302zM37.26 78.207a17.9 17.9 0 0 1-12.747 5.286c-4.813 0-9.35-1.875-12.748-5.286a17.937 17.937 0 0 1-5.28-12.76c0-4.817 1.873-9.359 5.28-12.76A17.9 17.9 0 0 1 24.512 47.4c4.812 0 9.349 1.875 12.747 5.286a17.937 17.937 0 0 1 5.28 12.76c0 4.817-1.873 9.35-5.28 12.76zm-1.516-24.013a3.201 3.201 0 0 0-4.527 0l-6.704 6.712-6.705-6.712a3.201 3.201 0 0 0-4.527 0 3.21 3.21 0 0 0 0 4.533l6.704 6.71-6.704 6.712a3.21 3.21 0 0 0 0 4.532 3.189 3.189 0 0 0 2.268.938c.818 0 1.644-.313 2.269-.938l6.704-6.71 6.704 6.71a3.189 3.189 0 0 0 2.268.938c.818 0 1.644-.313 2.269-.938a3.21 3.21 0 0 0 0-4.532l-6.704-6.711 6.704-6.711c1.23-1.241 1.23-3.273-.019-4.533z"/>
</svg>
