<svg height="19" viewBox="0 0 19 19" width="19" xmlns="http://www.w3.org/2000/svg">
    <g fill="#757F7E" fill-rule="evenodd" opacity=".8">
        <path
            d="M9.5 18C4.813 18 1 14.187 1 9.5 1 4.813 4.813 1 9.5 1 14.187 1 18 4.813 18 9.5c0 4.687-3.813 8.5-8.5 8.5zm0-15.583A7.091 7.091 0 0 0 2.417 9.5 7.091 7.091 0 0 0 9.5 16.583 7.091 7.091 0 0 0 16.583 9.5 7.091 7.091 0 0 0 9.5 2.417z" />
        <path
            d="M12.375 7h.03l.037.004L12.375 7a.628.628 0 0 1 .433.174l.009.01.01.01a.628.628 0 0 1 .048.056l-.058-.067a.63.63 0 0 1 .183.442v2.292a.625.625 0 1 1-1.25 0l-.001-.784-2.057 2.059a.624.624 0 0 1-.884 0L8 10.384l-1.433 1.433a.623.623 0 0 1-.884 0 .624.624 0 0 1 0-.884l1.875-1.875a.624.624 0 0 1 .884 0l.808.808 1.616-1.616h-.783a.625.625 0 0 1 0-1.25h2.292z" />
    </g>
</svg>
