<svg xmlns="http://www.w3.org/2000/svg" width="136" height="128" viewBox="0 0 136 128">
    <g fill="none" fill-rule="evenodd">
        <g>
            <g transform="translate(-143 -293) translate(143 293)">
                <path fill="#E5E5EB" d="M89.28 116.875C125.736 91.5 90.956 64.49 116.2 55.98 141.446 47.47 116.893 2 72.593 2 28.293 2-4.067 31.026.415 74.99c4.48 43.965 52.409 67.26 88.865 41.885z"/>
                <g fill-rule="nonzero">
                    <path fill="#6D6D6D" stroke="#E5E5EB" stroke-width="3" d="M50.88 0h-39.6C5.16 0 0 5.16 0 11.28v78.6c0 6.12 5.16 11.28 11.28 11.28H51c6.12 0 11.28-5.16 11.28-11.28v-78.6C62.16 5.04 57.24 0 50.88 0zm5.4 89.76c0 3-2.4 5.28-5.28 5.28H11.4c-3 0-5.28-2.4-5.28-5.28V11.28c0-3 2.4-5.28 5.28-5.28h7.8v.72c0 2.28 1.92 4.08 4.08 4.08h15.6c2.28 0 4.08-1.92 4.08-4.08v-.48-.36h7.92c3 0 5.28 2.4 5.28 5.28l.12 78.6h0z" transform="translate(33 8)"/>
                    <g fill="#E94441">
                        <path d="M34.142 5.858C30.365 2.08 25.342 0 20 0 14.658 0 9.635 2.08 5.858 5.858 2.08 9.635 0 14.658 0 20c0 5.342 2.08 10.365 5.858 14.142C9.635 37.92 14.658 40 20 40c5.342 0 10.365-2.08 14.142-5.858C37.92 30.365 40 25.342 40 20c0-5.342-2.08-10.365-5.858-14.142zM2.428 20c0-9.689 7.883-17.572 17.572-17.572 4.408 0 8.443 1.633 11.53 4.324l-4.173 4.173C25.094 9.823 22.592 9.24 20 9.24c-4.495 0-8.72 1.75-11.899 4.929-.474.474-.474 1.243 0 1.717.475.474 1.243.474 1.718 0 2.719-2.72 6.335-4.218 10.181-4.218 1.926 0 3.795.376 5.522 1.093l-2.674 2.674c-.918-.244-1.873-.371-2.848-.371-2.94 0-5.702 1.145-7.78 3.223-.475.474-.475 1.243 0 1.717.237.237.547.356.858.356.31 0 .622-.119.859-.356 1.62-1.62 3.772-2.512 6.063-2.512.254 0 .507.012.757.034L6.752 31.53C4.061 28.443 2.428 24.409 2.428 20zm19.681 3.958c1.163 1.163 1.163 3.055 0 4.218-1.163 1.163-3.055 1.163-4.218 0-1.163-1.163-1.163-3.055 0-4.218.581-.581 1.345-.872 2.109-.872s1.528.29 2.11.872zM20 37.572c-4.408 0-8.443-1.633-11.53-4.324l6.21-6.21c.189 1.046.686 2.048 1.494 2.855 1.055 1.055 2.44 1.583 3.826 1.583 1.386 0 2.771-.528 3.826-1.583 2.11-2.11 2.11-5.542 0-7.652-.807-.808-1.809-1.305-2.856-1.494l2.518-2.518c.948.422 1.82 1.02 2.575 1.775.475.474 1.243.474 1.717 0 .475-.474.475-1.243 0-1.717-.746-.747-1.582-1.372-2.482-1.868l2.476-2.476c.86.553 1.667 1.202 2.407 1.943.238.237.548.355.859.355.31 0 .621-.118.859-.355.474-.474.474-1.243 0-1.717-.738-.738-1.533-1.398-2.374-1.978l3.723-3.722c2.691 3.088 4.323 7.122 4.323 11.53 0 9.69-7.882 17.573-17.571 17.573z" transform="translate(33 8) translate(11 31)"/>
                    </g>
                </g>
                <path stroke="#6D6D6D" stroke-linejoin="round" stroke-width=".8" d="M64.701 1H68.701V5H64.701z" opacity=".6" transform="rotate(9 66.7 3)"/>
                <circle cx="38.201" cy="3.5" r="2.5" stroke="#8F1538" stroke-linejoin="round" opacity=".6"/>
                <path stroke="#8F1538" stroke-linejoin="round" d="M119.701 74H124.701V79H119.701z" opacity=".6" transform="rotate(45 122.2 76.5)"/>
                <path stroke="#70BF47" stroke-linejoin="round" stroke-width=".8" d="M7.701 60H11.701V64H7.701z" opacity=".6"/>
                <circle cx="29.701" cy="101" r="2" stroke="#5B45C8" stroke-linejoin="round" stroke-width=".8" opacity=".6"/>
                <circle cx="116.201" cy="23.5" r="2.5" stroke="#70BF47" stroke-linejoin="round" opacity=".6"/>
                <path stroke="#904800" stroke-linejoin="round" d="M6.201 89L8.701 94 3.701 94z" opacity=".6" transform="rotate(45 6.2 91.5)"/>
                <path stroke="#6D6D6D" stroke-linejoin="round" d="M132.201 35L134.701 40 129.701 40z" opacity=".6"/>
            </g>
        </g>
    </g>
</svg>
