<svg xmlns="http://www.w3.org/2000/svg" width="103" height="89" viewBox="0 0 103 89">
    <g fill="none" fill-rule="evenodd" transform="translate(-8)">
        <g fill="#B9B9B9">
            <path d="M99.246 20.22c-.944-.859-3.3-2.691-5.338-1.708-.496.24-.678.678-.62 1.138.051.399.263.823.599 1.186.344.374.814.679 1.372.83 1.068.287 2.474 0 3.987-1.445zm-5.91-2.809c3.496-1.688 7.258 2.365 7.268 2.376l.396.412-.388.42c-2.06 2.234-4.115 2.66-5.698 2.233a4.179 4.179 0 0 1-1.981-1.197c-.506-.548-.828-1.21-.911-1.854-.123-.965.262-1.882 1.314-2.39zM104.349 22.368c.013.01 4.975 3.477 3.31 7.123-.504 1.099-1.531 1.556-2.652 1.505-.748-.034-1.533-.307-2.205-.773a4.222 4.222 0 0 1-1.531-1.897c-.616-1.56-.289-3.659 2.118-5.903l.453-.423.507.368zm1.994 6.63c.97-2.123-1.32-4.348-2.384-5.23-1.543 1.633-1.763 3.069-1.348 4.12.217.548.604.996 1.059 1.312.443.308.946.489 1.408.51.537.024 1.027-.192 1.265-.712z"/>
            <path d="M103.094 20.757c1.187 1.1 1.21 2.997.054 4.236-1.156 1.238-3.056 1.35-4.243.25-1.185-1.1-1.21-2.997-.053-4.235 1.156-1.24 3.056-1.351 4.242-.25M94.634 30.377l1.193.408s.423-1.438.86-2.316L95.51 28s-.604 1.423-.876 2.377zM79 53.142l.95.847s1.027-1.18 1.63-1.786l-.89-.863s-.996 1.075-1.69 1.802zm4.422-4.39l.845.938s1.389-1.256 1.871-1.604l-.77-.954s-.995.802-1.946 1.62zm4.947-3.89l.754.998s1.057-.786 2.023-1.331l-.634-1.06s-1.056.576-2.143 1.393zm5.436-3.224l.573 1.135s1.177-.635 2.218-1.014l-.483-1.15s-1.192.469-2.308 1.029zm5.945-2.225l.302 1.195s1.328-.347 2.354-.423l-.136-1.241s-1.177.075-2.52.469zm6.475-.212l-.348 1.196s1.192.332 1.947 1.029l.83-.939s-.966-.878-2.43-1.286zm3.26 5.07l1.206-.287s.377 1.499.272 2.634l-1.252-.046s.09-1.241-.227-2.3zm-1.329 7.992l1.117.591s.679-1.317.996-2.422l-1.177-.379s-.378 1.226-.936 2.21zm-3.964 4.125l.528 1.128s1.072-.446 2.196-1.544l-.852-.893s-.747.803-1.872 1.31zm-5.347-.477s.74.484 2.113.878L100.7 58s-.95-.106-2.49-1.014l.634-1.075zm-5.388-3.284s.83 1.256 1.66 2.043l.89-.878s-.693-.605-1.478-1.816l-1.072.65zm-1.81-6.206l1.252-.06s.03 1.3.317 2.36l-1.222.258s-.227-.923-.348-2.558zm.135-3.815l1.238.106s.166-1.71.316-2.437l-1.222-.182s-.226 1.333-.332 2.513zm1.057-6.205l1.237.272s.377-1.74.619-2.376l-1.208-.348s-.437 1.437-.648 2.452zM22.91 19.068l.887-.208s.235.99.322 1.873l-.898.073s-.196-1.342-.31-1.738zm1.882 34.143l.3.878s-.92.323-1.854.44l-.148-.904s.917-.103 1.702-.414zm-6.1.264l-.176.916s.89.195 1.866.231l.058-.918s-1.028-.064-1.747-.229zm-4.148-1.511l-.45.797s.852.488 1.71.818l.337-.855s-.744-.289-1.597-.76zm-3.302-2.844l-.736.56s.68.879 1.287 1.412l.623-.668s-.518-.427-1.174-1.304zm-1.655-3.972l-.904.142s.114.898.47 1.86l.856-.306s-.347-1.027-.422-1.696zm.268-4.353l-.88-.233s-.206.724-.332 1.873l.908.093s.065-.822.304-1.733zm2.034-3.844l-.702-.577s-.693.798-1.103 1.555l.78.462s.37-.674 1.025-1.44zm2.725-3.744c-.144.114-.935.72-1.44 1.166l.597.687s.734-.623 1.402-1.126l-.559-.727zm3.679-2.724s-1.147.868-1.454 1.09l.542.733s1.25-.926 1.471-1.105l-.56-.718zm3.195-3.083s-.597.795-1.164 1.314l.643.662s.596-.572 1.256-1.43l-.735-.546zm1.697-3.97l.894.147s-.14 1.046-.473 1.861l-.87-.327s.36-.853.449-1.681zM27.721 12.587c-.81 2.027-3.132 2.96-5.187 2.084-2.054-.876-3.064-3.23-2.255-5.258.81-2.027 3.132-2.96 5.187-2.084 2.054.877 3.064 3.23 2.255 5.258"/>
            <path d="M21.987 8.951c.112-.23.242-.51.372-.828a9.25 9.25 0 0 0 .946 1.75c-.198.395-.403.773-.608 1.127-2.695-1.153-5.564-2.899-5.693-6.101a5 5 0 0 1 .728-2.793c.491-.808 1.195-1.445 1.97-1.794 1.16-.523 2.459-.43 3.504.605.32.316.582.65.794 1-.39.235-.862.583-1.27 1.063a3.363 3.363 0 0 0-.68-.96c-.494-.49-1.112-.531-1.667-.282-.48.216-.928.63-1.253 1.166a3.466 3.466 0 0 0-.505 1.935c.055 1.367.964 2.903 3.362 4.112"/>
            <path d="M24.335 8.022c1.383-.721 4.467-2.645 4.09-5.32-.092-.654-.54-1.03-1.109-1.146-.492-.1-1.075-.029-1.636.204-.576.24-1.12.647-1.513 1.214-.755 1.086-.958 2.779.168 5.048zm5.615-5.53c.536 3.805-3.335 6.214-6.268 7.508-1.384-2.39-2.557-5.336-.788-7.882A4.989 4.989 0 0 1 25.079.366c.846-.352 1.754-.453 2.549-.291 1.19.242 2.128 1.036 2.322 2.417z"/>
        </g>
        <rect width="40" height="68" x="34" y="20" fill="#60379E" fill-opacity=".2" stroke="#B9B9B9" stroke-width="2" rx="3"/>
        <path fill="#F1F1F1" d="M35 22.998c0-1.103.902-1.998 2.003-1.998h33.994c1.106 0 2.003.887 2.003 1.998V29H35v-6.002zM35 79h38v6.002A2.004 2.004 0 0 1 70.997 87H37.003A1.995 1.995 0 0 1 35 85.002V79z"/>
        <path stroke="#B9B9B9" stroke-width="2" d="M34.18 28.881h39.574M34.18 78.881h39.574"/>
        <path fill="#757F7E" d="M46.543 48.5l1.24-1.24a.738.738 0 0 0-1.042-1.044l-1.241 1.24-1.24-1.24a.738.738 0 0 0-1.044 1.043l1.24 1.241-1.24 1.24a.738.738 0 0 0 1.043 1.044l1.241-1.24 1.24 1.24a.736.736 0 0 0 1.044 0 .738.738 0 0 0 0-1.043l-1.24-1.241zM63.543 48.5l1.24-1.24a.738.738 0 0 0-1.042-1.044l-1.241 1.24-1.24-1.24a.738.738 0 0 0-1.044 1.043l1.24 1.241-1.24 1.24a.738.738 0 0 0 1.043 1.044l1.241-1.24 1.24 1.24a.736.736 0 0 0 1.044 0 .738.738 0 0 0 0-1.043l-1.24-1.241zM63.27 63H44.73c-.403 0-.73-.448-.73-1s.327-1 .73-1h18.54c.403 0 .73.448.73 1s-.327 1-.73 1z"/>
        <path fill="#B9B9B9" d="M58.635 25h-9.27c-.202 0-.365-.224-.365-.5s.163-.5.365-.5h9.27c.202 0 .365.224.365.5s-.163.5-.365.5z"/>
    </g>
</svg>
