<svg xmlns="http://www.w3.org/2000/svg" width="143" height="120" viewBox="0 0 143 120">
    <g fill="none" fill-rule="evenodd">
        <g>
            <g>
                <g transform="translate(-136 -388) translate(136 388)">
                    <g>
                        <path fill="#E5E5EB" d="M84.142 108.201c29.12-21.592 46.274-22.431 55.903-45.449C149.675 39.735 122.983 0 76.375 0 29.768 0-4.279 30.553.436 76.832c4.715 46.278 54.585 52.96 83.706 31.369z"/>
                        <path stroke="#8F1538" stroke-linejoin="round" d="M126.144 75.862L131.66 75.863 131.662 81.379 126.146 81.378z" opacity=".6" transform="rotate(45 128.903 78.62)"/>
                        <path stroke="#70BF47" stroke-linejoin="round" stroke-width=".8" d="M8.089 61.791H11.684000000000001V65.37299999999999H8.089z" opacity=".6"/>
                        <ellipse cx="30.557" cy="103.881" stroke="#5B45C8" stroke-linejoin="round" stroke-width=".8" opacity=".6" rx="1.797" ry="1.791"/>
                        <ellipse cx="121.778" cy="22.836" stroke="#70BF47" stroke-linejoin="round" opacity=".6" rx="3.146" ry="3.134"/>
                        <path stroke="#904800" stroke-linejoin="round" d="M6.203 91.725L8.962 97.242 3.446 97.24z" opacity=".6" transform="rotate(45 6.204 94.483)"/>
                        <path stroke="#6D6D6D" stroke-linejoin="round" d="M138.854 34.03L142 40.299 135.709 40.299z" opacity=".6"/>
                    </g>
                    <path stroke="#6D6D6D" stroke-linejoin="round" stroke-width=".8" d="M69.204 6.269L72.798 6.268 72.796 9.85 69.202 9.852z" opacity=".6" transform="rotate(9 71 8.06)"/>
                    <circle cx="40" cy="9" r="2" stroke="#8F1538" stroke-linejoin="round" opacity=".6"/>
                </g>
                <path fill="#E94441" fill-rule="nonzero" stroke="#E5E5EB" stroke-width=".6" d="M64.042 18c9.36 0 18.16 3.645 24.778 10.264 11.67 11.67 13.595 29.789 4.801 43.58h0l17.15 17.15c2.972 2.972 2.972 7.808 0 10.78-1.435 1.436-3.35 2.226-5.39 2.226-2.04 0-3.955-.79-5.39-2.226h0l-17.15-17.15c-5.612 3.577-12.083 5.462-18.8 5.462-9.36 0-18.16-3.645-24.777-10.264C32.644 71.204 29 62.404 29 53.043c0-9.36 3.645-18.16 10.264-24.78C45.882 21.646 54.682 18 64.042 18zm0 3.273c-8.486 0-16.464 3.304-22.464 9.305-12.387 12.387-12.387 32.543 0 44.93 6 6 13.977 9.305 22.463 9.305 6.509 0 12.76-1.95 18.077-5.638.283-.197.609-.292.933-.292.422 0 .84.162 1.157.48h0l18.097 18.097c.817.816 1.91 1.266 3.076 1.266 1.167 0 2.259-.45 3.076-1.266 1.696-1.697 1.696-4.456 0-6.152h0L90.36 73.21c-.56-.56-.639-1.439-.188-2.09 8.75-12.616 7.208-29.666-3.666-40.542-6-6-13.978-9.305-22.464-9.305zm3.839 8.005c.204-.88 1.082-1.428 1.963-1.225 4.67 1.08 8.935 3.449 12.337 6.85 10.002 10.003 10.002 26.278 0 36.28-5.001 5.001-11.57 7.501-18.139 7.502-6.57 0-13.138-2.5-18.14-7.502-10.001-10.002-10.001-26.277 0-36.28 2.871-2.87 6.27-4.966 10.104-6.226.858-.283 1.784.184 2.066 1.043.282.859-.185 1.784-1.043 2.066-3.342 1.1-6.307 2.927-8.812 5.432-8.726 8.726-8.726 22.925 0 31.65 8.726 8.727 22.924 8.727 31.65 0 8.725-8.725 8.725-22.924 0-31.65-2.968-2.968-6.69-5.035-10.76-5.976-.88-.204-1.43-1.083-1.226-1.964zM54.162 43.163c.64-.639 1.676-.639 2.315 0h0l7.565 7.566 7.565-7.566c.64-.639 1.675-.639 2.314 0 .64.64.64 1.676 0 2.315h0l-7.565 7.565 7.565 7.566c.64.638.64 1.675 0 2.314-.32.32-.738.48-1.157.48-.419 0-.838-.16-1.158-.48h0l-7.565-7.565-7.564 7.565c-.32.32-.739.48-1.158.48-.418 0-.837-.16-1.157-.48-.638-.64-.638-1.676 0-2.314h0l7.565-7.566-7.565-7.565c-.638-.64-.638-1.676 0-2.315zm8.795-15.749c.901 0 1.636.735 1.636 1.636 0 .902-.735 1.637-1.636 1.637-.902 0-1.637-.735-1.637-1.637 0-.9.735-1.636 1.637-1.636z" transform="translate(-136 -388) translate(136 388)"/>
            </g>
        </g>
    </g>
</svg>
