<svg xmlns="http://www.w3.org/2000/svg" width="143" height="120" viewBox="0 0 143 120">
    <g fill="none" fill-rule="evenodd">
        <g>
            <g>
                <g transform="translate(-137 -358) translate(137 358)">
                    <path fill="#E5E5EB" fill-rule="nonzero" d="M84.142 108.201c29.12-21.592 46.274-22.431 55.903-45.449C149.675 39.735 122.983 0 76.375 0 29.768 0-4.279 30.553.436 76.832c4.715 46.278 54.585 52.96 83.706 31.369z"/>
                    <path stroke="#8F1538" stroke-linejoin="round" d="M126.144 75.862L131.66 75.863 131.662 81.379 126.146 81.378z" opacity=".6" transform="rotate(45 128.903 78.62)"/>
                    <path stroke="#70BF47" stroke-linejoin="round" stroke-width=".8" d="M8.089 61.791L11.684 61.791 11.684 65.373 8.089 65.373z" opacity=".6"/>
                    <ellipse cx="30.557" cy="103.881" stroke="#5B45C8" stroke-linejoin="round" stroke-width=".8" opacity=".6" rx="1.797" ry="1.791"/>
                    <ellipse cx="121.778" cy="22.836" stroke="#70BF47" stroke-linejoin="round" opacity=".6" rx="3.146" ry="3.134"/>
                    <path stroke="#904800" stroke-linejoin="round" d="M6.203 91.725L8.962 97.242 3.446 97.24z" opacity=".6" transform="rotate(45 6.204 94.483)"/>
                    <path stroke="#6D6D6D" stroke-linejoin="round" d="M138.854 34.03L142 40.299 135.709 40.299z" opacity=".6"/>
                    <path stroke="#6D6D6D" stroke-linejoin="round" stroke-width=".8" d="M69.204 6.269L72.798 6.268 72.796 9.85 69.202 9.852z" opacity=".6" transform="rotate(9 71 8.06)"/>
                    <circle cx="40" cy="9" r="2" stroke="#8F1538" stroke-linejoin="round" opacity=".6"/>
                </g>
                <g fill="#E94441" fill-rule="nonzero" stroke="#E5E5EB" stroke-width=".5">
                    <path d="M.52 42.715c.694-.694 1.82-.694 2.513 0h0l4.518 4.518 4.517-4.518c.694-.693 1.82-.693 2.513 0 .694.694.694 1.82 0 2.513h0l-4.518 4.518 4.518 4.517c.45.449.626 1.104.462 1.717-.164.614-.644 1.093-1.258 1.258-.613.164-1.268-.012-1.717-.462h0l-4.517-4.518-4.518 4.518c-.694.694-1.819.694-2.513 0-.693-.694-.693-1.819 0-2.513h0l4.518-4.517L.52 45.228c-.693-.694-.693-1.819 0-2.513zm55.888 9.251c.98.002 1.774.797 1.774 1.777 0 .98-.794 1.775-1.774 1.777h0-31.09c-.636 0-1.224-.338-1.542-.888-.318-.55-.318-1.228 0-1.778s.906-.889 1.541-.888h0zm10.216-7.994c.635-.001 1.223.337 1.54.887.319.55.319 1.228 0 1.778-.317.55-.905.889-1.54.888h0-41.307c-.635 0-1.223-.338-1.54-.888-.319-.55-.319-1.228 0-1.778.317-.55.905-.888 1.54-.887h0zm-54.556-23.02c.694-.694 1.82-.694 2.513 0 .694.694.694 1.818 0 2.512h0l-4.518 4.518 4.518 4.518c.693.694.692 1.818-.001 2.51-.694.694-1.817.695-2.512.002h0l-4.517-4.517-4.518 4.517c-.694.694-1.819.694-2.513 0-.693-.693-.693-1.818 0-2.512h0l4.518-4.518L.52 23.464c-.69-.694-.69-1.817.003-2.51.693-.692 1.816-.694 2.51-.002h0l4.518 4.517zm44.34 9.25c.981 0 1.777.796 1.777 1.777 0 .982-.796 1.777-1.777 1.777h0-31.09c-.982 0-1.778-.795-1.778-1.777 0-.98.796-1.776 1.777-1.776h0zm10.216-7.994c.635-.001 1.223.337 1.54.887.319.55.319 1.229 0 1.779-.317.55-.905.888-1.54.887h0-41.307c-.635.001-1.223-.337-1.54-.887-.319-.55-.319-1.228 0-1.779.317-.55.905-.888 1.54-.887h0zM12.068.52c.694-.693 1.82-.693 2.513 0 .694.694.694 1.82 0 2.513h0l-4.518 4.518 4.518 4.517c.45.45.626 1.104.462 1.717-.164.614-.644 1.094-1.258 1.258-.613.164-1.268-.012-1.717-.462h0l-4.517-4.518-4.518 4.518c-.694.694-1.819.694-2.513 0-.693-.694-.693-1.819 0-2.513h0l4.518-4.517L.52 3.033C-.173 2.34-.173 1.214.52.52c.694-.693 1.82-.693 2.513 0h0l4.518 4.518zm44.34 9.252c.98.001 1.774.796 1.774 1.776s-.794 1.775-1.774 1.777h0-31.09c-.636 0-1.224-.338-1.542-.888-.318-.55-.318-1.228 0-1.778s.906-.888 1.541-.887h0zm10.216-7.995c.635-.001 1.223.337 1.54.887.319.55.319 1.228 0 1.778-.317.55-.905.889-1.54.888h0-41.307c-.635.001-1.223-.337-1.54-.888-.319-.55-.319-1.228 0-1.778.317-.55.905-.888 1.54-.887h0z" transform="translate(-137 -358) translate(137 358) translate(37 31)"/>
                </g>
            </g>
        </g>
    </g>
</svg>
