<?xml version="1.0" encoding="utf-8"?>
<!-- Generator: Adobe Illustrator 23.0.3, SVG Export Plug-In . SVG Version: 6.00 Build 0)  -->
<svg version="1.1" id="Layer_1" xmlns="http://www.w3.org/2000/svg" xmlns:xlink="http://www.w3.org/1999/xlink" x="0px" y="0px"
	 viewBox="0 0 216.9 938.59" style="enable-background:new 0 0 216.9 938.59;" xml:space="preserve">
<style type="text/css">
	.st0{fill:#FF9600;}
	.st1{fill:#1127B4;}
	.st2{fill:none;}
	.st3{fill:#1127B4;stroke:#1127B4;stroke-width:0.5;stroke-miterlimit:10;}
	.st4{clip-path:url(#SVGID_2_);fill:#1127B4;}
	.st5{clip-path:url(#SVGID_4_);fill:#1127B4;}
	.st6{clip-path:url(#SVGID_6_);fill:#1127B4;}
	.st7{clip-path:url(#SVGID_8_);fill:#1127B4;}
	.st8{fill:#6D6D6D;}
	.st9{clip-path:url(#SVGID_10_);fill:#1127B4;}
	.st10{clip-path:url(#SVGID_12_);fill:#1127B4;}
	.st11{clip-path:url(#SVGID_14_);fill:#1127B4;}
</style>
<path class="st0" d="M96.38,898.71c0,0,3.5,3.35,8.09,0.29v1.94l-2.18,2.27l-2.35,0.44l-3.56-2.18l-0.61-2.76H96.38z"/>
<polygon class="st0" points="110.53,838.65 114.82,828.82 114.82,841.24 112.53,845.24 "/>
<polygon class="st0" points="88.24,820.97 88.24,818.94 91.15,817.62 99.44,817.62 103.94,817.62 93.88,822.29 "/>
<rect x="92.56" y="769.18" class="st0" width="4.72" height="3.53"/>
<rect x="108.79" y="769.18" class="st0" width="4.72" height="3.53"/>
<rect x="89.03" y="764.6" class="st0" width="28.35" height="3.75"/>
<ellipse class="st0" cx="100.31" cy="697.96" rx="2.99" ry="2.64"/>
<ellipse class="st0" cx="116.81" cy="697.96" rx="2.99" ry="2.64"/>
<rect x="88.5" y="625.32" class="st0" width="5.14" height="2.97"/>
<rect x="102.13" y="625.32" class="st0" width="5.14" height="2.97"/>
<rect x="115.76" y="625.32" class="st0" width="5.14" height="2.97"/>
<polygon class="st0" points="121.86,556.96 108.55,557.18 108.76,552.29 121.79,552.29 "/>
<polyline class="st0" points="87.24,534.41 91,536.94 95.1,535.68 98.29,533.94 101.65,534.47 103.94,535.76 103.94,537.88 
	101.59,542.88 98.47,544.94 92.76,544.94 87.71,538.94 87.24,534.71 "/>
<path class="st0" d="M88.11,399.06c0,0,14.25,12.06,32.86,0c0,0-8.32,12.21-16.26,14.03C104.71,413.09,90.94,403.7,88.11,399.06z"/>
<rect x="18.12" y="394.06" class="st0" width="4.41" height="13.08"/>
<rect x="30.14" y="394.06" class="st0" width="4.41" height="13.08"/>
<rect x="42.93" y="394.06" class="st0" width="4.41" height="13.08"/>
<polygon class="st0" points="115.64,342 92.76,342 91.68,333.04 118.01,333.04 "/>
<rect x="118.41" y="246.12" class="st0" width="3" height="3.63"/>
<rect x="94.89" y="239.25" class="st0" width="14.29" height="8.25"/>
<path class="st0" d="M110.08,192.93l-10.16-0.38c0,0-4.72-3.85-3.6-3.66c10.88,1.93,18-0.18,18-0.18L110.08,192.93z"/>
<rect x="91.32" y="189" class="st0" width="2.56" height="7.86"/>
<rect x="119.38" y="189" class="st0" width="2.56" height="7.86"/>
<path class="st0" d="M40.82,189c0,0-7.4,3.71-16.23,0v8.29l16.23,0.39V189z"/>
<rect x="92.46" y="122.47" class="st0" width="25.54" height="3.38"/>
<path class="st0" d="M49.21,116.96c0,0-11.5,5.3-33,5.29v2.25l29.68,1.47l3.32-1.97V116.96z"/>
<polygon class="st0" points="114.33,53.49 96.18,53.49 93.38,45.04 116.06,45.04 "/>
<g>
	<rect x="18.98" y="338.12" class="st0" width="25.54" height="3.38"/>
	<polygon class="st0" points="16.1,333.04 23.41,340.49 15.71,340.49 	"/>
	<polygon class="st0" points="47.7,333.04 40.39,340.49 48.1,340.49 	"/>
</g>
<path class="st1" d="M50.61,322.71h-1.74v-7.92c0-1.9-1.56-3.44-3.48-3.44h-2.36l-2.41-4.29c-0.37-0.66-1.07-1.06-1.83-1.06
	c-0.35,0-0.7,0.09-1.01,0.26l-9.26,5.09H18.19c-1.92,0-3.48,1.54-3.48,3.44v23.63c0,1.9,1.56,3.44,3.48,3.44h27.2
	c1.92,0,3.48-1.54,3.48-3.44v-6.94h1.74V322.71z M45.39,312.73c1.07,0,1.95,0.81,2.06,1.84h-2.62l-1.03-1.84H45.39z M38.46,307.47
	c0.33-0.18,0.77-0.05,0.95,0.27l3.84,6.83h-17.7L38.46,307.47z M47.48,338.43c0,1.14-0.94,2.06-2.09,2.06h-27.2
	c-1.15,0-2.09-0.93-2.09-2.06v-23.63c0-1.14,0.94-2.07,2.09-2.07h7.84l-3.34,1.84h-4.06c-0.38,0-0.7,0.31-0.7,0.69
	s0.31,0.69,0.7,0.69h28.85v6.77h-5.09c-2.36,0-4.29,1.9-4.29,4.24v0.3c0,2.34,1.92,4.24,4.29,4.24h5.09V338.43z M49.22,330.11h-6.83
	c-1.6,0-2.9-1.28-2.9-2.86v-0.3c0-1.58,1.3-2.86,2.9-2.86h6.83V330.11z M44.52,327.16"/>
<rect x="14.71" y="306.01" class="st2" width="36" height="35.99"/>
<path class="st8" d="M195.35,106.71h-1.74v-7.92c0-1.9-1.56-3.44-3.48-3.44h-2.36l-2.41-4.29c-0.37-0.66-1.07-1.06-1.83-1.06
	c-0.35,0-0.7,0.09-1.01,0.26l-9.26,5.09h-10.34c-1.92,0-3.48,1.54-3.48,3.44v23.63c0,1.9,1.56,3.44,3.48,3.44h27.2
	c1.92,0,3.48-1.54,3.48-3.44v-6.94h1.74V106.71z M190.13,96.73c1.07,0,1.95,0.81,2.06,1.84h-2.62l-1.03-1.84H190.13z M183.2,91.47
	c0.33-0.18,0.77-0.05,0.95,0.27l3.84,6.83h-17.7L183.2,91.47z M192.21,122.43c0,1.14-0.94,2.06-2.09,2.06h-27.2
	c-1.15,0-2.09-0.93-2.09-2.06V98.79c0-1.14,0.94-2.07,2.09-2.07h7.84l-3.34,1.84h-4.06c-0.38,0-0.7,0.31-0.7,0.69
	s0.31,0.69,0.7,0.69h28.85v6.77h-5.09c-2.36,0-4.29,1.9-4.29,4.24v0.3c0,2.34,1.92,4.24,4.29,4.24h5.09V122.43z M193.95,114.11
	h-6.83c-1.6,0-2.9-1.28-2.9-2.86v-0.3c0-1.58,1.3-2.86,2.9-2.86h6.83V114.11z M189.26,111.16"/>
<path class="st8" d="M195.35,178.84h-1.74v-7.92c0-1.9-1.56-3.44-3.48-3.44h-2.36l-2.41-4.29c-0.37-0.66-1.07-1.06-1.83-1.06
	c-0.35,0-0.7,0.09-1.01,0.26l-9.26,5.09h-10.34c-1.92,0-3.48,1.54-3.48,3.44v23.63c0,1.9,1.56,3.44,3.48,3.44h27.2
	c1.92,0,3.48-1.54,3.48-3.44v-6.94h1.74V178.84z M190.13,168.86c1.07,0,1.95,0.81,2.06,1.84h-2.62l-1.03-1.84H190.13z M183.2,163.6
	c0.33-0.18,0.77-0.05,0.95,0.27l3.84,6.83h-17.7L183.2,163.6z M192.21,194.56c0,1.14-0.94,2.06-2.09,2.06h-27.2
	c-1.15,0-2.09-0.93-2.09-2.06v-23.63c0-1.14,0.94-2.07,2.09-2.07h7.84l-3.34,1.84h-4.06c-0.38,0-0.7,0.31-0.7,0.69
	s0.31,0.69,0.7,0.69h28.85v6.77h-5.09c-2.36,0-4.29,1.9-4.29,4.24v0.3c0,2.34,1.92,4.24,4.29,4.24h5.09V194.56z M193.95,186.24
	h-6.83c-1.6,0-2.9-1.28-2.9-2.86v-0.3c0-1.58,1.3-2.86,2.9-2.86h6.83V186.24z M189.26,183.29"/>
<path class="st8" d="M50.71,34.71h-1.74v-7.92c0-1.9-1.56-3.44-3.48-3.44h-2.36l-2.41-4.29C40.35,18.41,39.65,18,38.89,18
	c-0.35,0-0.7,0.09-1.01,0.26l-9.26,5.09H18.29c-1.92,0-3.48,1.54-3.48,3.44v23.63c0,1.9,1.56,3.44,3.48,3.44h27.2
	c1.92,0,3.48-1.54,3.48-3.44v-6.94h1.74V34.71z M45.49,24.73c1.07,0,1.95,0.81,2.06,1.84h-2.62l-1.03-1.84H45.49z M38.56,19.46
	c0.33-0.18,0.77-0.05,0.95,0.27l3.84,6.83h-17.7L38.56,19.46z M47.57,50.43c0,1.14-0.94,2.06-2.09,2.06h-27.2
	c-1.15,0-2.09-0.93-2.09-2.06V26.79c0-1.14,0.94-2.07,2.09-2.07h7.84l-3.34,1.84h-4.06c-0.38,0-0.7,0.31-0.7,0.69
	s0.31,0.69,0.7,0.69h28.85v6.77h-5.09c-2.36,0-4.29,1.9-4.29,4.24v0.3c0,2.34,1.92,4.24,4.29,4.24h5.09V50.43z M49.31,42.11h-6.83
	c-1.6,0-2.9-1.28-2.9-2.86v-0.3c0-1.58,1.3-2.86,2.9-2.86h6.83V42.11z M44.62,39.15"/>
<rect x="159.45" y="90.01" class="st2" width="36" height="35.99"/>
<g>
	<path class="st1" d="M119.39,28.57c-0.12-0.72-0.56-1.35-1.2-1.71c-0.38-0.22-0.8-0.33-1.24-0.32c-0.29-1.08-1.28-1.82-2.39-1.8
		c-0.22-0.86-0.91-1.53-1.78-1.74c-0.2-0.87-0.87-1.56-1.74-1.78c0.01-0.34-0.05-0.67-0.19-0.98c-0.35-0.82-1.11-1.39-2-1.48
		c-0.47-0.04-0.93,0.06-1.34,0.28c-0.82-1.03-2.33-1.19-3.35-0.36c-0.11,0.09-0.21,0.18-0.3,0.29c-0.87-0.99-2.38-1.09-3.37-0.22
		c-0.04,0.04-0.08,0.07-0.12,0.11c-0.41-0.13-0.84-0.14-1.26-0.04c-0.92,0.23-1.62,0.97-1.8,1.89c-0.08,0.43-0.04,0.87,0.12,1.28
		c-0.24,0.12-0.46,0.27-0.65,0.46c-0.48-0.15-1-0.15-1.48,0.02c-0.69,0.24-1.23,0.78-1.48,1.46c-0.13,0.36-0.17,0.74-0.12,1.12
		c-0.56,0.32-0.98,0.85-1.14,1.48c-0.44-0.02-0.87,0.1-1.24,0.32c-0.64,0.36-1.08,0.99-1.21,1.71c-0.09,0.61,0.06,1.24,0.42,1.74
		c-0.56,0.79-0.76,1.78-0.54,2.73l5.31,20.97h18.89l5.21-20.91c0.24-0.94,0.07-1.93-0.48-2.73
		C119.32,29.86,119.49,29.21,119.39,28.57z M91.92,27.9c0.29-0.18,0.65-0.22,0.97-0.09c0.31,0.11,0.65-0.05,0.77-0.36
		c0.03-0.08,0.04-0.16,0.03-0.24c0-0.01-0.01-0.06-0.01-0.08c0-0.54,0.37-1.01,0.89-1.15c0.32-0.09,0.51-0.42,0.42-0.73
		c-0.01-0.02-0.01-0.04-0.02-0.07c-0.11-0.27-0.12-0.57-0.02-0.85c0.12-0.34,0.4-0.61,0.74-0.73c0.32-0.11,0.68-0.08,0.97,0.09
		c0.28,0.16,0.63,0.07,0.8-0.2c0.2-0.32,0.55-0.53,0.93-0.55c0.33-0.02,0.58-0.31,0.56-0.64c-0.01-0.14-0.06-0.26-0.16-0.36
		c-0.26-0.27-0.37-0.66-0.3-1.03c0.09-0.46,0.45-0.83,0.9-0.94c0.29-0.07,0.6-0.03,0.86,0.13c0.28,0.16,0.63,0.07,0.8-0.2
		c0.36-0.56,1.1-0.72,1.65-0.36c0.34,0.22,0.55,0.59,0.55,1c0,0.33,0.27,0.6,0.6,0.6s0.6-0.27,0.6-0.6c0-0.66,0.53-1.19,1.19-1.19
		c0.5,0,0.95,0.31,1.12,0.79c0.07,0.2,0.24,0.34,0.44,0.38c0.2,0.04,0.42-0.03,0.56-0.18c0.25-0.27,0.61-0.41,0.98-0.38
		c0.45,0.06,0.83,0.35,1,0.77c0.12,0.26,0.12,0.56,0.01,0.83c-0.11,0.31,0.05,0.65,0.36,0.77c0.07,0.02,0.13,0.04,0.2,0.04
		c0.03,0,0.09-0.01,0.11-0.01c0.66,0,1.2,0.54,1.2,1.2c0,0.33,0.27,0.6,0.6,0.6c0.65,0,1.19,0.53,1.2,1.18
		c0,0.01-0.01,0.08-0.01,0.09c-0.02,0.33,0.23,0.61,0.56,0.63c0.08,0,0.16-0.01,0.24-0.03c0.13-0.05,0.27-0.08,0.41-0.08
		c0.65,0,1.19,0.53,1.2,1.18c0,0.01-0.01,0.08-0.01,0.09c-0.02,0.33,0.23,0.61,0.56,0.63c0.08,0,0.16-0.01,0.24-0.03
		c0.32-0.13,0.68-0.1,0.97,0.09c0.32,0.17,0.55,0.49,0.62,0.85c0.04,0.26-0.01,0.52-0.13,0.75l-0.01-0.01
		c-0.12-0.09-0.25-0.16-0.39-0.23c-0.03-0.02-0.06-0.03-0.1-0.05c-0.13-0.06-0.26-0.11-0.39-0.16c-0.01,0-0.02-0.01-0.03-0.01
		c-0.15-0.04-0.29-0.08-0.45-0.1c-0.04-0.01-0.07-0.01-0.11-0.02c-0.15-0.02-0.31-0.03-0.46-0.04c-1.13,0-2.19,0.57-2.81,1.51
		l-0.01,0.01l-0.01-0.01l0,0c-0.63-0.94-1.68-1.51-2.82-1.51h-0.09c-1.12,0-2.16,0.56-2.79,1.48c-0.63-0.93-1.67-1.48-2.79-1.48
		h-0.19c-1.12,0-2.16,0.55-2.79,1.48c-0.63-0.92-1.67-1.48-2.79-1.48h-0.1c-1.13,0-2.19,0.57-2.81,1.51
		c-0.75-1.13-2.1-1.7-3.43-1.45c-0.06,0.01-0.11,0.03-0.17,0.04c-0.14,0.03-0.28,0.08-0.42,0.13c-0.06,0.02-0.11,0.04-0.17,0.06
		c-0.17,0.07-0.33,0.16-0.49,0.26c-0.01,0.01-0.03,0.01-0.04,0.02l-0.01,0c-0.11-0.22-0.15-0.47-0.11-0.71
		C91.37,28.39,91.6,28.08,91.92,27.9z M112.64,32.61l-0.78,5.25h-3.93l0.28-5.7c0.02-0.39,0.15-0.77,0.37-1.1l0,0
		c0.4-0.61,1.08-0.98,1.81-0.98h0.09c0.73,0,1.42,0.37,1.82,0.98l0,0C112.61,31.51,112.73,32.07,112.64,32.61z M102.44,32.3
		c-0.02-1.21,0.95-2.2,2.16-2.22c0.01,0,0.02,0,0.03,0h0.19c0.73,0,1.41,0.37,1.82,0.98l0,0c0.26,0.39,0.39,0.85,0.37,1.32
		l-0.28,5.48h-3.99l-0.29-5.53l0,0L102.44,32.3z M97.12,31.06c0.4-0.61,1.09-0.98,1.82-0.98h0.1c1.19,0.01,2.16,0.96,2.19,2.15
		l0,0.07v0.02l0.29,5.54H97.6l-0.84-5.51C96.75,31.89,96.87,31.44,97.12,31.06L97.12,31.06z M96.24,52.82l-5.08-20.06
		c-0.27-1.18,0.47-2.36,1.66-2.63c0.89-0.2,1.81,0.17,2.32,0.93l0,0c0.19,0.28,0.31,0.61,0.36,0.94l0.07,0.46
		c0,0.08,0.01,0.16,0.02,0.25l0.79,5.14l0,0v8.38h1.29l0.13,0.84l0.88,5.74H96.24z M99.88,52.82l-0.61-4.02l-0.39-2.56h3.1
		l0.35,6.58H99.88z M105.98,52.82h-2.45l-0.35-6.58h3.13L105.98,52.82z M109.62,52.82h-2.45l0.33-6.58h3.1L109.62,52.82z
		 M107.57,45.04h-9.99v-5.98h14.36v5.98H107.57z M118.24,32.82l-4.98,20h-2.43l0.98-6.58h1.31v-8.38l0,0l0.83-5.92
		c0.19-1.19,1.31-2.01,2.5-1.82c1.19,0.19,2.01,1.31,1.82,2.5C118.27,32.68,118.26,32.75,118.24,32.82L118.24,32.82z"/>
	<path class="st1" d="M93.38,22.3c0-0.31-0.06-0.61-0.18-0.9c0.12-0.28,0.18-0.59,0.18-0.9c0-1.32-1.06-2.39-2.38-2.39
		c-0.74,0-1.44,0.34-1.89,0.92c-1.32,0.01-2.38,1.09-2.37,2.41s1.09,2.38,2.41,2.37c0.84,1.02,2.34,1.17,3.36,0.33
		C93.07,23.7,93.39,23.02,93.38,22.3z M89.96,22.9l-0.24-0.34l-0.4,0.06c-0.04,0.01-0.08,0.01-0.12,0.01c-0.66,0-1.2-0.54-1.2-1.2
		s0.54-1.2,1.2-1.2c0.05,0,0.1,0.01,0.15,0.02l0.41,0.05l0.2-0.36c0.31-0.58,1.03-0.8,1.61-0.49c0.39,0.21,0.63,0.61,0.63,1.06
		c0,0.21-0.06,0.42-0.17,0.6l-0.18,0.3l0.18,0.3c0.11,0.18,0.17,0.39,0.17,0.6c0,0.66-0.54,1.2-1.2,1.2
		C90.57,23.5,90.17,23.27,89.96,22.9z"/>
	<path class="st1" d="M122.71,21.7c0-1.32-1.06-2.39-2.38-2.39c-0.74,0-1.44,0.34-1.89,0.92c-1.32,0.01-2.38,1.09-2.37,2.41
		s1.09,2.38,2.41,2.37c0.84,1.02,2.34,1.17,3.36,0.33c0.56-0.46,0.88-1.14,0.87-1.85c0-0.31-0.06-0.61-0.18-0.9
		C122.64,22.32,122.71,22.01,122.71,21.7z M121.34,22.9c0.11,0.18,0.17,0.39,0.17,0.6c0,0.66-0.54,1.2-1.2,1.2
		c-0.43,0-0.82-0.23-1.03-0.6l-0.24-0.34l-0.4,0.06c-0.04,0.01-0.08,0.01-0.12,0.01c-0.66,0-1.2-0.54-1.2-1.2s0.54-1.2,1.2-1.2
		c0.05,0,0.1,0.01,0.15,0.02l0.41,0.05l0.2-0.36c0.31-0.58,1.03-0.8,1.61-0.49c0.39,0.21,0.63,0.61,0.63,1.06
		c0,0.21-0.06,0.42-0.17,0.6l-0.18,0.3L121.34,22.9z"/>
</g>
<path class="st8" d="M194.07,20.43h-4.48v-1.8c0-0.33-0.28-0.6-0.64-0.6h-4.48c-0.35,0-0.64,0.27-0.64,0.6v1.8h-14.06v-1.8
	c0-0.33-0.29-0.6-0.64-0.6h-4.48c-0.35,0-0.64,0.27-0.64,0.6v1.8h-4.47c-0.35,0-0.64,0.27-0.64,0.6v32.34c0,0.33,0.29,0.6,0.64,0.6
	h34.52c0.35,0,0.64-0.27,0.64-0.6V21.03C194.71,20.7,194.42,20.43,194.07,20.43L194.07,20.43z M185.12,19.23h3.2v3.59h-3.2V19.23z
	 M165.3,19.23h3.2v3.59h-3.2V19.23z M160.19,21.63h3.83v1.8c0,0.33,0.29,0.6,0.64,0.6h4.48c0.35,0,0.64-0.27,0.64-0.6v-1.8h14.06
	v1.8c0,0.33,0.29,0.6,0.64,0.6h4.48c0.35,0,0.64-0.27,0.64-0.6v-1.8h3.84v5.39h-33.24V21.63z M160.19,52.77V28.22h33.24v24.55
	H160.19z M160.19,52.77"/>
<path class="st8" d="M181.92,30.01h-17.26v17.97h24.3V30.01H181.92z M177.44,31.25h4.48v4.34h-4.48V31.25z M181.92,41.16h-4.48
	v-4.34h4.48V41.16z M171.69,36.83h4.48v4.34h-4.48V36.83z M171.69,31.25h4.48v4.34h-4.48V31.25z M165.94,31.25h4.47v4.34h-4.47
	V31.25z M165.94,36.83h4.47v4.34h-4.47V36.83z M170.41,46.74h-4.47V42.4h4.47V46.74z M176.17,46.74h-4.48V42.4h4.48V46.74z
	 M181.92,46.74h-4.48V42.4h4.48V46.74z M187.67,46.74h-4.48V42.4h4.48V46.74z M187.67,41.16h-4.48v-4.34h4.48V41.16z M187.67,31.25
	v4.34h-4.48v-4.34H187.67z M187.67,31.25"/>
<g>
	<path class="st1" d="M46.96,126h-28.5c-2.07,0-3.75-1.68-3.75-3.75v-16.5c0-2.07,1.68-3.75,3.75-3.75h28.5
		c2.07,0,3.75,1.68,3.75,3.75v16.5C50.71,124.32,49.02,126,46.96,126z M18.46,103.5c-1.24,0-2.25,1.01-2.25,2.25v16.5
		c0,1.24,1.01,2.25,2.25,2.25h28.5c1.24,0,2.25-1.01,2.25-2.25v-16.5c0-1.24-1.01-2.25-2.25-2.25H18.46z"/>
	<path class="st1" d="M49.96,108h-34.5c-0.41,0-0.75-0.08-0.75-0.19v-1.13c0-0.1,0.34-0.19,0.75-0.19h34.5
		c0.41,0,0.75,0.08,0.75,0.19v1.13C50.71,107.92,50.37,108,49.96,108z"/>
	<path class="st1" d="M25.96,113.96h-6c-0.41,0-0.75-0.34-0.75-0.75c0-0.41,0.34-0.75,0.75-0.75h6c0.41,0,0.75,0.34,0.75,0.75
		C26.71,113.63,26.37,113.96,25.96,113.96z"/>
	<path class="st1" d="M30.46,116.96h-10.5c-0.41,0-0.75-0.34-0.75-0.75c0-0.41,0.34-0.75,0.75-0.75h10.5c0.41,0,0.75,0.34,0.75,0.75
		C31.21,116.63,30.87,116.96,30.46,116.96z"/>
</g>
<path class="st1" d="M122.07,92.4h-4.48v-1.8c0-0.33-0.28-0.6-0.64-0.6h-4.48c-0.35,0-0.64,0.27-0.64,0.6v1.8H97.75v-1.8
	c0-0.33-0.29-0.6-0.64-0.6h-4.48c-0.35,0-0.64,0.27-0.64,0.6v1.8h-4.48c-0.35,0-0.64,0.27-0.64,0.6v32.37c0,0.33,0.29,0.6,0.64,0.6
	h34.55c0.35,0,0.64-0.27,0.64-0.6V93C122.71,92.67,122.42,92.4,122.07,92.4L122.07,92.4z M113.11,91.2h3.2v3.59h-3.2V91.2z
	 M93.27,91.2h3.2v3.59h-3.2V91.2z M88.15,93.6h3.84v1.8c0,0.33,0.29,0.6,0.64,0.6h4.48c0.35,0,0.64-0.27,0.64-0.6v-1.8h14.08v1.8
	c0,0.33,0.29,0.6,0.64,0.6h4.48c0.35,0,0.64-0.27,0.64-0.6v-1.8h3.84v5.39H88.15V93.6z M88.15,124.77v-24.57h33.27v24.57H88.15z
	 M88.15,124.77"/>
<g>
	<path class="st1" d="M110.45,103.05c0-0.28-0.23-0.51-0.51-0.51H99.23c-0.28,0-0.51,0.23-0.51,0.51c0,0.28,0.23,0.51,0.51,0.51
		h3.07c2.08,0,3.81,1.57,4.05,3.54h-7.12c-0.28,0-0.51,0.23-0.51,0.51s0.23,0.51,0.51,0.51h7.12c-0.25,2.05-1.99,3.59-4.05,3.59
		h-3.06c-0.28,0.01-0.51,0.24-0.51,0.52c0,0.14,0.06,0.27,0.16,0.36l7.66,7.24c0.2,0.19,0.52,0.18,0.71-0.02l0,0
		c0.19-0.21,0.18-0.53-0.02-0.72l-6.74-6.37h1.79c2.64,0,4.82-2.02,5.08-4.61h2.57c0.28,0,0.51-0.23,0.51-0.51s-0.23-0.51-0.51-0.51
		h-2.57c-0.15-1.42-0.91-2.73-2.03-3.54h4.6C110.22,103.56,110.45,103.33,110.45,103.05L110.45,103.05z"/>
</g>
<g>
	<g>
		<g>
			<path class="st1" d="M39.94,162H25.47c-0.98,0-1.77,1.02-1.77,2.28v31.44c0,1.26,0.79,2.28,1.77,2.28h14.46
				c0.98,0,1.77-1.02,1.77-2.28v-31.44C41.71,163.02,40.91,162,39.94,162L39.94,162z M24.59,167.73h16.23V189H24.59V167.73z
				 M25.47,163.14h14.46c0.49,0,0.88,0.51,0.88,1.14v2.69H24.59v-2.69C24.59,163.65,24.99,163.14,25.47,163.14L25.47,163.14z
				 M39.94,196.86H25.47c-0.49,0-0.88-0.51-0.88-1.14V189h16.23v6.72C40.82,196.35,40.42,196.86,39.94,196.86L39.94,196.86z
				 M39.94,196.86"/>
		</g>
		<path class="st1" d="M30.7,165.63h4.02c0.16,0,0.3-0.17,0.3-0.38c0-0.21-0.13-0.38-0.3-0.38H30.7c-0.16,0-0.3,0.17-0.3,0.38
			C30.4,165.46,30.53,165.63,30.7,165.63L30.7,165.63z M30.7,165.63"/>
		<path class="st1" d="M29.63,165.63c0.08,0,0.15-0.04,0.21-0.11c0.06-0.07,0.09-0.17,0.09-0.27c0-0.1-0.03-0.2-0.09-0.27
			c-0.05-0.07-0.13-0.11-0.21-0.11c-0.08,0-0.15,0.04-0.21,0.11c-0.06,0.07-0.09,0.17-0.09,0.27c0,0.1,0.03,0.2,0.09,0.27
			C29.48,165.59,29.55,165.63,29.63,165.63L29.63,165.63z M29.63,165.63"/>
	</g>
	<g>
		<path class="st1" d="M35.73,175.76c0-0.14-0.12-0.26-0.26-0.26h-5.53c-0.14,0-0.26,0.12-0.26,0.26c0,0.14,0.12,0.26,0.26,0.26
			h1.58c1.08,0,1.97,0.81,2.09,1.83h-3.68c-0.14,0-0.26,0.12-0.26,0.26c0,0.14,0.12,0.26,0.26,0.26h3.68
			c-0.13,1.06-1.03,1.85-2.09,1.86h-1.58c-0.15,0-0.26,0.12-0.26,0.27c0,0.07,0.03,0.14,0.08,0.19l3.95,3.74
			c0.1,0.1,0.27,0.09,0.37-0.01l0,0c0.1-0.11,0.09-0.27-0.01-0.37l-3.48-3.29h0.93c1.36,0,2.49-1.05,2.62-2.38h1.33
			c0.14,0,0.26-0.12,0.26-0.26c0-0.14-0.12-0.26-0.26-0.26h-1.33c-0.08-0.73-0.47-1.41-1.05-1.83h2.38
			C35.62,176.02,35.73,175.91,35.73,175.76L35.73,175.76z"/>
	</g>
</g>
<circle class="st1" cx="32.72" cy="193.95" r="0.95"/>
<g>
	<path class="st0" d="M33.76,268.15c0,1.02-0.83,1.85-1.85,1.85c-1.02,0-1.84-0.83-1.84-1.85s0.83-1.84,1.84-1.84
		C32.93,266.31,33.76,267.13,33.76,268.15L33.76,268.15z M33.76,268.15"/>
	<path class="st1" d="M31.5,234c-5.79,0-9.38,3.6-9.38,9.38c0,0.51,0.41,0.92,0.92,0.92c0.51,0,0.92-0.41,0.92-0.92
		c0-4.79,2.75-7.53,7.54-7.53c7.27,0,8.36,5.23,8.36,8.36c0,3.03-2.5,6.49-5.8,8.04c-3.75,1.75-3.09,7.87-3.06,8.13
		c0.05,0.47,0.45,0.82,0.92,0.82c0.04,0,0.07,0,0.1-0.01c0.51-0.06,0.87-0.51,0.82-1.02c-0.01-0.05-0.51-5.08,2.01-6.25
		c3.98-1.86,6.87-5.94,6.87-9.71C41.71,237.81,37.89,234,31.5,234L31.5,234z M31.5,234"/>
</g>
<g>
	<path class="st1" d="M108.8,237.75H94.07c-0.45,0-0.82,0.34-0.82,0.75v9.75c0,0.41,0.37,0.75,0.82,0.75h14.73
		c0.45,0,0.82-0.34,0.82-0.75v-9.75C109.61,238.09,109.25,237.75,108.8,237.75z M107.98,247.5H94.89v-8.25h13.09V247.5z"/>
	<path class="st1" d="M115.34,270H87.52c-0.45,0-0.82,0.23-0.82,0.5s0.37,0.5,0.82,0.5h27.82c0.45,0,0.82-0.23,0.82-0.5
		S115.79,270,115.34,270z"/>
	<path class="st1" d="M121.44,242.78l-2.5-2.65c-0.1-0.1-0.24-0.16-0.38-0.16c-0.89,0.01-1.16,0.82-0.74,1.27l2.38,2.52
		c0.56,0.59,0.88,0.95,0.88,1.49h-2.29c-0.54,0-0.98,0.4-0.98,0.9v3.6c0,0.82,0.74,1.5,1.64,1.5h1.64v11.25
		c0,0.41-0.37,0.75-0.82,0.75h-1.81c-0.47,0-0.65-0.4-0.65-0.75v-9.79c0-1.32-1.36-2.21-2.63-2.21h-1.46v-12.75
		c0-2.07-1.83-3.75-4.09-3.75H93.25c-2.26,0-4.09,1.68-4.09,3.75v29.2c0,0.76,0.66,0.77,1.77,0.79c0.6,0.01,1.42,0.02,2.32,0.02
		h16.36c0.91,0,1.73-0.01,2.32-0.02c1.1-0.01,1.77-0.03,1.77-0.79V252h1.46c0.5,0,0.99,0.35,0.99,0.71v9.79
		c0,1.28,0.98,2.25,2.28,2.25h1.81c1.36,0,2.45-1.01,2.45-2.25l0,0v-17.25C122.71,244.13,122.03,243.41,121.44,242.78z
		 M112.07,266.23c-0.54,0.01-1.37,0.02-2.45,0.02H93.25c-1.09,0-1.91-0.01-2.45-0.02v-28.48c0-1.24,1.1-2.25,2.45-2.25h16.36
		c1.36,0,2.45,1.01,2.45,2.25V266.23z M119.43,249.75v-3h1.64v3H119.43z"/>
</g>
<g>
	<path class="st3" d="M96.72,328.82c-0.28,0-0.5,0.2-0.5,0.45v8.46c0,0.25,0.23,0.46,0.5,0.46c0.28,0,0.5-0.2,0.5-0.46v-8.46
		C97.23,329.02,97,328.82,96.72,328.82L96.72,328.82z M96.72,328.82"/>
	<path class="st3" d="M102.06,328.82c-0.28,0-0.5,0.2-0.5,0.45v8.46c0,0.25,0.22,0.46,0.5,0.46c0.28,0,0.5-0.2,0.5-0.46v-8.46
		C102.56,329.02,102.33,328.82,102.06,328.82L102.06,328.82z M102.06,328.82"/>
	<path class="st3" d="M107.33,328.82c-0.28,0-0.5,0.2-0.5,0.45v8.46c0,0.25,0.23,0.46,0.5,0.46c0.28,0,0.5-0.2,0.5-0.46v-8.46
		C107.83,329.02,107.61,328.82,107.33,328.82L107.33,328.82z M107.33,328.82"/>
	<path class="st3" d="M112.54,328.82c-0.28,0-0.51,0.2-0.51,0.45v8.46c0,0.25,0.23,0.46,0.51,0.46c0.28,0,0.5-0.2,0.5-0.46v-8.46
		C113.04,329.02,112.81,328.82,112.54,328.82L112.54,328.82z M112.54,328.82"/>
	<path class="st3" d="M119.78,322.07l2.11-1.91c0.42-0.38,0.42-1,0-1.38l-1.5-1.35c-0.18-0.17-0.46-0.26-0.76-0.26
		c-0.3,0-0.58,0.1-0.77,0.27l-3.95,3.57v-8.15c0-0.1,0-0.34-1.79-4.91l-0.03-0.08l0.08-0.04c0.36-0.14,0.59-0.46,0.59-0.82v-0.11
		c0-0.49-0.45-0.9-0.99-0.9h-5.26c-0.55,0-0.99,0.4-0.99,0.9v0.11c0,0.37,0.26,0.7,0.64,0.84l0.09,0.03l-0.03,0.08
		c-1.85,4.55-1.85,4.79-1.85,4.89v9.08l-6.19-6.26l-5.83,4.17l-2.68-2.42c-0.18-0.17-0.46-0.26-0.76-0.26c-0.3,0-0.58,0.1-0.77,0.27
		l-1.49,1.35c-0.2,0.18-0.32,0.43-0.32,0.69c0,0.26,0.11,0.51,0.32,0.69l2.11,1.91h-3.06v5h2.53l3.5,14.87l0.01,0.07h22.88
		l4.53-14.94h2.54v-5H119.78z M93.57,341.09l-3.3-14h28.84l-4.24,14H93.57z M87.71,322.98h4.49l-3.9-3.49l1.6-1.48l5.5,4.97h18.76
		l5.46-4.97l1.64,1.44l-3.9,3.53h4.35v3.18H87.71V322.98z M112.86,307.12h-0.97l0.2,0.52c1.19,3.02,1.93,5.01,1.95,5.18l0,8.95
		l-0.27,0.24h-7.33c-0.11,0-0.21-0.08-0.21-0.19v-8.92c0.04-0.25,0.79-2.22,2.03-5.26l0.22-0.53l-1.1-0.02v-0.3l0.14-0.01l5.4,0.02
		L112.86,307.12z M95.81,322.07l-1.78-1.61l5.04-3.54l5.1,5.15H95.81z M95.81,322.07"/>
</g>
<path class="st1" d="M15.39,387.94c-0.01,0.07-0.02,0.14-0.02,0.22v1.48c0,0.61,0.39,1.16,0.97,1.37v2.18
	c0,0.73,0.59,1.33,1.33,1.36v12.59c-0.74,0.03-1.33,0.63-1.33,1.36v2.17c-0.58,0.22-0.97,0.77-0.97,1.38v1.45
	c0,0.27,0.22,0.49,0.5,0.49h33.62c0.28,0,0.5-0.22,0.5-0.49v-1.45c0-0.61-0.39-1.16-0.97-1.38v-2.18c0-0.73-0.59-1.33-1.33-1.36
	v-12.57c0.74-0.03,1.33-0.63,1.33-1.36v-2.18c0.58-0.21,0.97-0.76,0.97-1.37v-1.47c0-0.07-0.01-0.14-0.02-0.22
	c0.25,0.11,0.54,0,0.65-0.25c0.11-0.25,0-0.53-0.25-0.64l-17.46-9c-0.15-0.08-0.32-0.08-0.47,0l-17.46,8.99
	c-0.24,0.13-0.34,0.42-0.21,0.66C14.89,387.93,15.16,388.03,15.39,387.94L15.39,387.94z M17.34,391.85v-0.75h5.75v0.75L17.34,391.85
	z M30.14,394.55v12.58c-0.74,0.03-1.33,0.63-1.33,1.36v2.08h-4.73v-2.08c0-0.73-0.59-1.33-1.33-1.36v-12.59
	c0.74-0.03,1.33-0.63,1.33-1.36v-2.08h4.73v2.08C28.8,393.91,29.39,394.51,30.14,394.55L30.14,394.55z M29.8,391.85v-0.75h5.75v0.75
	L29.8,391.85z M42.6,394.55v12.58c-0.74,0.03-1.33,0.63-1.33,1.36v2.08h-4.73v-2.08c0-0.73-0.59-1.33-1.33-1.36v-12.59
	c0.74-0.03,1.33-0.63,1.33-1.36v-2.08h4.73v2.08C41.27,393.91,41.85,394.51,42.6,394.55L42.6,394.55z M42.27,391.85v-0.75h5.75v0.75
	L42.27,391.85z M48.02,409.83v0.75h-5.76v-0.75H48.02z M35.55,409.83v0.75H29.8v-0.75H35.55z M30.63,393.58H30.2
	c-0.22,0-0.4-0.18-0.4-0.39v-0.36h5.75v0.36c0,0.22-0.18,0.39-0.4,0.39H30.63z M34.22,394.56v12.57h-3.09v-12.57H34.22z
	 M30.63,408.11h4.52c0.22,0,0.4,0.17,0.4,0.39v0.36H29.8v-0.36c0-0.22,0.18-0.39,0.4-0.39H30.63z M23.08,409.83v0.75h-5.75v-0.75
	H23.08z M17.33,393.2v-0.37h5.75v0.36c0,0.22-0.18,0.39-0.4,0.39h-4.96c-0.22-0.01-0.39-0.18-0.39-0.39V393.2z M21.75,394.57v12.56
	h-3.09v-12.57L21.75,394.57z M17.33,408.51c0-0.22,0.18-0.39,0.4-0.39h4.95c0.22,0,0.4,0.17,0.4,0.39v0.36h-5.75V408.51z
	 M48.99,412.07v0.96H16.36v-0.96c0-0.28,0.23-0.51,0.52-0.51h31.6C48.75,411.57,48.98,411.79,48.99,412.07L48.99,412.07z
	 M48.01,408.51v0.36h-5.75v-0.36c0-0.22,0.18-0.39,0.4-0.39h4.96C47.84,408.12,48.01,408.29,48.01,408.51L48.01,408.51z
	 M43.59,407.14v-12.58h3.09v12.57L43.59,407.14z M48.01,393.2c0,0.22-0.18,0.39-0.4,0.39h-4.95c-0.22,0-0.4-0.18-0.4-0.39v-0.37
	h5.75L48.01,393.2z M32.67,379.04l14.84,7.66H17.83L32.67,379.04z M16.36,388.17c0-0.27,0.22-0.49,0.5-0.49h31.63
	c0.28,0,0.5,0.22,0.5,0.49v1.48c0,0.27-0.22,0.49-0.5,0.49H16.86c-0.28,0-0.5-0.22-0.5-0.49V388.17z M16.36,388.17"/>
<rect x="14.71" y="378" class="st2" width="36" height="36"/>
<g>
	<path class="st1" d="M122.71,393c0-0.1,0-0.3,0-0.4c0-5.3-4.3-9.7-9.7-9.7c-3.4,0-6.6,1.8-8.3,4.7c-1.7-2.9-4.9-4.7-8.3-4.7
		c-5.3,0-9.7,4.3-9.7,9.7c0,0.1,0,0.3,0,0.4c0,2.3,0,5.1,3.6,9.4c3.8,4.4,12.4,11.6,14.4,11.6s10.6-7.2,14.4-11.6
		C122.71,398.1,122.71,395.3,122.71,393z M118.01,401.5c-4.2,5-12.1,11-13.3,11.1c-1.2-0.1-9.1-6.1-13.3-11.1
		c-3.3-3.9-3.3-6.4-3.3-8.5c0-0.1,0-0.3,0-0.4c0-4.6,3.7-8.3,8.3-8.3c3.4,0,6.4,2,7.7,5.1c0.1,0.3,0.4,0.4,0.6,0.4s0.5-0.2,0.6-0.4
		c1.3-3.1,4.3-5.1,7.7-5.1c4.6,0,8.3,3.7,8.3,8.3c0,0.1,0,0.3,0,0.4C121.31,395.2,121.31,397.6,118.01,401.5z"/>
	<path class="st1" d="M116.51,397.4h-9.3l-1.2-2.4c-0.1-0.2-0.4-0.4-0.7-0.4s-0.5,0.2-0.6,0.5l-2,5.4l-2.3-10.1
		c-0.1-0.3-0.3-0.5-0.6-0.5s-0.6,0.2-0.7,0.5l-2.6,7.8h-3.7c-0.4,0-0.7,0.3-0.7,0.7s0.3,0.7,0.7,0.7h4.2c0.3,0,0.6-0.2,0.7-0.5
		l2-5.9l2.2,10c0.1,0.3,0.3,0.5,0.6,0.5l0,0c0.3,0,0.6-0.2,0.7-0.5l2.2-6.1l0.7,1.3c0.1,0.2,0.4,0.4,0.6,0.4h9.7
		c0.4,0,0.7-0.3,0.7-0.7S116.81,397.4,116.51,397.4z"/>
</g>
<g>
	<path class="st1" d="M105.31,452.39l0.72,0.96l0.96-0.72l-1.8-2.4c-0.22-0.27-0.61-0.3-0.87-0.09c-0.03,0.03-0.06,0.05-0.09,0.09
		l-1.8,2.4l0.96,0.72l0.72-0.96v4.8h1.2V452.39z"/>
	<path class="st1" d="M105.31,483.59v-4.8h-1.2v4.8l-0.72-0.96l-0.96,0.72l1.8,2.4c0.2,0.27,0.57,0.32,0.84,0.12
		c0.05-0.03,0.09-0.07,0.12-0.12l1.8-2.4l-0.96-0.72L105.31,483.59z"/>
	<rect x="104.11" y="458.39" class="st0" width="1.2" height="1.2"/>
	<rect x="104.11" y="476.39" class="st0" width="1.2" height="1.2"/>
	<path class="st1" d="M93.91,468.59v-1.2h-4.8l0.96-0.72l-0.72-0.96l-2.4,1.8c-0.27,0.2-0.32,0.57-0.12,0.84
		c0.03,0.05,0.07,0.09,0.12,0.12l2.4,1.8l0.72-0.96l-0.96-0.72H93.91z"/>
	<path class="st1" d="M120.07,465.71l-0.72,0.96l0.96,0.72h-4.8v1.2h4.8l-0.96,0.72l0.72,0.96l2.4-1.8c0.27-0.2,0.32-0.57,0.12-0.84
		c-0.03-0.05-0.07-0.09-0.12-0.12L120.07,465.71z"/>
	<rect x="95.11" y="467.39" class="st0" width="1.2" height="1.2"/>
	<rect x="113.11" y="467.39" class="st0" width="1.2" height="1.2"/>
	<path class="st1" d="M97.49,459.93l-3.39-3.39l1.19,0.17l0.17-1.19l-2.97-0.43c-0.33-0.05-0.63,0.18-0.68,0.51
		c-0.01,0.06-0.01,0.12,0,0.18l0.42,2.97l1.19-0.17l-0.17-1.19l3.39,3.39L97.49,459.93z"/>
	<path class="st1" d="M115.99,477.41l0.17,1.19l-3.39-3.39l-0.85,0.85l3.39,3.39l-1.19-0.17l-0.17,1.19l2.97,0.42
		c0.03,0,0.06,0.01,0.09,0.01c0.33,0,0.6-0.27,0.6-0.6c0-0.03,0-0.06-0.01-0.09l-0.42-2.97L115.99,477.41z"/>
	
		<rect x="97.74" y="461.02" transform="matrix(0.7071 -0.7071 0.7071 0.7071 -297.613 204.7447)" class="st0" width="1.2" height="1.2"/>
	
		<rect x="110.47" y="473.75" transform="matrix(0.7071 -0.7071 0.7071 0.7071 -302.8845 217.4726)" class="st0" width="1.2" height="1.2"/>
	<path class="st1" d="M96.64,475.2l-3.39,3.39l0.17-1.19l-1.19-0.17l-0.43,2.97c-0.05,0.33,0.18,0.63,0.51,0.68
		c0.03,0,0.06,0.01,0.09,0.01c0.03,0,0.06,0,0.09-0.01l2.97-0.42l-0.17-1.19l-1.19,0.17l3.39-3.39L96.64,475.2z"/>
	<path class="st1" d="M117.18,458.74l0.42-2.97c0.03-0.19-0.04-0.38-0.17-0.51c-0.13-0.13-0.32-0.2-0.51-0.17l-2.97,0.42l0.17,1.19
		l1.19-0.17l-3.39,3.39l0.85,0.85l3.39-3.39l-0.17,1.19L117.18,458.74z"/>
	
		<rect x="97.74" y="473.75" transform="matrix(0.7071 -0.7071 0.7071 0.7071 -306.6127 208.4729)" class="st0" width="1.2" height="1.2"/>
	
		<rect x="110.47" y="461.02" transform="matrix(0.7071 -0.7071 0.7071 0.7071 -293.8833 213.7443)" class="st0" width="1.2" height="1.2"/>
	<g>
		<path class="st0" d="M107.81,464.71c0-0.15-0.12-0.27-0.27-0.27h-5.67c-0.15,0-0.27,0.12-0.27,0.27s0.12,0.27,0.27,0.27h1.62
			c1.1,0,2.01,0.83,2.15,1.88h-3.77c-0.15,0-0.27,0.12-0.27,0.27s0.12,0.27,0.27,0.27h3.77c-0.13,1.09-1.06,1.9-2.15,1.9h-1.62
			c-0.15,0-0.27,0.13-0.27,0.28c0,0.07,0.03,0.14,0.08,0.19l4.05,3.83c0.11,0.1,0.28,0.1,0.38-0.01l0,0c0.1-0.11,0.1-0.28-0.01-0.38
			l-3.57-3.37h0.95c1.4,0,2.55-1.07,2.69-2.44h1.36c0.15,0,0.27-0.12,0.27-0.27s-0.12-0.27-0.27-0.27h-1.36
			c-0.08-0.75-0.48-1.45-1.07-1.88h2.44C107.69,464.98,107.81,464.86,107.81,464.71L107.81,464.71z"/>
	</g>
</g>
<g>
	<g>
		<defs>
			<rect id="SVGID_9_" x="86.71" y="522" width="18" height="36"/>
		</defs>
		<clipPath id="SVGID_2_">
			<use xlink:href="#SVGID_9_"  style="overflow:visible;"/>
		</clipPath>
		<path class="st4" d="M86.71,536.06c0,4.68,2.99,8.64,7.05,9.62v8.37l-4.77,2.62c-0.27,0.15-0.41,0.47-0.34,0.79
			c0.07,0.32,0.33,0.54,0.62,0.54h12.81c0.3,0,0.56-0.22,0.62-0.54c0.07-0.32-0.07-0.64-0.34-0.79l-4.77-2.62v-8.37
			c4.17-1,7.12-5.12,7.05-9.77c-0.03-1.8-0.28-2.04-2.58-13.36c-0.07-0.32-0.33-0.55-0.62-0.55H98.3c-0.35,0-0.64,0.31-0.64,0.7
			s0.29,0.7,0.64,0.7h2.63c0,0,2.31,11.12,2.33,11.29c-1.35-0.73-2.96-1.4-4.36-1.45c-1.48-0.05-2.83,0.77-4.14,1.56
			c-1.24,0.75-2.41,1.45-3.46,1.27c-0.87-0.15-1.93-0.85-3.09-2.03l2.21-10.64h2.76c0.35,0,0.64-0.31,0.64-0.7s-0.29-0.7-0.64-0.7
			h-3.27c-0.3,0-0.56,0.23-0.62,0.55C86.73,534.85,86.71,534.47,86.71,536.06L86.71,536.06z M99.37,556.59h-7.38l2.7-1.48
			c0.22-0.12,0.35-0.36,0.35-0.63v-8.6c0.21,0.02,0.43,0.03,0.64,0.03c0.21,0,0.43-0.01,0.64-0.03v8.6c0,0.27,0.14,0.51,0.35,0.63
			L99.37,556.59z M95.37,536.04c1.16-0.7,2.35-1.42,3.49-1.38c1.13,0.04,2.71,0.63,4.5,1.68c-0.13,4.42-3.47,8.2-7.75,8.16
			c-4.37-0.04-7.79-4.11-7.62-8.79c1.11,0.99,2.14,1.58,3.09,1.75C92.59,537.73,94.03,536.85,95.37,536.04L95.37,536.04z
			 M95.37,536.04"/>
	</g>
	<path class="st1" d="M96.38,522.7c0,0.39-0.29,0.7-0.64,0.7c-0.35,0-0.64-0.31-0.64-0.7s0.29-0.7,0.64-0.7
		C96.09,522,96.38,522.31,96.38,522.7L96.38,522.7z M96.38,522.7"/>
</g>
<g>
	<path class="st1" d="M122.7,555.46l-1.07-12.1c-0.02-0.27-0.25-0.47-0.51-0.47h-2.21c-0.03-2.02-1.68-3.65-3.71-3.65
		c-2.03,0-3.68,1.63-3.71,3.65h-2.21c-0.27,0-0.49,0.2-0.51,0.47l-1.07,12.1c0,0.02,0,0.03,0,0.05c0,1.38,1.26,2.5,2.82,2.5h9.39
		c1.55,0,2.82-1.12,2.82-2.5C122.71,555.49,122.71,555.47,122.7,555.46L122.7,555.46z M115.19,540.27c1.45,0,2.64,1.17,2.67,2.61
		h-5.34C112.55,541.44,113.74,540.27,115.19,540.27L115.19,540.27z M119.89,556.96h-9.39c-0.97,0-1.77-0.64-1.78-1.44l1.03-11.6
		h1.73v1.57c0,0.29,0.23,0.52,0.52,0.52s0.52-0.23,0.52-0.52v-1.57h5.35v1.57c0,0.29,0.23,0.52,0.52,0.52s0.52-0.23,0.52-0.52v-1.57
		h1.73l1.03,11.6C121.65,556.32,120.86,556.96,119.89,556.96L119.89,556.96z M119.89,556.96"/>
</g>
<path class="st1" d="M100.33,625.32c0,2.41,1.96,4.37,4.37,4.37c2.41,0,4.37-1.96,4.37-4.37c0-2.41-1.96-4.37-4.37-4.37
	C102.29,620.95,100.33,622.91,100.33,625.32L100.33,625.32z M104.7,622.75c1.42,0,2.57,1.15,2.57,2.57c0,1.42-1.15,2.57-2.57,2.57
	c-1.42,0-2.57-1.15-2.57-2.57C102.13,623.9,103.29,622.75,104.7,622.75L104.7,622.75z M104.7,622.75"/>
<path class="st1" d="M118.33,629.69c2.41,0,4.37-1.96,4.37-4.37c0-2.41-1.96-4.37-4.37-4.37c-2.41,0-4.37,1.96-4.37,4.37
	C113.96,627.73,115.92,629.69,118.33,629.69L118.33,629.69z M118.33,622.75c1.42,0,2.57,1.15,2.57,2.57c0,1.42-1.15,2.57-2.57,2.57
	c-1.42,0-2.57-1.15-2.57-2.57C115.76,623.9,116.92,622.75,118.33,622.75L118.33,622.75z M118.33,622.75"/>
<path class="st1" d="M91.07,629.69c2.41,0,4.37-1.96,4.37-4.37c0-2.41-1.96-4.37-4.37-4.37c-2.41,0-4.37,1.96-4.37,4.37
	C86.7,627.73,88.66,629.69,91.07,629.69L91.07,629.69z M91.07,622.75c1.42,0,2.57,1.15,2.57,2.57c0,1.42-1.15,2.57-2.57,2.57
	c-1.42,0-2.57-1.15-2.57-2.57C88.5,623.9,89.66,622.75,91.07,622.75L91.07,622.75z M91.07,622.75"/>
<rect x="86.71" y="620.86" class="st2" width="36" height="8.91"/>
<g>
	<g>
		<defs>
			<rect id="SVGID_11_" x="86.71" y="666" width="36" height="36"/>
		</defs>
		<clipPath id="SVGID_4_">
			<use xlink:href="#SVGID_11_"  style="overflow:visible;"/>
		</clipPath>
		<path class="st5" d="M96.96,689.66h21.33c2.42,0,4.39-1.83,4.39-4.07v-8.4c0-0.01,0-0.03-0.01-0.04c0-0.01-0.01-0.04-0.01-0.05
			c0-0.01-0.01-0.03-0.01-0.04c-0.01-0.01-0.01-0.03-0.02-0.05c-0.01-0.01-0.01-0.03-0.02-0.04c-0.01-0.01-0.01-0.03-0.02-0.04
			c-0.01-0.01-0.02-0.03-0.02-0.05c-0.01-0.01-0.02-0.03-0.02-0.04l-0.02-0.04c-0.01-0.01-0.02-0.02-0.02-0.04
			c-0.01-0.01-0.02-0.03-0.03-0.04c-0.01-0.01-0.02-0.02-0.03-0.04c-0.01-0.01-0.02-0.02-0.03-0.04c-0.01-0.01-0.02-0.02-0.03-0.04
			c-0.01-0.01-0.02-0.02-0.03-0.03l-0.04-0.04c-0.02-0.01-0.02-0.02-0.04-0.03c-0.02-0.01-0.03-0.02-0.05-0.03
			c-0.02-0.01-0.02-0.01-0.04-0.02c-0.02-0.01-0.03-0.01-0.05-0.03l-0.1-0.04l-0.05-0.02c-0.02-0.01-0.03-0.01-0.05-0.01
			c-0.02-0.01-0.04-0.01-0.06-0.01c-0.02,0-0.03-0.01-0.04-0.01c-0.02-0.01-0.04-0.01-0.06-0.01c-0.01,0-0.02-0.01-0.03-0.01
			l-27.04-3.46v-3.49c0-0.04,0-0.07-0.01-0.1c0-0.01,0-0.01-0.01-0.03c0-0.02-0.01-0.04-0.01-0.07c-0.01-0.02-0.01-0.04-0.02-0.06
			c0-0.01-0.01-0.02-0.01-0.04l-0.02-0.07c0-0.01-0.01-0.02-0.01-0.03c-0.01-0.02-0.02-0.04-0.03-0.06
			c-0.01-0.01-0.01-0.02-0.02-0.03c-0.01-0.01-0.02-0.03-0.03-0.04c-0.01-0.01-0.02-0.02-0.02-0.04c-0.01-0.01-0.02-0.02-0.02-0.04
			c-0.01-0.01-0.02-0.03-0.03-0.04l-0.07-0.07l-0.02-0.02c-0.02-0.01-0.03-0.03-0.06-0.04c-0.01-0.01-0.02-0.01-0.03-0.02
			c-0.02-0.01-0.03-0.02-0.05-0.04c-0.02-0.01-0.05-0.03-0.06-0.04c-0.01-0.01-0.02-0.01-0.02-0.01c-0.03-0.01-0.07-0.03-0.1-0.04
			l-5.86-2.29c-0.55-0.21-1.18,0.02-1.41,0.53c-0.23,0.51,0.02,1.09,0.57,1.3l5.2,2.03v21.8c0,2.06,1.67,3.77,3.83,4.03
			c-0.39,0.6-0.62,1.31-0.62,2.06c0,2.22,1.95,4.02,4.34,4.02c2.39,0,4.34-1.81,4.34-4.02c0-0.74-0.21-1.44-0.6-2.03h9.66
			c-0.38,0.6-0.6,1.29-0.6,2.03c0,2.22,1.95,4.02,4.34,4.02s4.34-1.81,4.34-4.02s-1.95-4.02-4.34-4.02H96.96
			c-1.24,0-2.24-0.94-2.24-2.08v-2.7C95.37,689.45,96.14,689.66,96.96,689.66L96.96,689.66z M102.31,697.89
			c0,1.12-0.99,2.03-2.19,2.03c-1.2,0-2.19-0.91-2.19-2.03c0-1.11,0.99-2.03,2.19-2.03C101.32,695.86,102.31,696.77,102.31,697.89
			L102.31,697.89z M119.45,697.89c0,1.12-0.99,2.03-2.19,2.03c-1.2,0-2.19-0.91-2.19-2.03c0-1.11,0.99-2.03,2.19-2.03
			C118.46,695.86,119.45,696.77,119.45,697.89L119.45,697.89z M118.29,687.67H96.96c-1.24,0-2.24-0.94-2.24-2.08v-10.75l25.82,3.29
			v7.45C120.54,686.74,119.53,687.67,118.29,687.67L118.29,687.67z M118.29,687.67"/>
	</g>
</g>
<g>
	<path class="st1" d="M111.45,760.87c-1.72,0-3.13,1.33-3.13,2.96s1.4,2.96,3.13,2.96c1.72,0,3.13-1.33,3.13-2.96
		S113.18,760.87,111.45,760.87L111.45,760.87z M111.45,765.27c-0.81,0-1.47-0.64-1.47-1.43c0-0.79,0.66-1.43,1.47-1.43
		c0.81,0,1.47,0.64,1.47,1.43C112.92,764.63,112.26,765.27,111.45,765.27L111.45,765.27z M111.45,765.27"/>
	<path class="st1" d="M94.96,760.87c-1.72,0-3.13,1.33-3.13,2.96s1.4,2.96,3.13,2.96c1.72,0,3.13-1.33,3.13-2.96
		S96.68,760.87,94.96,760.87L94.96,760.87z M94.96,765.27c-0.81,0-1.47-0.64-1.47-1.43c0-0.79,0.66-1.43,1.47-1.43
		c0.81,0,1.47,0.64,1.47,1.43C96.43,764.63,95.77,765.27,94.96,765.27L94.96,765.27z M94.96,765.27"/>
	<rect x="100.61" y="763.07" class="st1" width="5.19" height="1.53"/>
	<path class="st1" d="M120.42,742.3h-1.44c-0.36-2.43-2.63-4.3-5.35-4.3H92.78c-2.73,0-4.99,1.88-5.35,4.3h-1.44
		c-1.26,0-2.28,0.97-2.28,2.16v6.83c0,1.19,1.02,2.16,2.28,2.16h1.38v11.32c0,2.4,1.85,4.42,4.31,4.89V771c0,1.65,1.38,3,3.08,3
		h0.48c1.7,0,3.08-1.35,3.08-3v-1.24h9.77V771c0,1.65,1.38,3,3.08,3h0.48c1.7,0,3.08-1.35,3.08-3v-1.35
		c2.46-0.47,4.31-2.48,4.31-4.89v-11.32h1.38c1.26,0,2.28-0.97,2.28-2.16v-6.83C122.71,743.27,121.68,742.3,120.42,742.3
		L120.42,742.3z M92.78,739.53h20.85c2.07,0,3.75,1.55,3.75,3.46v1.55H89.03v-1.55C89.03,741.08,90.71,739.53,92.78,739.53
		L92.78,739.53z M89.03,746.08h13.25v11.55H89.03V746.08z M103.94,746.08h13.44v11.55h-13.44V746.08z M85.99,751.91
		c-0.34,0-0.62-0.28-0.62-0.62v-6.83c0-0.34,0.28-0.62,0.62-0.62h1.38v8.08H85.99z M96.66,771c0,0.81-0.64,1.47-1.42,1.47h-0.48
		c-0.78,0-1.42-0.66-1.42-1.47v-1.24h3.32V771z M111.65,772.47h-0.48c-0.78,0-1.42-0.66-1.42-1.47v-1.24h3.32V771
		C113.07,771.81,112.44,772.47,111.65,772.47L111.65,772.47z M113.63,768.22H92.78c-2.07,0-3.75-1.55-3.75-3.46v-5.61h28.35v5.61
		C117.38,766.67,115.7,768.22,113.63,768.22L113.63,768.22z M121.05,751.29c0,0.34-0.28,0.62-0.62,0.62h-1.39v-8.08h1.39
		c0.34,0,0.62,0.28,0.62,0.62V751.29z M121.05,751.29"/>
</g>
<g>
	<g>
		<defs>
			<rect id="SVGID_13_" x="86.71" y="810" width="35.8" height="36"/>
		</defs>
		<clipPath id="SVGID_6_">
			<use xlink:href="#SVGID_13_"  style="overflow:visible;"/>
		</clipPath>
		<path class="st6" d="M122.42,813.18l-0.07-0.64c-0.14-1.32-1.22-2.33-2.57-2.43l-0.54-0.03c-1.62-0.07-3.21,0.54-4.36,1.69
			l-5.41,5.38l-17.71-0.03c-1.49,0-2.94,0.61-4.02,1.69L87,819.53c-0.24,0.24-0.34,0.64-0.27,0.98c0.1,0.34,0.34,0.61,0.68,0.71
			l14.1,3.85l-3.28,3.28l-5.95,0.2c-0.61,0-1.18,0.24-1.62,0.71l-0.57,0.57c-0.24,0.24-0.34,0.61-0.27,0.95
			c0.1,0.34,0.34,0.57,0.64,0.71l7.57,2.87l3.04,7.84c0.14,0.34,0.44,0.57,0.78,0.61c0.34,0.03,0.64-0.07,0.88-0.34l0.61-0.61
			c0.41-0.41,0.64-0.95,0.71-1.62l0.2-5.98l3.31-3.24l3.82,14.13c0.1,0.34,0.37,0.61,0.71,0.71c0.1,0.03,0.17,0.03,0.27,0.03
			c0.27,0,0.54-0.1,0.74-0.3l0.74-0.74c1.08-1.08,1.69-2.54,1.69-4.06v-17.71l5.24-5.27C122.02,816.59,122.63,814.87,122.42,813.18
			L122.42,813.18z M119.82,816.86l-5.48,5.48c-0.14,0.14-0.2,0.3-0.2,0.47v17.98c0,1.18-0.47,2.26-1.28,3.11l-0.34,0.34l-4.02-14.64
			c-0.07-0.24-0.24-0.41-0.47-0.47c-0.07,0-0.1-0.03-0.17-0.03c-0.17,0-0.34,0.07-0.47,0.2l-4.33,4.26c-0.13,0.13-0.2,0.27-0.2,0.47
			l-0.2,6.22c0,0.2-0.07,0.51-0.3,0.71l-0.24,0.24l-2.94-7.61c-0.07-0.17-0.2-0.3-0.41-0.37l-7.33-2.81l0.2-0.2
			c0.1-0.1,0.37-0.3,0.71-0.3l6.25-0.2c0.17,0,0.34-0.07,0.44-0.2l4.29-4.29c0.17-0.17,0.24-0.41,0.17-0.64
			c-0.07-0.24-0.24-0.41-0.47-0.47l-14.67-4.02l0.34-0.34c0.81-0.81,1.93-1.28,3.08-1.28l17.98,0.03c0.17,0,0.34-0.07,0.47-0.2
			l5.61-5.58c0.88-0.88,2.1-1.35,3.35-1.28l0.54,0.03c0.68,0.03,1.22,0.57,1.28,1.22l0.07,0.64
			C121.21,814.63,120.77,815.92,119.82,816.86L119.82,816.86z M119.82,816.86"/>
	</g>
</g>
<g>
	<path class="st1" d="M113.77,889.42l-7.58-7.58c-0.14-0.14-0.33-0.22-0.54-0.22H89.74c-1.67,0-3.03,1.36-3.03,3.03v30.31
		c0,1.67,1.36,3.03,3.03,3.03h21.22c1.67,0,3.03-1.36,3.03-3.03v-25.01C113.99,889.76,113.91,889.57,113.77,889.42z M106.41,884.21
		l4.99,4.99h-3.48c-0.84,0-1.52-0.68-1.52-1.52V884.21z M110.96,916.48H89.74c-0.84,0-1.52-0.68-1.52-1.52v-30.31
		c0-0.84,0.68-1.52,1.52-1.52h15.16v4.55c0,1.67,1.36,3.03,3.03,3.03h4.55v24.25C112.47,915.8,111.79,916.48,110.96,916.48z"/>
	<path class="st1" d="M108.68,907.11H92.01c-0.42,0-0.76,0.34-0.76,0.76c0,0.42,0.34,0.76,0.76,0.76h16.67
		c0.42,0,0.76-0.34,0.76-0.76C109.44,907.45,109.1,907.11,108.68,907.11z"/>
	<path class="st1" d="M108.68,911.66H92.01c-0.42,0-0.76,0.34-0.76,0.76s0.34,0.76,0.76,0.76h16.67c0.42,0,0.76-0.34,0.76-0.76
		S109.1,911.66,108.68,911.66z"/>
	<g>
		<path class="st1" d="M100.29,904.17c1.34,0,2.55-0.55,3.43-1.43c0.88-0.88,1.43-2.09,1.43-3.43c0-1.84-2.17-5.03-3.62-7.16
			c-0.31-0.46-0.59-0.88-0.84-1.27c-0.04-0.06-0.09-0.11-0.15-0.15c-0.22-0.15-0.51-0.07-0.66,0.15c-0.24,0.39-0.51,0.79-0.84,1.27
			c-1.45,2.13-3.62,5.34-3.62,7.18c0,1.34,0.55,2.55,1.43,3.43C97.74,903.61,98.95,904.17,100.29,904.17z M99.83,892.65
			c0.17-0.24,0.31-0.48,0.46-0.68c0.15,0.2,0.29,0.44,0.46,0.68c1.38,2.06,3.45,5.1,3.45,6.65c0,1.08-0.44,2.06-1.14,2.77
			c-0.72,0.72-1.69,1.14-2.77,1.14s-2.06-0.44-2.77-1.14c-0.72-0.72-1.14-1.69-1.14-2.77C96.38,897.76,98.45,894.69,99.83,892.65z"
			/>
	</g>
</g>
<g>
	<path class="st1" d="M109.32,177.89c0.38,0,0.68-0.32,0.68-0.7s-0.31-0.7-0.68-0.7c-0.38,0-0.68,0.32-0.68,0.7
		S108.95,177.89,109.32,177.89L109.32,177.89z M109.32,177.89"/>
	<path class="st1" d="M122.38,162.1c-0.2-0.13-0.45-0.14-0.66-0.03c-3.4,1.75-5.62,5.24-5.82,9.15c-2.57-3.3-6.48-5.28-10.67-5.28
		c-2.86,0-5.62,0.92-7.92,2.61v-5.84c0-0.39-0.31-0.7-0.68-0.7s-0.68,0.31-0.68,0.7v8.16h-2.73v-8.16c0-0.39-0.31-0.7-0.68-0.7
		c-0.38,0-0.68,0.31-0.68,0.7v8.16h-2.73v-8.16c0-0.39-0.31-0.7-0.68-0.7s-0.68,0.31-0.68,0.7v8.86c0,1.96,1.12,3.65,2.73,4.45
		v19.88c0,1.16,0.92,2.11,2.05,2.11c1.13,0,2.05-0.95,2.05-2.11v-7.09c2.57,3.29,6.48,5.26,10.65,5.26c6.3,0,11.69-4.42,13.22-10.55
		h0.16v12.38c0,1.16,0.92,2.11,2.05,2.11s2.05-0.95,2.05-2.11c0-0.83,0-31.85,0-33.19C122.71,162.46,122.58,162.23,122.38,162.1
		L122.38,162.1z M93.21,195.89c0,0.39-0.31,0.7-0.68,0.7c-0.38,0-0.68-0.32-0.68-0.7v-2.11h1.37V195.89z M93.21,192.38h-1.37v-15.94
		c0.22,0.03,0.45,0.05,0.68,0.05c0.23,0,0.46-0.02,0.68-0.05V192.38z M92.53,175.08c-1.65,0-3.03-1.21-3.34-2.81h6.69
		C95.56,173.87,94.18,175.08,92.53,175.08L92.53,175.08z M105.23,192.66c-4.39,0-8.46-2.43-10.65-6.34v-10.31
		c1.61-0.79,2.73-2.49,2.73-4.45v-1.24c2.21-1.92,5.01-2.98,7.92-2.98c4.39,0,8.46,2.43,10.65,6.34v9.13c0,0.39,0.31,0.7,0.68,0.7
		l0.47,0C115.54,188.86,110.7,192.66,105.23,192.66L105.23,192.66z M121.34,195.89c0,0.39-0.31,0.7-0.68,0.7
		c-0.38,0-0.68-0.32-0.68-0.7v-2.11h1.37V195.89z M121.34,192.38h-1.37v-8.86h1.37V192.38z M121.34,182.11c-1.53,0-2.63,0-4.1,0
		c0-1.61,0-8.69,0-10.3c0-3.22,1.54-6.14,4.1-7.88V182.11z M121.34,182.11"/>
	<rect x="87.75" y="162" class="st2" width="34.96" height="36"/>
	<path class="st1" d="M105.23,171.56c-4.52,0-8.19,3.79-8.19,8.44s3.68,8.44,8.19,8.44s8.19-3.79,8.19-8.44
		S109.75,171.56,105.23,171.56L105.23,171.56z M105.23,187.03c-3.76,0-6.83-3.15-6.83-7.03s3.06-7.03,6.83-7.03s6.83,3.15,6.83,7.03
		S108.99,187.03,105.23,187.03L105.23,187.03z M105.23,187.03"/>
	<path class="st1" d="M109.32,179.93c0,0.02,0,0.05,0,0.07c0,1.85-1.2,3.51-2.93,4.04c-0.36,0.11-0.57,0.5-0.46,0.88
		c0.11,0.37,0.49,0.58,0.85,0.47c2.3-0.71,3.9-2.92,3.9-5.39c0-0.03,0-0.07,0-0.1c-0.01-0.39-0.32-0.7-0.7-0.69
		C109.61,179.22,109.32,179.54,109.32,179.93L109.32,179.93z M109.32,179.93"/>
</g>
<polygon class="st0" points="88.15,116.96 95.47,124.77 88.15,124.77 "/>
<polygon class="st0" points="121.42,116.96 114.11,124.77 121.42,124.77 "/>
<rect x="207.8" y="209.41" class="st2" width="18.19" height="18.19"/>
<path class="st8" d="M193.56,235.65c-2.66-2.61-6.96-2.61-9.62,0v0l-22.07,21.75c-0.05,0.05-0.09,0.11-0.12,0.18
	c-0.01,0.02-0.02,0.03-0.02,0.05c-0.01,0.02-0.01,0.03-0.02,0.05l-2.99,11.56c-0.06,0.21,0.01,0.43,0.16,0.58s0.38,0.21,0.59,0.16
	l11.73-2.94c0.02,0,0.03-0.01,0.05-0.02c0.02-0.01,0.04-0.01,0.05-0.02c0.07-0.03,0.13-0.07,0.18-0.12l22.07-21.75l0,0
	C196.22,242.51,196.22,238.27,193.56,235.65L193.56,235.65z M192.69,236.51c2,1.98,2.18,5.12,0.41,7.3l-7.82-7.71
	C187.5,234.37,190.68,234.54,192.69,236.51L192.69,236.51z M184.38,236.95l7.87,7.75l-2.22,2.18l-7.87-7.75L184.38,236.95z
	 M160.93,265.64c0.98,0.43,1.76,1.2,2.2,2.16l-2.95,0.74L160.93,265.64z M164.33,267.5c-0.57-1.39-1.68-2.49-3.09-3.05l1.4-5.44
	l7.21,7.1L164.33,267.5z M171.05,265.58l-7.87-7.75l18.11-17.84l7.87,7.75L171.05,265.58z M171.05,265.58"/>
<circle class="st1" cx="31.41" cy="468" r="18"/>
<g>
	<path class="st0" d="M33.66,459l2.59,2.59l-3.26,3.26l1.58,1.58l3.26-3.26l2.59,2.59V459H33.66z M33.66,459"/>
	<path class="st0" d="M29.16,459h-6.75v6.75l2.59-2.59l5.29,5.28V477h2.25v-9.45l-5.96-5.96L29.16,459z M29.16,459"/>
</g>
</svg>
